<mxfile host="Electron" agent="Mozilla/5.0 (Windows NT 10.0; Win64; x64) AppleWebKit/537.36 (KHTML, like Gecko) draw.io/24.7.17 Chrome/128.0.6613.36 Electron/32.0.1 Safari/537.36" version="24.7.17">
  <diagram id="R2lEEEUBdFMjLlhIrx00" name="Page-1">
    <mxGraphModel dx="4046" dy="2680" grid="1" gridSize="10" guides="1" tooltips="1" connect="1" arrows="1" fold="1" page="1" pageScale="1" pageWidth="850" pageHeight="1100" math="0" shadow="0" extFonts="Permanent Marker^https://fonts.googleapis.com/css?family=Permanent+Marker">
      <root>
        <mxCell id="0" />
        <mxCell id="1" parent="0" />
        <mxCell id="nt-hYRIr4ldOG242e9yD-1" value="User" style="whiteSpace=wrap;html=1;align=center;movable=0;resizable=0;rotatable=0;deletable=0;editable=0;locked=1;connectable=0;fillStyle=auto;fillColor=#6d8764;strokeColor=#3A5431;labelBackgroundColor=none;fontColor=#ffffff;" parent="1" vertex="1">
          <mxGeometry x="2565" y="790" width="100" height="40" as="geometry" />
        </mxCell>
        <mxCell id="nt-hYRIr4ldOG242e9yD-2" value="user_id" style="ellipse;whiteSpace=wrap;html=1;align=center;fontStyle=4;movable=0;resizable=0;rotatable=0;deletable=0;editable=0;locked=1;connectable=0;fillStyle=auto;fillColor=#647687;strokeColor=#314354;labelBackgroundColor=none;fontColor=#ffffff;" parent="1" vertex="1">
          <mxGeometry x="2440" y="720" width="100" height="40" as="geometry" />
        </mxCell>
        <mxCell id="nt-hYRIr4ldOG242e9yD-3" value="email" style="ellipse;whiteSpace=wrap;html=1;align=center;movable=0;resizable=0;rotatable=0;deletable=0;editable=0;locked=1;connectable=0;fillStyle=auto;fillColor=#76608a;strokeColor=#432D57;labelBackgroundColor=none;fontColor=#ffffff;" parent="1" vertex="1">
          <mxGeometry x="2505" y="570" width="100" height="40" as="geometry" />
        </mxCell>
        <mxCell id="nt-hYRIr4ldOG242e9yD-4" value="password" style="ellipse;whiteSpace=wrap;html=1;align=center;movable=0;resizable=0;rotatable=0;deletable=0;editable=0;locked=1;connectable=0;fillStyle=auto;fillColor=#76608a;strokeColor=#432D57;labelBackgroundColor=none;fontColor=#ffffff;" parent="1" vertex="1">
          <mxGeometry x="2710" y="720" width="100" height="40" as="geometry" />
        </mxCell>
        <mxCell id="nt-hYRIr4ldOG242e9yD-5" value="username" style="ellipse;whiteSpace=wrap;html=1;align=center;movable=0;resizable=0;rotatable=0;deletable=0;editable=0;locked=1;connectable=0;fillStyle=auto;fillColor=#76608a;strokeColor=#432D57;labelBackgroundColor=none;fontColor=#ffffff;" parent="1" vertex="1">
          <mxGeometry x="2460" y="650" width="100" height="40" as="geometry" />
        </mxCell>
        <mxCell id="nt-hYRIr4ldOG242e9yD-6" value="created_at" style="ellipse;whiteSpace=wrap;html=1;align=center;movable=0;resizable=0;rotatable=0;deletable=0;editable=0;locked=1;connectable=0;fillStyle=auto;fillColor=#76608a;strokeColor=#432D57;labelBackgroundColor=none;fontColor=#ffffff;" parent="1" vertex="1">
          <mxGeometry x="2700" y="650" width="100" height="40" as="geometry" />
        </mxCell>
        <mxCell id="nt-hYRIr4ldOG242e9yD-7" value="last_login" style="ellipse;whiteSpace=wrap;html=1;align=center;movable=0;resizable=0;rotatable=0;deletable=0;editable=0;locked=1;connectable=0;fillStyle=auto;fillColor=#76608a;strokeColor=#432D57;labelBackgroundColor=none;fontColor=#ffffff;" parent="1" vertex="1">
          <mxGeometry x="2650" y="570" width="100" height="40" as="geometry" />
        </mxCell>
        <mxCell id="nt-hYRIr4ldOG242e9yD-8" value="Contact Information" style="whiteSpace=wrap;html=1;align=center;movable=0;resizable=0;rotatable=0;deletable=0;editable=0;locked=1;connectable=0;fillStyle=auto;fillColor=#6d8764;strokeColor=#3A5431;labelBackgroundColor=none;fontColor=#ffffff;" parent="1" vertex="1">
          <mxGeometry x="3328" y="1310" width="150" height="40" as="geometry" />
        </mxCell>
        <mxCell id="nt-hYRIr4ldOG242e9yD-9" value="contact_name" style="ellipse;whiteSpace=wrap;html=1;align=center;movable=0;resizable=0;rotatable=0;deletable=0;editable=0;locked=1;connectable=0;fillStyle=auto;fillColor=#76608a;strokeColor=#432D57;labelBackgroundColor=none;fontColor=#ffffff;" parent="1" vertex="1">
          <mxGeometry x="3403" y="1130" width="100" height="40" as="geometry" />
        </mxCell>
        <mxCell id="nt-hYRIr4ldOG242e9yD-10" value="contact_id" style="ellipse;whiteSpace=wrap;html=1;align=center;fontStyle=4;movable=0;resizable=0;rotatable=0;deletable=0;editable=0;locked=1;connectable=0;fillStyle=auto;fillColor=#647687;strokeColor=#314354;labelBackgroundColor=none;fontColor=#ffffff;" parent="1" vertex="1">
          <mxGeometry x="3213" y="1243" width="100" height="40" as="geometry" />
        </mxCell>
        <mxCell id="nt-hYRIr4ldOG242e9yD-11" value="phone_number" style="ellipse;whiteSpace=wrap;html=1;align=center;movable=0;resizable=0;rotatable=0;deletable=0;editable=0;locked=1;connectable=0;fillStyle=auto;fillColor=#76608a;strokeColor=#432D57;labelBackgroundColor=none;fontColor=#ffffff;" parent="1" vertex="1">
          <mxGeometry x="3483" y="1243" width="100" height="40" as="geometry" />
        </mxCell>
        <mxCell id="nt-hYRIr4ldOG242e9yD-12" value="email" style="ellipse;whiteSpace=wrap;html=1;align=center;movable=0;resizable=0;rotatable=0;deletable=0;editable=0;locked=1;connectable=0;fillStyle=auto;fillColor=#76608a;strokeColor=#432D57;labelBackgroundColor=none;fontColor=#ffffff;" parent="1" vertex="1">
          <mxGeometry x="3243" y="1190" width="100" height="40" as="geometry" />
        </mxCell>
        <mxCell id="nt-hYRIr4ldOG242e9yD-13" value="address" style="ellipse;whiteSpace=wrap;html=1;align=center;movable=0;resizable=0;rotatable=0;deletable=0;editable=0;locked=1;connectable=0;fillStyle=auto;fillColor=#76608a;strokeColor=#432D57;labelBackgroundColor=none;fontColor=#ffffff;" parent="1" vertex="1">
          <mxGeometry x="3454" y="1190" width="100" height="40" as="geometry" />
        </mxCell>
        <mxCell id="nt-hYRIr4ldOG242e9yD-14" value="contact_type" style="ellipse;whiteSpace=wrap;html=1;align=center;movable=0;resizable=0;rotatable=0;deletable=0;editable=0;locked=1;connectable=0;fillStyle=auto;fillColor=#76608a;strokeColor=#432D57;labelBackgroundColor=none;fontColor=#ffffff;" parent="1" vertex="1">
          <mxGeometry x="3276" y="1130" width="100" height="40" as="geometry" />
        </mxCell>
        <mxCell id="nt-hYRIr4ldOG242e9yD-15" value="Billing" style="whiteSpace=wrap;html=1;align=center;movable=0;resizable=0;rotatable=0;deletable=0;editable=0;locked=1;connectable=0;fillStyle=auto;fillColor=#008a00;strokeColor=#005700;labelBackgroundColor=none;fontColor=#ffffff;" parent="1" vertex="1">
          <mxGeometry x="3353" y="1520" width="100" height="40" as="geometry" />
        </mxCell>
        <mxCell id="nt-hYRIr4ldOG242e9yD-16" value="Primary" style="whiteSpace=wrap;html=1;align=center;movable=0;resizable=0;rotatable=0;deletable=0;editable=0;locked=1;connectable=0;fillStyle=auto;fillColor=#008a00;strokeColor=#005700;labelBackgroundColor=none;fontColor=#ffffff;" parent="1" vertex="1">
          <mxGeometry x="3199" y="1480" width="100" height="40" as="geometry" />
        </mxCell>
        <mxCell id="nt-hYRIr4ldOG242e9yD-17" value="Support" style="whiteSpace=wrap;html=1;align=center;movable=0;resizable=0;rotatable=0;deletable=0;editable=0;locked=1;connectable=0;fillStyle=auto;fillColor=#008a00;strokeColor=#005700;labelBackgroundColor=none;fontColor=#ffffff;" parent="1" vertex="1">
          <mxGeometry x="3503" y="1480" width="100" height="40" as="geometry" />
        </mxCell>
        <mxCell id="nt-hYRIr4ldOG242e9yD-18" value="Role" style="whiteSpace=wrap;html=1;align=center;movable=0;resizable=0;rotatable=0;deletable=0;editable=0;locked=1;connectable=0;fillStyle=auto;fillColor=#6d8764;strokeColor=#3A5431;labelBackgroundColor=none;fontColor=#ffffff;" parent="1" vertex="1">
          <mxGeometry x="1127" y="789" width="100" height="40" as="geometry" />
        </mxCell>
        <mxCell id="nt-hYRIr4ldOG242e9yD-19" value="role_id" style="ellipse;whiteSpace=wrap;html=1;align=center;fontStyle=4;movable=0;resizable=0;rotatable=0;deletable=0;editable=0;locked=1;connectable=0;fillStyle=auto;fillColor=#647687;strokeColor=#314354;labelBackgroundColor=none;fontColor=#ffffff;" parent="1" vertex="1">
          <mxGeometry x="1017" y="690" width="100" height="40" as="geometry" />
        </mxCell>
        <mxCell id="nt-hYRIr4ldOG242e9yD-20" value="role_name " style="ellipse;whiteSpace=wrap;html=1;align=center;movable=0;resizable=0;rotatable=0;deletable=0;editable=0;locked=1;connectable=0;fillStyle=auto;fillColor=#76608a;strokeColor=#432D57;labelBackgroundColor=none;fontColor=#ffffff;" parent="1" vertex="1">
          <mxGeometry x="1227" y="690" width="100" height="40" as="geometry" />
        </mxCell>
        <mxCell id="nt-hYRIr4ldOG242e9yD-21" value="Compliance Officer" style="whiteSpace=wrap;html=1;align=center;movable=0;resizable=0;rotatable=0;deletable=0;editable=0;locked=1;connectable=0;fillStyle=auto;fillColor=#008a00;strokeColor=#005700;labelBackgroundColor=none;fontColor=#ffffff;" parent="1" vertex="1">
          <mxGeometry x="520" y="982" width="110" height="40" as="geometry" />
        </mxCell>
        <mxCell id="nt-hYRIr4ldOG242e9yD-22" value="Department Heads" style="whiteSpace=wrap;html=1;align=center;movable=0;resizable=0;rotatable=0;deletable=0;editable=0;locked=1;connectable=0;fillStyle=auto;fillColor=#008a00;strokeColor=#005700;labelBackgroundColor=none;fontColor=#ffffff;" parent="1" vertex="1">
          <mxGeometry x="1312" y="1182" width="100" height="40" as="geometry" />
        </mxCell>
        <mxCell id="nt-hYRIr4ldOG242e9yD-23" value="Procurement Manager" style="whiteSpace=wrap;html=1;align=center;movable=0;resizable=0;rotatable=0;deletable=0;editable=0;locked=1;connectable=0;fillStyle=auto;fillColor=#008a00;strokeColor=#005700;labelBackgroundColor=none;fontColor=#ffffff;" parent="1" vertex="1">
          <mxGeometry x="982" y="1182" width="100" height="40" as="geometry" />
        </mxCell>
        <mxCell id="nt-hYRIr4ldOG242e9yD-24" value="Budget Manager" style="whiteSpace=wrap;html=1;align=center;movable=0;resizable=0;rotatable=0;deletable=0;editable=0;locked=1;connectable=0;fillStyle=auto;fillColor=#008a00;strokeColor=#005700;labelBackgroundColor=none;fontColor=#ffffff;" parent="1" vertex="1">
          <mxGeometry x="830" y="1152" width="100" height="40" as="geometry" />
        </mxCell>
        <mxCell id="nt-hYRIr4ldOG242e9yD-25" value="Admin" style="whiteSpace=wrap;html=1;align=center;movable=0;resizable=0;rotatable=0;deletable=0;editable=0;locked=1;connectable=0;fillStyle=auto;fillColor=#008a00;strokeColor=#005700;labelBackgroundColor=none;fontColor=#ffffff;" parent="1" vertex="1">
          <mxGeometry x="712" y="1112" width="100" height="40" as="geometry" />
        </mxCell>
        <mxCell id="nt-hYRIr4ldOG242e9yD-26" value="Contract Management Team" style="whiteSpace=wrap;html=1;align=center;movable=0;resizable=0;rotatable=0;deletable=0;editable=0;locked=1;connectable=0;fillStyle=auto;fillColor=#008a00;strokeColor=#005700;labelBackgroundColor=none;fontColor=#ffffff;" parent="1" vertex="1">
          <mxGeometry x="1137" y="1177" width="100" height="50" as="geometry" />
        </mxCell>
        <mxCell id="nt-hYRIr4ldOG242e9yD-27" value="Finance team" style="whiteSpace=wrap;html=1;align=center;movable=0;resizable=0;rotatable=0;deletable=0;editable=0;locked=1;connectable=0;fillStyle=auto;fillColor=#008a00;strokeColor=#005700;labelBackgroundColor=none;fontColor=#ffffff;" parent="1" vertex="1">
          <mxGeometry x="1412" y="1112" width="100" height="40" as="geometry" />
        </mxCell>
        <mxCell id="nt-hYRIr4ldOG242e9yD-28" value="Permissions" style="whiteSpace=wrap;html=1;align=center;movable=0;resizable=0;rotatable=0;deletable=0;editable=0;locked=1;connectable=0;fillStyle=auto;fillColor=#6d8764;strokeColor=#3A5431;labelBackgroundColor=none;fontColor=#ffffff;" parent="1" vertex="1">
          <mxGeometry x="3451" y="791" width="100" height="40" as="geometry" />
        </mxCell>
        <mxCell id="nt-hYRIr4ldOG242e9yD-29" value="permission_id" style="ellipse;whiteSpace=wrap;html=1;align=center;fontStyle=4;movable=0;resizable=0;rotatable=0;deletable=0;editable=0;locked=1;connectable=0;fillStyle=auto;fillColor=#647687;strokeColor=#314354;labelBackgroundColor=none;fontColor=#ffffff;" parent="1" vertex="1">
          <mxGeometry x="3351" y="695" width="100" height="40" as="geometry" />
        </mxCell>
        <mxCell id="nt-hYRIr4ldOG242e9yD-30" value="permission_level" style="ellipse;whiteSpace=wrap;html=1;align=center;movable=0;resizable=0;rotatable=0;deletable=0;editable=0;locked=1;connectable=0;fillStyle=auto;fillColor=#76608a;strokeColor=#432D57;labelBackgroundColor=none;fontColor=#ffffff;" parent="1" vertex="1">
          <mxGeometry x="3561" y="695" width="100" height="40" as="geometry" />
        </mxCell>
        <mxCell id="nt-hYRIr4ldOG242e9yD-31" value="Manager" style="whiteSpace=wrap;html=1;align=center;movable=0;resizable=0;rotatable=0;deletable=0;editable=0;locked=1;connectable=0;fillStyle=auto;fillColor=#008a00;strokeColor=#005700;labelBackgroundColor=none;fontColor=#ffffff;" parent="1" vertex="1">
          <mxGeometry x="3565" y="940" width="100" height="40" as="geometry" />
        </mxCell>
        <mxCell id="nt-hYRIr4ldOG242e9yD-32" value="User" style="whiteSpace=wrap;html=1;align=center;movable=0;resizable=0;rotatable=0;deletable=0;editable=0;locked=1;connectable=0;fillStyle=auto;fillColor=#008a00;strokeColor=#005700;labelBackgroundColor=none;fontColor=#ffffff;" parent="1" vertex="1">
          <mxGeometry x="3451" y="940" width="100" height="40" as="geometry" />
        </mxCell>
        <mxCell id="nt-hYRIr4ldOG242e9yD-33" value="Admin" style="whiteSpace=wrap;html=1;align=center;movable=0;resizable=0;rotatable=0;deletable=0;editable=0;locked=1;connectable=0;fillStyle=auto;fillColor=#008a00;strokeColor=#005700;labelBackgroundColor=none;fontColor=#ffffff;" parent="1" vertex="1">
          <mxGeometry x="3333" y="940" width="100" height="40" as="geometry" />
        </mxCell>
        <mxCell id="nt-hYRIr4ldOG242e9yD-34" value="Vendor" style="whiteSpace=wrap;html=1;align=center;movable=0;resizable=0;rotatable=0;deletable=0;editable=0;locked=1;connectable=0;fillStyle=auto;fillColor=#6d8764;strokeColor=#3A5431;labelBackgroundColor=none;fontColor=#ffffff;" parent="1" vertex="1">
          <mxGeometry x="2865.5" y="1012" width="100" height="40" as="geometry" />
        </mxCell>
        <mxCell id="nt-hYRIr4ldOG242e9yD-35" value="vendor_id" style="ellipse;whiteSpace=wrap;html=1;align=center;fontStyle=4;movable=0;resizable=0;rotatable=0;deletable=0;editable=0;locked=1;connectable=0;fillStyle=auto;fillColor=#647687;strokeColor=#314354;labelBackgroundColor=none;fontColor=#ffffff;" parent="1" vertex="1">
          <mxGeometry x="2758" y="932" width="100" height="40" as="geometry" />
        </mxCell>
        <mxCell id="nt-hYRIr4ldOG242e9yD-36" value="company_name" style="ellipse;whiteSpace=wrap;html=1;align=center;movable=0;resizable=0;rotatable=0;deletable=0;editable=0;locked=1;connectable=0;fillStyle=auto;fillColor=#76608a;strokeColor=#432D57;labelBackgroundColor=none;fontColor=#ffffff;" parent="1" vertex="1">
          <mxGeometry x="2973" y="932" width="100" height="40" as="geometry" />
        </mxCell>
        <mxCell id="nt-hYRIr4ldOG242e9yD-37" value="service_category" style="ellipse;whiteSpace=wrap;html=1;align=center;movable=0;resizable=0;rotatable=0;deletable=0;editable=0;locked=1;connectable=0;fillStyle=auto;fillColor=#76608a;strokeColor=#432D57;labelBackgroundColor=none;fontColor=#ffffff;" parent="1" vertex="1">
          <mxGeometry x="2933" y="871" width="100" height="40" as="geometry" />
        </mxCell>
        <mxCell id="nt-hYRIr4ldOG242e9yD-38" value="registration_date" style="ellipse;whiteSpace=wrap;html=1;align=center;movable=0;resizable=0;rotatable=0;deletable=0;editable=0;locked=1;connectable=0;fillStyle=auto;fillColor=#76608a;strokeColor=#432D57;labelBackgroundColor=none;fontColor=#ffffff;" parent="1" vertex="1">
          <mxGeometry x="2793" y="871" width="100" height="40" as="geometry" />
        </mxCell>
        <mxCell id="nt-hYRIr4ldOG242e9yD-44" value="Procurement Manager" style="whiteSpace=wrap;html=1;align=center;movable=0;resizable=0;rotatable=0;deletable=0;editable=0;locked=1;connectable=0;fillStyle=auto;fillColor=#6d8764;strokeColor=#3A5431;labelBackgroundColor=none;fontColor=#ffffff;" parent="1" vertex="1">
          <mxGeometry x="770" y="2278" width="160" height="40" as="geometry" />
        </mxCell>
        <mxCell id="nt-hYRIr4ldOG242e9yD-45" value="manager_id" style="ellipse;whiteSpace=wrap;html=1;align=center;fontStyle=4;movable=0;resizable=0;rotatable=0;deletable=0;editable=0;locked=1;connectable=0;fillStyle=auto;fillColor=#647687;strokeColor=#314354;labelBackgroundColor=none;fontColor=#ffffff;" parent="1" vertex="1">
          <mxGeometry x="720" y="2178" width="100" height="40" as="geometry" />
        </mxCell>
        <mxCell id="nt-hYRIr4ldOG242e9yD-46" value="role_description" style="ellipse;whiteSpace=wrap;html=1;align=center;movable=0;resizable=0;rotatable=0;deletable=0;editable=0;locked=1;connectable=0;fillStyle=auto;fillColor=#76608a;strokeColor=#432D57;labelBackgroundColor=none;fontColor=#ffffff;" parent="1" vertex="1">
          <mxGeometry x="890" y="2178" width="100" height="40" as="geometry" />
        </mxCell>
        <mxCell id="nt-hYRIr4ldOG242e9yD-47" value="Department" style="whiteSpace=wrap;html=1;align=center;movable=0;resizable=0;rotatable=0;deletable=0;editable=0;locked=1;connectable=0;fillStyle=auto;fillColor=#6d8764;strokeColor=#3A5431;labelBackgroundColor=none;fontColor=#ffffff;" parent="1" vertex="1">
          <mxGeometry x="1182" y="2565" width="100" height="40" as="geometry" />
        </mxCell>
        <mxCell id="nt-hYRIr4ldOG242e9yD-48" value="department_id" style="ellipse;whiteSpace=wrap;html=1;align=center;fontStyle=4;movable=0;resizable=0;rotatable=0;deletable=0;editable=0;locked=1;connectable=0;fillStyle=auto;fillColor=#647687;strokeColor=#314354;labelBackgroundColor=none;fontColor=#ffffff;" parent="1" vertex="1">
          <mxGeometry x="1082" y="2645" width="100" height="40" as="geometry" />
        </mxCell>
        <mxCell id="nt-hYRIr4ldOG242e9yD-49" value="department_name" style="ellipse;whiteSpace=wrap;html=1;align=center;movable=0;resizable=0;rotatable=0;deletable=0;editable=0;locked=1;connectable=0;fillStyle=auto;fillColor=#76608a;strokeColor=#432D57;labelBackgroundColor=none;fontColor=#ffffff;" parent="1" vertex="1">
          <mxGeometry x="1302" y="2645" width="120" height="40" as="geometry" />
        </mxCell>
        <mxCell id="nt-hYRIr4ldOG242e9yD-50" value="department_head" style="ellipse;whiteSpace=wrap;html=1;align=center;movable=0;resizable=0;rotatable=0;deletable=0;editable=0;locked=1;connectable=0;fillStyle=auto;fillColor=#76608a;strokeColor=#432D57;labelBackgroundColor=none;fontColor=#ffffff;" parent="1" vertex="1">
          <mxGeometry x="1257" y="2695" width="110" height="40" as="geometry" />
        </mxCell>
        <mxCell id="nt-hYRIr4ldOG242e9yD-51" value="budget " style="ellipse;whiteSpace=wrap;html=1;align=center;movable=0;resizable=0;rotatable=0;deletable=0;editable=0;locked=1;connectable=0;fillStyle=auto;fillColor=#76608a;strokeColor=#432D57;labelBackgroundColor=none;fontColor=#ffffff;" parent="1" vertex="1">
          <mxGeometry x="1132" y="2695" width="100" height="40" as="geometry" />
        </mxCell>
        <mxCell id="nt-hYRIr4ldOG242e9yD-52" value="Contract" style="whiteSpace=wrap;html=1;align=center;movable=0;resizable=0;rotatable=0;deletable=0;editable=0;locked=1;connectable=0;fillStyle=auto;fillColor=#6d8764;strokeColor=#3A5431;labelBackgroundColor=none;fontColor=#ffffff;" parent="1" vertex="1">
          <mxGeometry x="1860" y="1563" width="100" height="40" as="geometry" />
        </mxCell>
        <mxCell id="nt-hYRIr4ldOG242e9yD-53" value="contract_id " style="ellipse;whiteSpace=wrap;html=1;align=center;fontStyle=4;movable=0;resizable=0;rotatable=0;deletable=0;editable=0;locked=1;connectable=0;fillStyle=auto;fillColor=#647687;strokeColor=#314354;labelBackgroundColor=none;fontColor=#ffffff;" parent="1" vertex="1">
          <mxGeometry x="1805" y="1427" width="100" height="40" as="geometry" />
        </mxCell>
        <mxCell id="nt-hYRIr4ldOG242e9yD-54" value="contract_terms" style="ellipse;whiteSpace=wrap;html=1;align=center;movable=0;resizable=0;rotatable=0;deletable=0;editable=0;locked=1;connectable=0;fillStyle=auto;fillColor=#76608a;strokeColor=#432D57;labelBackgroundColor=none;fontColor=#ffffff;" parent="1" vertex="1">
          <mxGeometry x="2000" y="1473" width="100" height="40" as="geometry" />
        </mxCell>
        <mxCell id="nt-hYRIr4ldOG242e9yD-55" value="start_date" style="ellipse;whiteSpace=wrap;html=1;align=center;movable=0;resizable=0;rotatable=0;deletable=0;editable=0;locked=1;connectable=0;fillStyle=auto;fillColor=#76608a;strokeColor=#432D57;labelBackgroundColor=none;fontColor=#ffffff;" parent="1" vertex="1">
          <mxGeometry x="1934" y="1427" width="100" height="40" as="geometry" />
        </mxCell>
        <mxCell id="nt-hYRIr4ldOG242e9yD-56" value="end_date" style="ellipse;whiteSpace=wrap;html=1;align=center;movable=0;resizable=0;rotatable=0;deletable=0;editable=0;locked=1;connectable=0;fillStyle=auto;fillColor=#76608a;strokeColor=#432D57;labelBackgroundColor=none;fontColor=#ffffff;" parent="1" vertex="1">
          <mxGeometry x="1714" y="1463" width="100" height="40" as="geometry" />
        </mxCell>
        <mxCell id="nt-hYRIr4ldOG242e9yD-57" value="status" style="ellipse;whiteSpace=wrap;html=1;align=center;movable=0;resizable=0;rotatable=0;deletable=0;editable=0;locked=1;connectable=0;fillStyle=auto;fillColor=#76608a;strokeColor=#432D57;labelBackgroundColor=none;fontColor=#ffffff;" parent="1" vertex="1">
          <mxGeometry x="1820" y="1683" width="100" height="40" as="geometry" />
        </mxCell>
        <mxCell id="nt-hYRIr4ldOG242e9yD-58" value="contract_value" style="ellipse;whiteSpace=wrap;html=1;align=center;movable=0;resizable=0;rotatable=0;deletable=0;editable=0;locked=1;connectable=0;fillStyle=auto;fillColor=#76608a;strokeColor=#432D57;labelBackgroundColor=none;fontColor=#ffffff;" parent="1" vertex="1">
          <mxGeometry x="1930" y="1683" width="100" height="40" as="geometry" />
        </mxCell>
        <mxCell id="nt-hYRIr4ldOG242e9yD-59" value="payment_terms" style="ellipse;whiteSpace=wrap;html=1;align=center;movable=0;resizable=0;rotatable=0;deletable=0;editable=0;locked=1;connectable=0;fillStyle=auto;fillColor=#76608a;strokeColor=#432D57;labelBackgroundColor=none;fontColor=#ffffff;" parent="1" vertex="1">
          <mxGeometry x="2040" y="1683" width="100" height="40" as="geometry" />
        </mxCell>
        <mxCell id="nt-hYRIr4ldOG242e9yD-60" value="amendments " style="ellipse;whiteSpace=wrap;html=1;align=center;movable=0;resizable=0;rotatable=0;deletable=0;editable=0;locked=1;connectable=0;fillStyle=auto;fillColor=#76608a;strokeColor=#432D57;labelBackgroundColor=none;fontColor=#ffffff;" parent="1" vertex="1">
          <mxGeometry x="1710" y="1683" width="100" height="40" as="geometry" />
        </mxCell>
        <mxCell id="nt-hYRIr4ldOG242e9yD-61" value="Contract Amendment" style="whiteSpace=wrap;html=1;align=center;movable=0;resizable=0;rotatable=0;deletable=0;editable=0;locked=1;connectable=0;fillStyle=auto;fillColor=#6d8764;strokeColor=#3A5431;labelBackgroundColor=none;fontColor=#ffffff;" parent="1" vertex="1">
          <mxGeometry x="1015.5999999999999" y="1562" width="170" height="40" as="geometry" />
        </mxCell>
        <mxCell id="nt-hYRIr4ldOG242e9yD-62" value="amendment_id " style="ellipse;whiteSpace=wrap;html=1;align=center;fontStyle=4;movable=0;resizable=0;rotatable=0;deletable=0;editable=0;locked=1;connectable=0;fillStyle=auto;fillColor=#647687;strokeColor=#314354;labelBackgroundColor=none;fontColor=#ffffff;" parent="1" vertex="1">
          <mxGeometry x="985.5999999999999" y="1440" width="100" height="40" as="geometry" />
        </mxCell>
        <mxCell id="nt-hYRIr4ldOG242e9yD-63" value="Purchase Order" style="whiteSpace=wrap;html=1;align=center;movable=0;resizable=0;rotatable=0;deletable=0;editable=0;locked=1;connectable=0;fillStyle=auto;fillColor=#6d8764;strokeColor=#3A5431;labelBackgroundColor=none;fontColor=#ffffff;" parent="1" vertex="1">
          <mxGeometry x="2387" y="1891" width="100" height="40" as="geometry" />
        </mxCell>
        <mxCell id="nt-hYRIr4ldOG242e9yD-64" value="Items" style="whiteSpace=wrap;html=1;align=center;movable=0;resizable=0;rotatable=0;deletable=0;editable=0;locked=1;connectable=0;fillStyle=auto;fillColor=#6d8764;strokeColor=#3A5431;labelBackgroundColor=none;fontColor=#ffffff;" parent="1" vertex="1">
          <mxGeometry x="3147" y="2223.5" width="100" height="40" as="geometry" />
        </mxCell>
        <mxCell id="nt-hYRIr4ldOG242e9yD-65" value="Budget" style="whiteSpace=wrap;html=1;align=center;movable=0;resizable=0;rotatable=0;deletable=0;editable=0;locked=1;connectable=0;fillStyle=auto;fillColor=#6d8764;strokeColor=#3A5431;labelBackgroundColor=none;fontColor=#ffffff;" parent="1" vertex="1">
          <mxGeometry x="1830" y="2565" width="100" height="40" as="geometry" />
        </mxCell>
        <mxCell id="nt-hYRIr4ldOG242e9yD-66" value="Budget Category" style="whiteSpace=wrap;html=1;align=center;movable=0;resizable=0;rotatable=0;deletable=0;editable=0;locked=1;connectable=0;fillStyle=auto;fillColor=#6d8764;strokeColor=#3A5431;labelBackgroundColor=none;fontColor=#ffffff;" parent="1" vertex="1">
          <mxGeometry x="2420" y="2565" width="100" height="40" as="geometry" />
        </mxCell>
        <mxCell id="nt-hYRIr4ldOG242e9yD-67" value="Performance Evaluation" style="whiteSpace=wrap;html=1;align=center;movable=0;resizable=0;rotatable=0;deletable=0;editable=0;locked=1;connectable=0;fillStyle=auto;fillColor=#6d8764;strokeColor=#3A5431;labelBackgroundColor=none;fontColor=#ffffff;" parent="1" vertex="1">
          <mxGeometry x="3925" y="1005" width="160" height="40" as="geometry" />
        </mxCell>
        <mxCell id="nt-hYRIr4ldOG242e9yD-68" value="Compliance Audit" style="whiteSpace=wrap;html=1;align=center;movable=0;resizable=0;rotatable=0;deletable=0;editable=0;locked=1;connectable=0;fillStyle=auto;fillColor=#6d8764;strokeColor=#3A5431;labelBackgroundColor=none;fontColor=#ffffff;" parent="1" vertex="1">
          <mxGeometry x="2020" y="1077" width="100" height="40" as="geometry" />
        </mxCell>
        <mxCell id="nt-hYRIr4ldOG242e9yD-69" value="Notification" style="whiteSpace=wrap;html=1;align=center;movable=0;resizable=0;rotatable=0;deletable=0;editable=0;locked=1;connectable=0;fillStyle=auto;fillColor=#6d8764;strokeColor=#3A5431;labelBackgroundColor=none;fontColor=#ffffff;" parent="1" vertex="1">
          <mxGeometry x="3204" y="380" width="100" height="40" as="geometry" />
        </mxCell>
        <mxCell id="nt-hYRIr4ldOG242e9yD-70" value="Audit Trail" style="whiteSpace=wrap;html=1;align=center;movable=0;resizable=0;rotatable=0;deletable=0;editable=0;locked=1;connectable=0;fillStyle=auto;fillColor=#6d8764;strokeColor=#3A5431;labelBackgroundColor=none;fontColor=#ffffff;" parent="1" vertex="1">
          <mxGeometry x="1776.75" y="409" width="100" height="40" as="geometry" />
        </mxCell>
        <mxCell id="nt-hYRIr4ldOG242e9yD-71" value="" style="endArrow=none;html=1;rounded=0;strokeColor=#A8201A;fontColor=#143642;fillColor=#FAE5C7;entryX=0.5;entryY=1;entryDx=0;entryDy=0;exitX=0.5;exitY=0;exitDx=0;exitDy=0;movable=0;resizable=0;rotatable=0;deletable=0;editable=0;locked=1;connectable=0;" parent="1" source="nt-hYRIr4ldOG242e9yD-1" target="nt-hYRIr4ldOG242e9yD-2" edge="1">
          <mxGeometry width="50" height="50" relative="1" as="geometry">
            <mxPoint x="2775" y="1060" as="sourcePoint" />
            <mxPoint x="2825" y="1010" as="targetPoint" />
          </mxGeometry>
        </mxCell>
        <mxCell id="nt-hYRIr4ldOG242e9yD-72" value="" style="endArrow=none;html=1;rounded=0;strokeColor=#A8201A;fontColor=#143642;fillColor=#FAE5C7;entryX=0.5;entryY=1;entryDx=0;entryDy=0;exitX=0.5;exitY=0;exitDx=0;exitDy=0;movable=0;resizable=0;rotatable=0;deletable=0;editable=0;locked=1;connectable=0;" parent="1" source="nt-hYRIr4ldOG242e9yD-1" target="nt-hYRIr4ldOG242e9yD-4" edge="1">
          <mxGeometry width="50" height="50" relative="1" as="geometry">
            <mxPoint x="2775" y="1060" as="sourcePoint" />
            <mxPoint x="2825" y="1010" as="targetPoint" />
          </mxGeometry>
        </mxCell>
        <mxCell id="nt-hYRIr4ldOG242e9yD-73" value="" style="endArrow=none;html=1;rounded=0;strokeColor=#A8201A;fontColor=#143642;fillColor=#FAE5C7;entryX=0.5;entryY=0.75;entryDx=0;entryDy=0;entryPerimeter=0;exitX=0.5;exitY=0;exitDx=0;exitDy=0;movable=0;resizable=0;rotatable=0;deletable=0;editable=0;locked=1;connectable=0;" parent="1" source="nt-hYRIr4ldOG242e9yD-1" target="nt-hYRIr4ldOG242e9yD-3" edge="1">
          <mxGeometry width="50" height="50" relative="1" as="geometry">
            <mxPoint x="2675" y="760" as="sourcePoint" />
            <mxPoint x="2725" y="710" as="targetPoint" />
          </mxGeometry>
        </mxCell>
        <mxCell id="nt-hYRIr4ldOG242e9yD-74" value="" style="endArrow=none;html=1;rounded=0;strokeColor=#A8201A;fontColor=#143642;fillColor=#FAE5C7;exitX=0.5;exitY=0;exitDx=0;exitDy=0;movable=0;resizable=0;rotatable=0;deletable=0;editable=0;locked=1;connectable=0;" parent="1" source="nt-hYRIr4ldOG242e9yD-1" target="nt-hYRIr4ldOG242e9yD-7" edge="1">
          <mxGeometry width="50" height="50" relative="1" as="geometry">
            <mxPoint x="2675" y="760" as="sourcePoint" />
            <mxPoint x="2725" y="710" as="targetPoint" />
          </mxGeometry>
        </mxCell>
        <mxCell id="nt-hYRIr4ldOG242e9yD-75" value="" style="endArrow=none;html=1;rounded=0;strokeColor=#A8201A;fontColor=#143642;fillColor=#FAE5C7;entryX=0.5;entryY=1;entryDx=0;entryDy=0;exitX=0.5;exitY=0;exitDx=0;exitDy=0;movable=0;resizable=0;rotatable=0;deletable=0;editable=0;locked=1;connectable=0;" parent="1" source="nt-hYRIr4ldOG242e9yD-1" target="nt-hYRIr4ldOG242e9yD-5" edge="1">
          <mxGeometry width="50" height="50" relative="1" as="geometry">
            <mxPoint x="2675" y="760" as="sourcePoint" />
            <mxPoint x="2725" y="710" as="targetPoint" />
          </mxGeometry>
        </mxCell>
        <mxCell id="nt-hYRIr4ldOG242e9yD-76" value="" style="endArrow=none;html=1;rounded=0;strokeColor=#A8201A;fontColor=#143642;fillColor=#FAE5C7;exitX=0.5;exitY=0;exitDx=0;exitDy=0;entryX=0.5;entryY=1;entryDx=0;entryDy=0;movable=0;resizable=0;rotatable=0;deletable=0;editable=0;locked=1;connectable=0;" parent="1" source="nt-hYRIr4ldOG242e9yD-1" target="nt-hYRIr4ldOG242e9yD-6" edge="1">
          <mxGeometry width="50" height="50" relative="1" as="geometry">
            <mxPoint x="2675" y="760" as="sourcePoint" />
            <mxPoint x="2725" y="710" as="targetPoint" />
          </mxGeometry>
        </mxCell>
        <mxCell id="nt-hYRIr4ldOG242e9yD-77" value="" style="endArrow=none;html=1;rounded=0;strokeColor=#A8201A;fontColor=#143642;fillColor=#FAE5C7;exitX=0.626;exitY=1.018;exitDx=0;exitDy=0;exitPerimeter=0;entryX=0.5;entryY=0;entryDx=0;entryDy=0;movable=0;resizable=0;rotatable=0;deletable=0;editable=0;locked=1;connectable=0;" parent="1" source="nt-hYRIr4ldOG242e9yD-19" target="nt-hYRIr4ldOG242e9yD-18" edge="1">
          <mxGeometry width="50" height="50" relative="1" as="geometry">
            <mxPoint x="837" y="910" as="sourcePoint" />
            <mxPoint x="887" y="860" as="targetPoint" />
          </mxGeometry>
        </mxCell>
        <mxCell id="nt-hYRIr4ldOG242e9yD-78" value="" style="endArrow=none;html=1;rounded=0;strokeColor=#A8201A;fontColor=#143642;fillColor=#FAE5C7;entryX=0.5;entryY=1;entryDx=0;entryDy=0;movable=0;resizable=0;rotatable=0;deletable=0;editable=0;locked=1;connectable=0;" parent="1" target="nt-hYRIr4ldOG242e9yD-20" edge="1">
          <mxGeometry width="50" height="50" relative="1" as="geometry">
            <mxPoint x="1177" y="790" as="sourcePoint" />
            <mxPoint x="887" y="860" as="targetPoint" />
          </mxGeometry>
        </mxCell>
        <mxCell id="nt-hYRIr4ldOG242e9yD-79" value="d" style="ellipse;whiteSpace=wrap;html=1;aspect=fixed;strokeColor=#B20000;fontColor=#ffffff;fillColor=#e51400;movable=0;resizable=0;rotatable=0;deletable=0;editable=0;locked=1;connectable=0;" parent="1" vertex="1">
          <mxGeometry x="1162" y="860" width="30" height="30" as="geometry" />
        </mxCell>
        <mxCell id="nt-hYRIr4ldOG242e9yD-80" value="" style="endArrow=none;html=1;rounded=0;strokeColor=#A8201A;fontColor=#143642;fillColor=#FAE5C7;entryX=0.382;entryY=0.93;entryDx=0;entryDy=0;entryPerimeter=0;exitX=0.5;exitY=0;exitDx=0;exitDy=0;movable=0;resizable=0;rotatable=0;deletable=0;editable=0;locked=1;connectable=0;" parent="1" source="nt-hYRIr4ldOG242e9yD-28" target="nt-hYRIr4ldOG242e9yD-30" edge="1">
          <mxGeometry width="50" height="50" relative="1" as="geometry">
            <mxPoint x="3371" y="835" as="sourcePoint" />
            <mxPoint x="3421" y="785" as="targetPoint" />
          </mxGeometry>
        </mxCell>
        <mxCell id="nt-hYRIr4ldOG242e9yD-81" value="" style="endArrow=none;html=1;rounded=0;strokeColor=#A8201A;fontColor=#143642;fillColor=#FAE5C7;entryX=0.5;entryY=0;entryDx=0;entryDy=0;exitX=0.5;exitY=1;exitDx=0;exitDy=0;movable=0;resizable=0;rotatable=0;deletable=0;editable=0;locked=1;connectable=0;" parent="1" source="nt-hYRIr4ldOG242e9yD-29" target="nt-hYRIr4ldOG242e9yD-28" edge="1">
          <mxGeometry width="50" height="50" relative="1" as="geometry">
            <mxPoint x="3371" y="835" as="sourcePoint" />
            <mxPoint x="3421" y="785" as="targetPoint" />
          </mxGeometry>
        </mxCell>
        <mxCell id="nt-hYRIr4ldOG242e9yD-82" value="d" style="ellipse;whiteSpace=wrap;html=1;aspect=fixed;strokeColor=#B20000;fontColor=#ffffff;fillColor=#e51400;movable=0;resizable=0;rotatable=0;deletable=0;editable=0;locked=1;connectable=0;" parent="1" vertex="1">
          <mxGeometry x="3486" y="865" width="30" height="30" as="geometry" />
        </mxCell>
        <mxCell id="nt-hYRIr4ldOG242e9yD-83" value="" style="endArrow=none;html=1;rounded=0;strokeColor=#A8201A;fontColor=#143642;fillColor=#FAE5C7;entryX=0.5;entryY=0;entryDx=0;entryDy=0;exitX=0.5;exitY=1;exitDx=0;exitDy=0;movable=0;resizable=0;rotatable=0;deletable=0;editable=0;locked=1;connectable=0;" parent="1" source="nt-hYRIr4ldOG242e9yD-28" target="nt-hYRIr4ldOG242e9yD-82" edge="1">
          <mxGeometry width="50" height="50" relative="1" as="geometry">
            <mxPoint x="3371" y="835" as="sourcePoint" />
            <mxPoint x="3421" y="785" as="targetPoint" />
          </mxGeometry>
        </mxCell>
        <mxCell id="nt-hYRIr4ldOG242e9yD-84" value="" style="endArrow=none;html=1;rounded=0;strokeColor=#A8201A;fontColor=#143642;fillColor=#FAE5C7;exitX=0.5;exitY=0;exitDx=0;exitDy=0;entryX=0;entryY=1;entryDx=0;entryDy=0;fontStyle=4;movable=0;resizable=0;rotatable=0;deletable=0;editable=0;locked=1;connectable=0;" parent="1" source="nt-hYRIr4ldOG242e9yD-33" target="nt-hYRIr4ldOG242e9yD-82" edge="1">
          <mxGeometry width="50" height="50" relative="1" as="geometry">
            <mxPoint x="3371" y="835" as="sourcePoint" />
            <mxPoint x="3421" y="785" as="targetPoint" />
          </mxGeometry>
        </mxCell>
        <mxCell id="nt-hYRIr4ldOG242e9yD-85" value="" style="endArrow=none;html=1;rounded=0;strokeColor=#A8201A;fontColor=#143642;fillColor=#FAE5C7;entryX=0.5;entryY=0;entryDx=0;entryDy=0;exitX=0.5;exitY=1;exitDx=0;exitDy=0;movable=0;resizable=0;rotatable=0;deletable=0;editable=0;locked=1;connectable=0;" parent="1" source="nt-hYRIr4ldOG242e9yD-82" target="nt-hYRIr4ldOG242e9yD-32" edge="1">
          <mxGeometry width="50" height="50" relative="1" as="geometry">
            <mxPoint x="3371" y="835" as="sourcePoint" />
            <mxPoint x="3421" y="785" as="targetPoint" />
          </mxGeometry>
        </mxCell>
        <mxCell id="nt-hYRIr4ldOG242e9yD-86" value="" style="endArrow=none;html=1;rounded=0;strokeColor=#A8201A;fontColor=#143642;fillColor=#FAE5C7;entryX=0.5;entryY=0;entryDx=0;entryDy=0;exitX=0.939;exitY=0.782;exitDx=0;exitDy=0;exitPerimeter=0;movable=0;resizable=0;rotatable=0;deletable=0;editable=0;locked=1;connectable=0;" parent="1" source="nt-hYRIr4ldOG242e9yD-82" target="nt-hYRIr4ldOG242e9yD-31" edge="1">
          <mxGeometry width="50" height="50" relative="1" as="geometry">
            <mxPoint x="3371" y="835" as="sourcePoint" />
            <mxPoint x="3421" y="785" as="targetPoint" />
          </mxGeometry>
        </mxCell>
        <mxCell id="nt-hYRIr4ldOG242e9yD-87" value="UserRole" style="shape=associativeEntity;whiteSpace=wrap;html=1;align=center;strokeColor=#BD7000;fontColor=#000000;fillColor=#f0a30a;movable=0;resizable=0;rotatable=0;deletable=0;editable=0;locked=1;connectable=0;" parent="1" vertex="1">
          <mxGeometry x="1760" y="780" width="140" height="60" as="geometry" />
        </mxCell>
        <mxCell id="nt-hYRIr4ldOG242e9yD-88" value="" style="endArrow=none;html=1;rounded=0;strokeColor=#A8201A;fontColor=#143642;fillColor=#FAE5C7;entryX=0.5;entryY=1;entryDx=0;entryDy=0;exitX=0.5;exitY=0;exitDx=0;exitDy=0;movable=0;resizable=0;rotatable=0;deletable=0;editable=0;locked=1;connectable=0;" parent="1" source="nt-hYRIr4ldOG242e9yD-34" target="nt-hYRIr4ldOG242e9yD-37" edge="1">
          <mxGeometry width="50" height="50" relative="1" as="geometry">
            <mxPoint x="3033" y="932" as="sourcePoint" />
            <mxPoint x="3083" y="882" as="targetPoint" />
          </mxGeometry>
        </mxCell>
        <mxCell id="nt-hYRIr4ldOG242e9yD-89" value="" style="endArrow=none;html=1;rounded=0;strokeColor=#A8201A;fontColor=#143642;fillColor=#FAE5C7;exitX=0.5;exitY=0;exitDx=0;exitDy=0;movable=0;resizable=0;rotatable=0;deletable=0;editable=0;locked=1;connectable=0;" parent="1" source="nt-hYRIr4ldOG242e9yD-34" target="nt-hYRIr4ldOG242e9yD-36" edge="1">
          <mxGeometry width="50" height="50" relative="1" as="geometry">
            <mxPoint x="3033" y="932" as="sourcePoint" />
            <mxPoint x="3083" y="882" as="targetPoint" />
          </mxGeometry>
        </mxCell>
        <mxCell id="nt-hYRIr4ldOG242e9yD-90" value="" style="endArrow=none;html=1;rounded=0;strokeColor=#A8201A;fontColor=#143642;fillColor=#FAE5C7;exitX=0.5;exitY=0;exitDx=0;exitDy=0;entryX=0.57;entryY=1;entryDx=0;entryDy=0;entryPerimeter=0;movable=0;resizable=0;rotatable=0;deletable=0;editable=0;locked=1;connectable=0;" parent="1" source="nt-hYRIr4ldOG242e9yD-34" target="nt-hYRIr4ldOG242e9yD-38" edge="1">
          <mxGeometry width="50" height="50" relative="1" as="geometry">
            <mxPoint x="3033" y="932" as="sourcePoint" />
            <mxPoint x="3083" y="882" as="targetPoint" />
          </mxGeometry>
        </mxCell>
        <mxCell id="nt-hYRIr4ldOG242e9yD-91" value="" style="endArrow=none;html=1;rounded=0;strokeColor=#A8201A;fontColor=#143642;fillColor=#FAE5C7;exitX=0.65;exitY=0.95;exitDx=0;exitDy=0;exitPerimeter=0;movable=0;resizable=0;rotatable=0;deletable=0;editable=0;locked=1;connectable=0;" parent="1" source="nt-hYRIr4ldOG242e9yD-35" edge="1">
          <mxGeometry width="50" height="50" relative="1" as="geometry">
            <mxPoint x="3033" y="932" as="sourcePoint" />
            <mxPoint x="2913" y="1012" as="targetPoint" />
          </mxGeometry>
        </mxCell>
        <mxCell id="nt-hYRIr4ldOG242e9yD-92" style="edgeStyle=orthogonalEdgeStyle;rounded=0;orthogonalLoop=1;jettySize=auto;html=1;exitX=0.5;exitY=1;exitDx=0;exitDy=0;strokeColor=#A8201A;fontColor=#143642;fillColor=#FAE5C7;movable=0;resizable=0;rotatable=0;deletable=0;editable=0;locked=1;connectable=0;" parent="1" source="nt-hYRIr4ldOG242e9yD-87" target="nt-hYRIr4ldOG242e9yD-87" edge="1">
          <mxGeometry relative="1" as="geometry" />
        </mxCell>
        <mxCell id="nt-hYRIr4ldOG242e9yD-93" value="" style="endArrow=none;html=1;rounded=0;strokeColor=#A8201A;fontColor=#143642;fillColor=#FAE5C7;entryX=0.5;entryY=1;entryDx=0;entryDy=0;movable=0;resizable=0;rotatable=0;deletable=0;editable=0;locked=1;connectable=0;" parent="1" target="nt-hYRIr4ldOG242e9yD-18" edge="1">
          <mxGeometry width="50" height="50" relative="1" as="geometry">
            <mxPoint x="1177" y="860" as="sourcePoint" />
            <mxPoint x="1219" y="1140" as="targetPoint" />
          </mxGeometry>
        </mxCell>
        <mxCell id="nt-hYRIr4ldOG242e9yD-94" value="&lt;b&gt;&lt;font style=&quot;font-size: 23px;&quot;&gt;U&lt;/font&gt;&lt;/b&gt;" style="text;html=1;align=center;verticalAlign=middle;whiteSpace=wrap;rounded=0;fontColor=#143642;movable=0;resizable=0;rotatable=0;deletable=0;editable=0;locked=1;connectable=0;" parent="1" vertex="1">
          <mxGeometry x="3541" y="902" width="40" height="24" as="geometry" />
        </mxCell>
        <mxCell id="nt-hYRIr4ldOG242e9yD-95" value="&lt;b&gt;&lt;font style=&quot;font-size: 23px;&quot;&gt;U&lt;/font&gt;&lt;/b&gt;" style="text;html=1;align=center;verticalAlign=middle;whiteSpace=wrap;rounded=0;fontColor=#143642;movable=0;resizable=0;rotatable=0;deletable=0;editable=0;locked=1;connectable=0;" parent="1" vertex="1">
          <mxGeometry x="3481" y="902" width="40" height="24" as="geometry" />
        </mxCell>
        <mxCell id="nt-hYRIr4ldOG242e9yD-96" value="&lt;b&gt;&lt;font style=&quot;font-size: 23px;&quot;&gt;U&lt;/font&gt;&lt;/b&gt;" style="text;html=1;align=center;verticalAlign=middle;whiteSpace=wrap;rounded=0;fontColor=#143642;movable=0;resizable=0;rotatable=0;deletable=0;editable=0;locked=1;connectable=0;" parent="1" vertex="1">
          <mxGeometry x="3423" y="904" width="40" height="24" as="geometry" />
        </mxCell>
        <mxCell id="nt-hYRIr4ldOG242e9yD-97" value="Vendor" style="whiteSpace=wrap;html=1;align=center;strokeColor=#005700;fillColor=#008a00;fontColor=#ffffff;movable=0;resizable=0;rotatable=0;deletable=0;editable=0;locked=1;connectable=0;" parent="1" vertex="1">
          <mxGeometry x="1542" y="1072" width="100" height="40" as="geometry" />
        </mxCell>
        <mxCell id="nt-hYRIr4ldOG242e9yD-98" value="Vendor Management Team" style="whiteSpace=wrap;html=1;align=center;strokeColor=#005700;fillColor=#008a00;fontColor=#ffffff;movable=0;resizable=0;rotatable=0;deletable=0;editable=0;locked=1;connectable=0;" parent="1" vertex="1">
          <mxGeometry x="1662" y="1002" width="110" height="50" as="geometry" />
        </mxCell>
        <mxCell id="nt-hYRIr4ldOG242e9yD-99" value="Procurement Team" style="whiteSpace=wrap;html=1;align=center;strokeColor=#005700;fillColor=#008a00;fontColor=#ffffff;movable=0;resizable=0;rotatable=0;deletable=0;editable=0;locked=1;connectable=0;" parent="1" vertex="1">
          <mxGeometry x="612" y="1042" width="100" height="40" as="geometry" />
        </mxCell>
        <mxCell id="nt-hYRIr4ldOG242e9yD-100" value="" style="endArrow=none;html=1;rounded=0;strokeColor=#A8201A;fontColor=#143642;fillColor=#FAE5C7;entryX=0.5;entryY=1;entryDx=0;entryDy=0;exitX=0.372;exitY=0;exitDx=0;exitDy=0;exitPerimeter=0;movable=0;resizable=0;rotatable=0;deletable=0;editable=0;locked=1;connectable=0;" parent="1" edge="1">
          <mxGeometry width="50" height="50" relative="1" as="geometry">
            <mxPoint x="1176.1999999999998" y="1177" as="sourcePoint" />
            <mxPoint x="1177" y="890" as="targetPoint" />
          </mxGeometry>
        </mxCell>
        <mxCell id="nt-hYRIr4ldOG242e9yD-101" value="" style="endArrow=none;html=1;rounded=0;strokeColor=#A8201A;fontColor=#143642;fillColor=#FAE5C7;movable=0;resizable=0;rotatable=0;deletable=0;editable=0;locked=1;connectable=0;" parent="1" target="nt-hYRIr4ldOG242e9yD-98" edge="1">
          <mxGeometry width="50" height="50" relative="1" as="geometry">
            <mxPoint x="1177" y="890" as="sourcePoint" />
            <mxPoint x="1127" y="1070" as="targetPoint" />
          </mxGeometry>
        </mxCell>
        <mxCell id="nt-hYRIr4ldOG242e9yD-102" value="" style="endArrow=none;html=1;rounded=0;strokeColor=#A8201A;fontColor=#143642;fillColor=#FAE5C7;exitX=0;exitY=0.5;exitDx=0;exitDy=0;entryX=0.5;entryY=1;entryDx=0;entryDy=0;movable=0;resizable=0;rotatable=0;deletable=0;editable=0;locked=1;connectable=0;" parent="1" source="nt-hYRIr4ldOG242e9yD-97" target="nt-hYRIr4ldOG242e9yD-79" edge="1">
          <mxGeometry width="50" height="50" relative="1" as="geometry">
            <mxPoint x="1077" y="1120" as="sourcePoint" />
            <mxPoint x="1127" y="1070" as="targetPoint" />
          </mxGeometry>
        </mxCell>
        <mxCell id="nt-hYRIr4ldOG242e9yD-103" value="" style="endArrow=none;html=1;rounded=0;strokeColor=#A8201A;fontColor=#143642;fillColor=#FAE5C7;exitX=0.25;exitY=0;exitDx=0;exitDy=0;entryX=0.5;entryY=1;entryDx=0;entryDy=0;movable=0;resizable=0;rotatable=0;deletable=0;editable=0;locked=1;connectable=0;" parent="1" source="nt-hYRIr4ldOG242e9yD-27" target="nt-hYRIr4ldOG242e9yD-79" edge="1">
          <mxGeometry width="50" height="50" relative="1" as="geometry">
            <mxPoint x="1077" y="1120" as="sourcePoint" />
            <mxPoint x="1127" y="1070" as="targetPoint" />
          </mxGeometry>
        </mxCell>
        <mxCell id="nt-hYRIr4ldOG242e9yD-104" value="" style="endArrow=none;html=1;rounded=0;strokeColor=#A8201A;fontColor=#143642;fillColor=#FAE5C7;exitX=0.556;exitY=0.055;exitDx=0;exitDy=0;exitPerimeter=0;entryX=0.5;entryY=1;entryDx=0;entryDy=0;movable=0;resizable=0;rotatable=0;deletable=0;editable=0;locked=1;connectable=0;" parent="1" source="nt-hYRIr4ldOG242e9yD-22" target="nt-hYRIr4ldOG242e9yD-79" edge="1">
          <mxGeometry width="50" height="50" relative="1" as="geometry">
            <mxPoint x="1077" y="1120" as="sourcePoint" />
            <mxPoint x="1127" y="1070" as="targetPoint" />
          </mxGeometry>
        </mxCell>
        <mxCell id="nt-hYRIr4ldOG242e9yD-105" value="" style="endArrow=none;html=1;rounded=0;strokeColor=#A8201A;fontColor=#143642;fillColor=#FAE5C7;entryX=0.5;entryY=1;entryDx=0;entryDy=0;exitX=1;exitY=0.5;exitDx=0;exitDy=0;movable=0;resizable=0;rotatable=0;deletable=0;editable=0;locked=1;connectable=0;" parent="1" source="nt-hYRIr4ldOG242e9yD-21" target="nt-hYRIr4ldOG242e9yD-79" edge="1">
          <mxGeometry width="50" height="50" relative="1" as="geometry">
            <mxPoint x="1077" y="1120" as="sourcePoint" />
            <mxPoint x="1127" y="1070" as="targetPoint" />
          </mxGeometry>
        </mxCell>
        <mxCell id="nt-hYRIr4ldOG242e9yD-106" value="" style="endArrow=none;html=1;rounded=0;strokeColor=#A8201A;fontColor=#143642;fillColor=#FAE5C7;entryX=0.5;entryY=1;entryDx=0;entryDy=0;movable=0;resizable=0;rotatable=0;deletable=0;editable=0;locked=1;connectable=0;" parent="1" source="nt-hYRIr4ldOG242e9yD-99" target="nt-hYRIr4ldOG242e9yD-79" edge="1">
          <mxGeometry width="50" height="50" relative="1" as="geometry">
            <mxPoint x="1077" y="1120" as="sourcePoint" />
            <mxPoint x="1127" y="1070" as="targetPoint" />
          </mxGeometry>
        </mxCell>
        <mxCell id="nt-hYRIr4ldOG242e9yD-107" value="" style="endArrow=none;html=1;rounded=0;strokeColor=#A8201A;fontColor=#143642;fillColor=#FAE5C7;entryX=0.5;entryY=1;entryDx=0;entryDy=0;exitX=0.9;exitY=0.025;exitDx=0;exitDy=0;exitPerimeter=0;movable=0;resizable=0;rotatable=0;deletable=0;editable=0;locked=1;connectable=0;" parent="1" source="nt-hYRIr4ldOG242e9yD-25" target="nt-hYRIr4ldOG242e9yD-79" edge="1">
          <mxGeometry width="50" height="50" relative="1" as="geometry">
            <mxPoint x="1077" y="1120" as="sourcePoint" />
            <mxPoint x="1127" y="1070" as="targetPoint" />
          </mxGeometry>
        </mxCell>
        <mxCell id="nt-hYRIr4ldOG242e9yD-108" value="" style="endArrow=none;html=1;rounded=0;strokeColor=#A8201A;fontColor=#143642;fillColor=#FAE5C7;exitX=0.44;exitY=0.065;exitDx=0;exitDy=0;exitPerimeter=0;entryX=0.5;entryY=1;entryDx=0;entryDy=0;movable=0;resizable=0;rotatable=0;deletable=0;editable=0;locked=1;connectable=0;" parent="1" source="nt-hYRIr4ldOG242e9yD-24" target="nt-hYRIr4ldOG242e9yD-79" edge="1">
          <mxGeometry width="50" height="50" relative="1" as="geometry">
            <mxPoint x="1077" y="1120" as="sourcePoint" />
            <mxPoint x="1127" y="1070" as="targetPoint" />
          </mxGeometry>
        </mxCell>
        <mxCell id="nt-hYRIr4ldOG242e9yD-109" value="" style="endArrow=none;html=1;rounded=0;strokeColor=#A8201A;fontColor=#143642;fillColor=#FAE5C7;entryX=0.5;entryY=1;entryDx=0;entryDy=0;movable=0;resizable=0;rotatable=0;deletable=0;editable=0;locked=1;connectable=0;" parent="1" source="nt-hYRIr4ldOG242e9yD-23" target="nt-hYRIr4ldOG242e9yD-79" edge="1">
          <mxGeometry width="50" height="50" relative="1" as="geometry">
            <mxPoint x="1077" y="1120" as="sourcePoint" />
            <mxPoint x="1127" y="1070" as="targetPoint" />
          </mxGeometry>
        </mxCell>
        <mxCell id="nt-hYRIr4ldOG242e9yD-110" value="&lt;b&gt;&lt;font style=&quot;font-size: 23px;&quot;&gt;U&lt;/font&gt;&lt;/b&gt;" style="text;html=1;align=center;verticalAlign=middle;whiteSpace=wrap;rounded=0;fontColor=#143642;movable=0;resizable=0;rotatable=0;deletable=0;editable=0;locked=1;connectable=0;" parent="1" vertex="1">
          <mxGeometry x="1068" y="1060" width="40" height="24" as="geometry" />
        </mxCell>
        <mxCell id="nt-hYRIr4ldOG242e9yD-111" value="&lt;b&gt;&lt;font style=&quot;font-size: 23px;&quot;&gt;U&lt;/font&gt;&lt;/b&gt;" style="text;html=1;align=center;verticalAlign=middle;whiteSpace=wrap;rounded=0;fontColor=#143642;movable=0;resizable=0;rotatable=0;deletable=0;editable=0;locked=1;connectable=0;" parent="1" vertex="1">
          <mxGeometry x="1157" y="1100" width="40" height="24" as="geometry" />
        </mxCell>
        <mxCell id="nt-hYRIr4ldOG242e9yD-112" value="&lt;b&gt;&lt;font style=&quot;font-size: 23px;&quot;&gt;U&lt;/font&gt;&lt;/b&gt;" style="text;html=1;align=center;verticalAlign=middle;whiteSpace=wrap;rounded=0;fontColor=#143642;movable=0;resizable=0;rotatable=0;deletable=0;editable=0;locked=1;connectable=0;" parent="1" vertex="1">
          <mxGeometry x="940" y="1005" width="40" height="24" as="geometry" />
        </mxCell>
        <mxCell id="nt-hYRIr4ldOG242e9yD-113" value="&lt;b&gt;&lt;font style=&quot;font-size: 23px;&quot;&gt;U&lt;/font&gt;&lt;/b&gt;" style="text;html=1;align=center;verticalAlign=middle;whiteSpace=wrap;rounded=0;fontColor=#143642;movable=0;resizable=0;rotatable=0;deletable=0;editable=0;locked=1;connectable=0;" parent="1" vertex="1">
          <mxGeometry x="977" y="1037" width="40" height="24" as="geometry" />
        </mxCell>
        <mxCell id="nt-hYRIr4ldOG242e9yD-114" value="&lt;b&gt;&lt;font style=&quot;font-size: 23px;&quot;&gt;U&lt;/font&gt;&lt;/b&gt;" style="text;html=1;align=center;verticalAlign=middle;whiteSpace=wrap;rounded=0;fontColor=#143642;movable=0;resizable=0;rotatable=0;deletable=0;editable=0;locked=1;connectable=0;" parent="1" vertex="1">
          <mxGeometry x="853" y="939" width="40" height="24" as="geometry" />
        </mxCell>
        <mxCell id="nt-hYRIr4ldOG242e9yD-115" value="&lt;b&gt;&lt;font style=&quot;font-size: 23px;&quot;&gt;U&lt;/font&gt;&lt;/b&gt;" style="text;html=1;align=center;verticalAlign=middle;whiteSpace=wrap;rounded=0;fontColor=#143642;movable=0;resizable=0;rotatable=0;deletable=0;editable=0;locked=1;connectable=0;" parent="1" vertex="1">
          <mxGeometry x="897" y="967" width="40" height="24" as="geometry" />
        </mxCell>
        <mxCell id="nt-hYRIr4ldOG242e9yD-116" value="&lt;b&gt;&lt;font style=&quot;font-size: 23px;&quot;&gt;U&lt;/font&gt;&lt;/b&gt;" style="text;html=1;align=center;verticalAlign=middle;whiteSpace=wrap;rounded=0;fontColor=#143642;movable=0;resizable=0;rotatable=0;deletable=0;editable=0;locked=1;connectable=0;" parent="1" vertex="1">
          <mxGeometry x="1457" y="953" width="40" height="24" as="geometry" />
        </mxCell>
        <mxCell id="nt-hYRIr4ldOG242e9yD-117" value="&lt;b&gt;&lt;font style=&quot;font-size: 23px;&quot;&gt;U&lt;/font&gt;&lt;/b&gt;" style="text;html=1;align=center;verticalAlign=middle;whiteSpace=wrap;rounded=0;fontColor=#143642;movable=0;resizable=0;rotatable=0;deletable=0;editable=0;locked=1;connectable=0;" parent="1" vertex="1">
          <mxGeometry x="1377" y="998" width="40" height="24" as="geometry" />
        </mxCell>
        <mxCell id="nt-hYRIr4ldOG242e9yD-118" value="&lt;b&gt;&lt;font style=&quot;font-size: 23px;&quot;&gt;U&lt;/font&gt;&lt;/b&gt;" style="text;html=1;align=center;verticalAlign=middle;whiteSpace=wrap;rounded=0;fontColor=#143642;movable=0;resizable=0;rotatable=0;deletable=0;editable=0;locked=1;connectable=0;" parent="1" vertex="1">
          <mxGeometry x="1327" y="1022" width="40" height="24" as="geometry" />
        </mxCell>
        <mxCell id="nt-hYRIr4ldOG242e9yD-119" value="&lt;b&gt;&lt;font style=&quot;font-size: 23px;&quot;&gt;U&lt;/font&gt;&lt;/b&gt;" style="text;html=1;align=center;verticalAlign=middle;whiteSpace=wrap;rounded=0;fontColor=#143642;movable=0;resizable=0;rotatable=0;deletable=0;editable=0;locked=1;connectable=0;" parent="1" vertex="1">
          <mxGeometry x="1277" y="1063" width="40" height="24" as="geometry" />
        </mxCell>
        <mxCell id="nt-hYRIr4ldOG242e9yD-124" value="" style="endArrow=none;html=1;rounded=0;strokeColor=#A8201A;fontColor=#143642;fillColor=#FAE5C7;entryX=1;entryY=1;entryDx=0;entryDy=0;movable=0;resizable=0;rotatable=0;deletable=0;editable=0;locked=1;connectable=0;" parent="1" target="nt-hYRIr4ldOG242e9yD-10" edge="1">
          <mxGeometry width="50" height="50" relative="1" as="geometry">
            <mxPoint x="3403" y="1310" as="sourcePoint" />
            <mxPoint x="3463" y="1290" as="targetPoint" />
          </mxGeometry>
        </mxCell>
        <mxCell id="nt-hYRIr4ldOG242e9yD-125" value="" style="endArrow=none;html=1;rounded=0;strokeColor=#A8201A;fontColor=#143642;fillColor=#FAE5C7;entryX=0.66;entryY=0.975;entryDx=0;entryDy=0;entryPerimeter=0;exitX=0.5;exitY=0;exitDx=0;exitDy=0;movable=0;resizable=0;rotatable=0;deletable=0;editable=0;locked=1;connectable=0;" parent="1" source="nt-hYRIr4ldOG242e9yD-8" target="nt-hYRIr4ldOG242e9yD-12" edge="1">
          <mxGeometry width="50" height="50" relative="1" as="geometry">
            <mxPoint x="3413" y="1340" as="sourcePoint" />
            <mxPoint x="3463" y="1290" as="targetPoint" />
          </mxGeometry>
        </mxCell>
        <mxCell id="nt-hYRIr4ldOG242e9yD-126" value="" style="endArrow=none;html=1;rounded=0;strokeColor=#A8201A;fontColor=#143642;fillColor=#FAE5C7;entryX=0.617;entryY=0.975;entryDx=0;entryDy=0;entryPerimeter=0;movable=0;resizable=0;rotatable=0;deletable=0;editable=0;locked=1;connectable=0;" parent="1" target="nt-hYRIr4ldOG242e9yD-14" edge="1">
          <mxGeometry width="50" height="50" relative="1" as="geometry">
            <mxPoint x="3403" y="1310" as="sourcePoint" />
            <mxPoint x="3463" y="1290" as="targetPoint" />
          </mxGeometry>
        </mxCell>
        <mxCell id="nt-hYRIr4ldOG242e9yD-127" value="" style="endArrow=none;html=1;rounded=0;strokeColor=#A8201A;fontColor=#143642;fillColor=#FAE5C7;exitX=0.5;exitY=0;exitDx=0;exitDy=0;movable=0;resizable=0;rotatable=0;deletable=0;editable=0;locked=1;connectable=0;" parent="1" source="nt-hYRIr4ldOG242e9yD-8" target="nt-hYRIr4ldOG242e9yD-11" edge="1">
          <mxGeometry width="50" height="50" relative="1" as="geometry">
            <mxPoint x="3413" y="1340" as="sourcePoint" />
            <mxPoint x="3463" y="1290" as="targetPoint" />
          </mxGeometry>
        </mxCell>
        <mxCell id="nt-hYRIr4ldOG242e9yD-128" value="" style="endArrow=none;html=1;rounded=0;strokeColor=#A8201A;fontColor=#143642;fillColor=#FAE5C7;entryX=0;entryY=1;entryDx=0;entryDy=0;exitX=0.5;exitY=0;exitDx=0;exitDy=0;movable=0;resizable=0;rotatable=0;deletable=0;editable=0;locked=1;connectable=0;" parent="1" source="nt-hYRIr4ldOG242e9yD-8" target="nt-hYRIr4ldOG242e9yD-13" edge="1">
          <mxGeometry width="50" height="50" relative="1" as="geometry">
            <mxPoint x="3413" y="1340" as="sourcePoint" />
            <mxPoint x="3463" y="1290" as="targetPoint" />
          </mxGeometry>
        </mxCell>
        <mxCell id="nt-hYRIr4ldOG242e9yD-129" value="" style="endArrow=none;html=1;rounded=0;strokeColor=#A8201A;fontColor=#143642;fillColor=#FAE5C7;entryX=0.373;entryY=0.932;entryDx=0;entryDy=0;entryPerimeter=0;exitX=0.5;exitY=0;exitDx=0;exitDy=0;movable=0;resizable=0;rotatable=0;deletable=0;editable=0;locked=1;connectable=0;" parent="1" source="nt-hYRIr4ldOG242e9yD-8" target="nt-hYRIr4ldOG242e9yD-9" edge="1">
          <mxGeometry width="50" height="50" relative="1" as="geometry">
            <mxPoint x="3413" y="1340" as="sourcePoint" />
            <mxPoint x="3463" y="1290" as="targetPoint" />
          </mxGeometry>
        </mxCell>
        <mxCell id="nt-hYRIr4ldOG242e9yD-130" value="d" style="ellipse;whiteSpace=wrap;html=1;aspect=fixed;strokeColor=#B20000;fontColor=#ffffff;fillColor=#e51400;movable=0;resizable=0;rotatable=0;deletable=0;editable=0;locked=1;connectable=0;" parent="1" vertex="1">
          <mxGeometry x="3383" y="1390" width="40" height="40" as="geometry" />
        </mxCell>
        <mxCell id="nt-hYRIr4ldOG242e9yD-131" value="" style="endArrow=none;html=1;rounded=0;strokeColor=#A8201A;fontColor=#143642;fillColor=#FAE5C7;exitX=0.5;exitY=0;exitDx=0;exitDy=0;movable=0;resizable=0;rotatable=0;deletable=0;editable=0;locked=1;connectable=0;" parent="1" source="nt-hYRIr4ldOG242e9yD-130" target="nt-hYRIr4ldOG242e9yD-8" edge="1">
          <mxGeometry width="50" height="50" relative="1" as="geometry">
            <mxPoint x="3413" y="1340" as="sourcePoint" />
            <mxPoint x="3463" y="1290" as="targetPoint" />
          </mxGeometry>
        </mxCell>
        <mxCell id="nt-hYRIr4ldOG242e9yD-132" value="" style="endArrow=none;html=1;rounded=0;strokeColor=#A8201A;fontColor=#143642;fillColor=#FAE5C7;exitX=0.5;exitY=0;exitDx=0;exitDy=0;movable=0;resizable=0;rotatable=0;deletable=0;editable=0;locked=1;connectable=0;" parent="1" source="nt-hYRIr4ldOG242e9yD-15" target="nt-hYRIr4ldOG242e9yD-130" edge="1">
          <mxGeometry width="50" height="50" relative="1" as="geometry">
            <mxPoint x="3413" y="1340" as="sourcePoint" />
            <mxPoint x="3463" y="1290" as="targetPoint" />
          </mxGeometry>
        </mxCell>
        <mxCell id="nt-hYRIr4ldOG242e9yD-133" value="" style="endArrow=none;html=1;rounded=0;strokeColor=#A8201A;fontColor=#143642;fillColor=#FAE5C7;exitX=0.613;exitY=0.008;exitDx=0;exitDy=0;exitPerimeter=0;entryX=0;entryY=1;entryDx=0;entryDy=0;movable=0;resizable=0;rotatable=0;deletable=0;editable=0;locked=1;connectable=0;" parent="1" source="nt-hYRIr4ldOG242e9yD-16" target="nt-hYRIr4ldOG242e9yD-130" edge="1">
          <mxGeometry width="50" height="50" relative="1" as="geometry">
            <mxPoint x="3413" y="1340" as="sourcePoint" />
            <mxPoint x="3463" y="1290" as="targetPoint" />
          </mxGeometry>
        </mxCell>
        <mxCell id="nt-hYRIr4ldOG242e9yD-134" value="" style="endArrow=none;html=1;rounded=0;strokeColor=#A8201A;fontColor=#143642;fillColor=#FAE5C7;entryX=1;entryY=1;entryDx=0;entryDy=0;exitX=0.424;exitY=-0.006;exitDx=0;exitDy=0;exitPerimeter=0;movable=0;resizable=0;rotatable=0;deletable=0;editable=0;locked=1;connectable=0;" parent="1" source="nt-hYRIr4ldOG242e9yD-17" target="nt-hYRIr4ldOG242e9yD-130" edge="1">
          <mxGeometry width="50" height="50" relative="1" as="geometry">
            <mxPoint x="3413" y="1340" as="sourcePoint" />
            <mxPoint x="3463" y="1290" as="targetPoint" />
          </mxGeometry>
        </mxCell>
        <mxCell id="nt-hYRIr4ldOG242e9yD-135" value="&lt;b&gt;&lt;font style=&quot;font-size: 23px;&quot;&gt;U&lt;/font&gt;&lt;/b&gt;" style="text;html=1;align=center;verticalAlign=middle;whiteSpace=wrap;rounded=0;fontColor=#143642;movable=0;resizable=0;rotatable=0;deletable=0;editable=0;locked=1;connectable=0;" parent="1" vertex="1">
          <mxGeometry x="3312" y="1436" width="40" height="24" as="geometry" />
        </mxCell>
        <mxCell id="nt-hYRIr4ldOG242e9yD-136" value="&lt;b&gt;&lt;font style=&quot;font-size: 23px;&quot;&gt;U&lt;/font&gt;&lt;/b&gt;" style="text;html=1;align=center;verticalAlign=middle;whiteSpace=wrap;rounded=0;fontColor=#143642;movable=0;resizable=0;rotatable=0;deletable=0;editable=0;locked=1;connectable=0;" parent="1" vertex="1">
          <mxGeometry x="3460" y="1439" width="40" height="24" as="geometry" />
        </mxCell>
        <mxCell id="nt-hYRIr4ldOG242e9yD-137" value="&lt;b&gt;&lt;font style=&quot;font-size: 23px;&quot;&gt;U&lt;/font&gt;&lt;/b&gt;" style="text;html=1;align=center;verticalAlign=middle;whiteSpace=wrap;rounded=0;fontColor=#143642;movable=0;resizable=0;rotatable=0;deletable=0;editable=0;locked=1;connectable=0;" parent="1" vertex="1">
          <mxGeometry x="3383" y="1480" width="40" height="24" as="geometry" />
        </mxCell>
        <mxCell id="nt-hYRIr4ldOG242e9yD-138" value="" style="endArrow=none;html=1;rounded=0;strokeColor=#A8201A;fontColor=#143642;fillColor=#FAE5C7;entryX=0.428;entryY=0.987;entryDx=0;entryDy=0;entryPerimeter=0;exitX=0.5;exitY=0;exitDx=0;exitDy=0;movable=0;resizable=0;rotatable=0;deletable=0;editable=0;locked=1;connectable=0;" parent="1" source="nt-hYRIr4ldOG242e9yD-44" target="nt-hYRIr4ldOG242e9yD-46" edge="1">
          <mxGeometry width="50" height="50" relative="1" as="geometry">
            <mxPoint x="810" y="2258" as="sourcePoint" />
            <mxPoint x="860" y="2208" as="targetPoint" />
          </mxGeometry>
        </mxCell>
        <mxCell id="nt-hYRIr4ldOG242e9yD-139" value="" style="endArrow=none;html=1;rounded=0;strokeColor=#A8201A;fontColor=#143642;fillColor=#FAE5C7;exitX=0.5;exitY=0;exitDx=0;exitDy=0;entryX=0.555;entryY=0.96;entryDx=0;entryDy=0;entryPerimeter=0;movable=0;resizable=0;rotatable=0;deletable=0;editable=0;locked=1;connectable=0;" parent="1" source="nt-hYRIr4ldOG242e9yD-44" target="nt-hYRIr4ldOG242e9yD-45" edge="1">
          <mxGeometry width="50" height="50" relative="1" as="geometry">
            <mxPoint x="810" y="2258" as="sourcePoint" />
            <mxPoint x="860" y="2208" as="targetPoint" />
          </mxGeometry>
        </mxCell>
        <mxCell id="nt-hYRIr4ldOG242e9yD-140" value="Contract Manager" style="whiteSpace=wrap;html=1;align=center;strokeColor=#3A5431;fontColor=#ffffff;fillColor=#6d8764;movable=0;resizable=0;rotatable=0;deletable=0;editable=0;locked=1;connectable=0;" parent="1" vertex="1">
          <mxGeometry x="660" y="2565" width="120" height="40" as="geometry" />
        </mxCell>
        <mxCell id="nt-hYRIr4ldOG242e9yD-141" value="" style="endArrow=none;html=1;rounded=0;strokeColor=#A8201A;fontColor=#143642;fillColor=#FAE5C7;exitX=0.454;exitY=-0.006;exitDx=0;exitDy=0;exitPerimeter=0;entryX=0.5;entryY=1;entryDx=0;entryDy=0;movable=0;resizable=0;rotatable=0;deletable=0;editable=0;locked=1;connectable=0;" parent="1" source="nt-hYRIr4ldOG242e9yD-48" target="nt-hYRIr4ldOG242e9yD-47" edge="1">
          <mxGeometry width="50" height="50" relative="1" as="geometry">
            <mxPoint x="1112" y="2675" as="sourcePoint" />
            <mxPoint x="1222" y="2604" as="targetPoint" />
          </mxGeometry>
        </mxCell>
        <mxCell id="nt-hYRIr4ldOG242e9yD-142" value="" style="endArrow=none;html=1;rounded=0;strokeColor=#A8201A;fontColor=#143642;fillColor=#FAE5C7;entryX=0.462;entryY=-0.021;entryDx=0;entryDy=0;entryPerimeter=0;exitX=0.5;exitY=1;exitDx=0;exitDy=0;movable=0;resizable=0;rotatable=0;deletable=0;editable=0;locked=1;connectable=0;" parent="1" source="nt-hYRIr4ldOG242e9yD-47" target="nt-hYRIr4ldOG242e9yD-49" edge="1">
          <mxGeometry width="50" height="50" relative="1" as="geometry">
            <mxPoint x="1122" y="2675" as="sourcePoint" />
            <mxPoint x="1172" y="2625" as="targetPoint" />
          </mxGeometry>
        </mxCell>
        <mxCell id="nt-hYRIr4ldOG242e9yD-143" value="" style="endArrow=none;html=1;rounded=0;strokeColor=#A8201A;fontColor=#143642;fillColor=#FAE5C7;exitX=0.463;exitY=0.017;exitDx=0;exitDy=0;exitPerimeter=0;entryX=0.5;entryY=1;entryDx=0;entryDy=0;movable=0;resizable=0;rotatable=0;deletable=0;editable=0;locked=1;connectable=0;" parent="1" source="nt-hYRIr4ldOG242e9yD-51" target="nt-hYRIr4ldOG242e9yD-47" edge="1">
          <mxGeometry width="50" height="50" relative="1" as="geometry">
            <mxPoint x="1202" y="2665" as="sourcePoint" />
            <mxPoint x="1252" y="2615" as="targetPoint" />
          </mxGeometry>
        </mxCell>
        <mxCell id="nt-hYRIr4ldOG242e9yD-144" value="" style="endArrow=none;html=1;rounded=0;strokeColor=#A8201A;fontColor=#143642;fillColor=#FAE5C7;entryX=0.43;entryY=-0.014;entryDx=0;entryDy=0;entryPerimeter=0;exitX=0.5;exitY=1;exitDx=0;exitDy=0;movable=0;resizable=0;rotatable=0;deletable=0;editable=0;locked=1;connectable=0;" parent="1" source="nt-hYRIr4ldOG242e9yD-47" target="nt-hYRIr4ldOG242e9yD-50" edge="1">
          <mxGeometry width="50" height="50" relative="1" as="geometry">
            <mxPoint x="1192" y="2665" as="sourcePoint" />
            <mxPoint x="1242" y="2615" as="targetPoint" />
          </mxGeometry>
        </mxCell>
        <mxCell id="nt-hYRIr4ldOG242e9yD-145" value="manager_id" style="ellipse;whiteSpace=wrap;html=1;align=center;fontStyle=4;strokeColor=#314354;fontColor=#ffffff;fillColor=#647687;movable=0;resizable=0;rotatable=0;deletable=0;editable=0;locked=1;connectable=0;" parent="1" vertex="1">
          <mxGeometry x="600" y="2480" width="100" height="40" as="geometry" />
        </mxCell>
        <mxCell id="nt-hYRIr4ldOG242e9yD-146" value="role_description" style="ellipse;whiteSpace=wrap;html=1;align=center;strokeColor=#432D57;fontColor=#ffffff;fillColor=#76608a;movable=0;resizable=0;rotatable=0;deletable=0;editable=0;locked=1;connectable=0;" parent="1" vertex="1">
          <mxGeometry x="730" y="2480" width="100" height="40" as="geometry" />
        </mxCell>
        <mxCell id="nt-hYRIr4ldOG242e9yD-147" value="" style="endArrow=none;html=1;rounded=0;strokeColor=#A8201A;fontColor=#143642;fillColor=#FAE5C7;exitX=0.5;exitY=1;exitDx=0;exitDy=0;entryX=0.5;entryY=0;entryDx=0;entryDy=0;movable=0;resizable=0;rotatable=0;deletable=0;editable=0;locked=1;connectable=0;" parent="1" source="nt-hYRIr4ldOG242e9yD-145" target="nt-hYRIr4ldOG242e9yD-140" edge="1">
          <mxGeometry width="50" height="50" relative="1" as="geometry">
            <mxPoint x="680" y="2608" as="sourcePoint" />
            <mxPoint x="730" y="2558" as="targetPoint" />
          </mxGeometry>
        </mxCell>
        <mxCell id="nt-hYRIr4ldOG242e9yD-148" value="" style="endArrow=none;html=1;rounded=0;strokeColor=#A8201A;fontColor=#143642;fillColor=#FAE5C7;entryX=0.367;entryY=1;entryDx=0;entryDy=0;entryPerimeter=0;exitX=0.5;exitY=0;exitDx=0;exitDy=0;movable=0;resizable=0;rotatable=0;deletable=0;editable=0;locked=1;connectable=0;" parent="1" source="nt-hYRIr4ldOG242e9yD-140" target="nt-hYRIr4ldOG242e9yD-146" edge="1">
          <mxGeometry width="50" height="50" relative="1" as="geometry">
            <mxPoint x="720" y="2568" as="sourcePoint" />
            <mxPoint x="730" y="2558" as="targetPoint" />
          </mxGeometry>
        </mxCell>
        <mxCell id="nt-hYRIr4ldOG242e9yD-149" value="" style="endArrow=none;html=1;rounded=0;strokeColor=#A8201A;fontColor=#143642;fillColor=#FAE5C7;entryX=0.403;entryY=1.021;entryDx=0;entryDy=0;entryPerimeter=0;exitX=0.5;exitY=0;exitDx=0;exitDy=0;movable=0;resizable=0;rotatable=0;deletable=0;editable=0;locked=1;connectable=0;" parent="1" source="nt-hYRIr4ldOG242e9yD-52" target="nt-hYRIr4ldOG242e9yD-55" edge="1">
          <mxGeometry width="50" height="50" relative="1" as="geometry">
            <mxPoint x="1640" y="1553" as="sourcePoint" />
            <mxPoint x="1690" y="1503" as="targetPoint" />
          </mxGeometry>
        </mxCell>
        <mxCell id="nt-hYRIr4ldOG242e9yD-150" value="" style="endArrow=none;html=1;rounded=0;strokeColor=#A8201A;fontColor=#143642;fillColor=#FAE5C7;exitX=0.5;exitY=1;exitDx=0;exitDy=0;movable=0;resizable=0;rotatable=0;deletable=0;editable=0;locked=1;connectable=0;" parent="1" source="nt-hYRIr4ldOG242e9yD-53" edge="1">
          <mxGeometry width="50" height="50" relative="1" as="geometry">
            <mxPoint x="1640" y="1553" as="sourcePoint" />
            <mxPoint x="1910" y="1563" as="targetPoint" />
          </mxGeometry>
        </mxCell>
        <mxCell id="nt-hYRIr4ldOG242e9yD-151" value="" style="endArrow=none;html=1;rounded=0;strokeColor=#A8201A;fontColor=#143642;fillColor=#FAE5C7;exitX=0.5;exitY=0;exitDx=0;exitDy=0;entryX=0.55;entryY=1.043;entryDx=0;entryDy=0;entryPerimeter=0;movable=0;resizable=0;rotatable=0;deletable=0;editable=0;locked=1;connectable=0;" parent="1" source="nt-hYRIr4ldOG242e9yD-52" target="nt-hYRIr4ldOG242e9yD-56" edge="1">
          <mxGeometry width="50" height="50" relative="1" as="geometry">
            <mxPoint x="1640" y="1553" as="sourcePoint" />
            <mxPoint x="1690" y="1503" as="targetPoint" />
          </mxGeometry>
        </mxCell>
        <mxCell id="nt-hYRIr4ldOG242e9yD-152" value="" style="endArrow=none;html=1;rounded=0;strokeColor=#A8201A;fontColor=#143642;fillColor=#FAE5C7;entryX=0.334;entryY=0.93;entryDx=0;entryDy=0;entryPerimeter=0;exitX=0.5;exitY=0;exitDx=0;exitDy=0;movable=0;resizable=0;rotatable=0;deletable=0;editable=0;locked=1;connectable=0;" parent="1" source="nt-hYRIr4ldOG242e9yD-52" target="nt-hYRIr4ldOG242e9yD-54" edge="1">
          <mxGeometry width="50" height="50" relative="1" as="geometry">
            <mxPoint x="1640" y="1553" as="sourcePoint" />
            <mxPoint x="1690" y="1503" as="targetPoint" />
          </mxGeometry>
        </mxCell>
        <mxCell id="nt-hYRIr4ldOG242e9yD-153" value="" style="endArrow=none;html=1;rounded=0;strokeColor=#A8201A;fontColor=#143642;fillColor=#FAE5C7;entryX=0.5;entryY=0;entryDx=0;entryDy=0;exitX=0.5;exitY=1;exitDx=0;exitDy=0;movable=0;resizable=0;rotatable=0;deletable=0;editable=0;locked=1;connectable=0;" parent="1" source="nt-hYRIr4ldOG242e9yD-52" target="nt-hYRIr4ldOG242e9yD-59" edge="1">
          <mxGeometry width="50" height="50" relative="1" as="geometry">
            <mxPoint x="1850" y="1563" as="sourcePoint" />
            <mxPoint x="1690" y="1503" as="targetPoint" />
          </mxGeometry>
        </mxCell>
        <mxCell id="nt-hYRIr4ldOG242e9yD-154" value="" style="endArrow=none;html=1;rounded=0;strokeColor=#A8201A;fontColor=#143642;fillColor=#FAE5C7;exitX=0.5;exitY=0;exitDx=0;exitDy=0;entryX=0.5;entryY=1;entryDx=0;entryDy=0;movable=0;resizable=0;rotatable=0;deletable=0;editable=0;locked=1;connectable=0;" parent="1" source="nt-hYRIr4ldOG242e9yD-58" target="nt-hYRIr4ldOG242e9yD-52" edge="1">
          <mxGeometry width="50" height="50" relative="1" as="geometry">
            <mxPoint x="1640" y="1553" as="sourcePoint" />
            <mxPoint x="1690" y="1503" as="targetPoint" />
          </mxGeometry>
        </mxCell>
        <mxCell id="nt-hYRIr4ldOG242e9yD-155" value="" style="endArrow=none;html=1;rounded=0;strokeColor=#A8201A;fontColor=#143642;fillColor=#FAE5C7;entryX=0.5;entryY=1;entryDx=0;entryDy=0;exitX=0.5;exitY=0;exitDx=0;exitDy=0;movable=0;resizable=0;rotatable=0;deletable=0;editable=0;locked=1;connectable=0;" parent="1" source="nt-hYRIr4ldOG242e9yD-57" target="nt-hYRIr4ldOG242e9yD-52" edge="1">
          <mxGeometry width="50" height="50" relative="1" as="geometry">
            <mxPoint x="1640" y="1553" as="sourcePoint" />
            <mxPoint x="1690" y="1503" as="targetPoint" />
          </mxGeometry>
        </mxCell>
        <mxCell id="nt-hYRIr4ldOG242e9yD-156" value="" style="endArrow=none;html=1;rounded=0;strokeColor=#A8201A;fontColor=#143642;fillColor=#FAE5C7;exitX=0.5;exitY=0;exitDx=0;exitDy=0;entryX=0.5;entryY=1;entryDx=0;entryDy=0;movable=0;resizable=0;rotatable=0;deletable=0;editable=0;locked=1;connectable=0;" parent="1" source="nt-hYRIr4ldOG242e9yD-60" target="nt-hYRIr4ldOG242e9yD-52" edge="1">
          <mxGeometry width="50" height="50" relative="1" as="geometry">
            <mxPoint x="1640" y="1553" as="sourcePoint" />
            <mxPoint x="1690" y="1503" as="targetPoint" />
          </mxGeometry>
        </mxCell>
        <mxCell id="nt-hYRIr4ldOG242e9yD-157" value="Budget Manager" style="whiteSpace=wrap;html=1;align=center;strokeColor=#3A5431;fontColor=#ffffff;fillColor=#6d8764;movable=0;resizable=0;rotatable=0;deletable=0;editable=0;locked=1;connectable=0;" parent="1" vertex="1">
          <mxGeometry x="947" y="2820" width="100" height="40" as="geometry" />
        </mxCell>
        <mxCell id="nt-hYRIr4ldOG242e9yD-158" value="manager_id" style="ellipse;whiteSpace=wrap;html=1;align=center;fontStyle=4;strokeColor=#314354;fontColor=#ffffff;fillColor=#647687;movable=0;resizable=0;rotatable=0;deletable=0;editable=0;locked=1;connectable=0;" parent="1" vertex="1">
          <mxGeometry x="887" y="2910" width="100" height="40" as="geometry" />
        </mxCell>
        <mxCell id="nt-hYRIr4ldOG242e9yD-159" value="role_description" style="ellipse;whiteSpace=wrap;html=1;align=center;strokeColor=#432D57;fontColor=#ffffff;fillColor=#76608a;movable=0;resizable=0;rotatable=0;deletable=0;editable=0;locked=1;connectable=0;" parent="1" vertex="1">
          <mxGeometry x="1027" y="2912" width="100" height="40" as="geometry" />
        </mxCell>
        <mxCell id="nt-hYRIr4ldOG242e9yD-160" value="" style="endArrow=none;html=1;rounded=0;strokeColor=#A8201A;fontColor=#143642;fillColor=#FAE5C7;entryX=0.5;entryY=1;entryDx=0;entryDy=0;movable=0;resizable=0;rotatable=0;deletable=0;editable=0;locked=1;connectable=0;" parent="1" target="nt-hYRIr4ldOG242e9yD-157" edge="1">
          <mxGeometry width="50" height="50" relative="1" as="geometry">
            <mxPoint x="937" y="2910" as="sourcePoint" />
            <mxPoint x="1287" y="3000" as="targetPoint" />
          </mxGeometry>
        </mxCell>
        <mxCell id="nt-hYRIr4ldOG242e9yD-161" value="" style="endArrow=none;html=1;rounded=0;strokeColor=#A8201A;fontColor=#143642;fillColor=#FAE5C7;entryX=0.5;entryY=1;entryDx=0;entryDy=0;exitX=0.5;exitY=0;exitDx=0;exitDy=0;movable=0;resizable=0;rotatable=0;deletable=0;editable=0;locked=1;connectable=0;" parent="1" source="nt-hYRIr4ldOG242e9yD-159" target="nt-hYRIr4ldOG242e9yD-157" edge="1">
          <mxGeometry width="50" height="50" relative="1" as="geometry">
            <mxPoint x="1077" y="3060" as="sourcePoint" />
            <mxPoint x="1127" y="3010" as="targetPoint" />
          </mxGeometry>
        </mxCell>
        <mxCell id="nt-hYRIr4ldOG242e9yD-162" value="amended_by" style="ellipse;whiteSpace=wrap;html=1;align=center;strokeColor=#432D57;fontColor=#ffffff;fillColor=#76608a;movable=0;resizable=0;rotatable=0;deletable=0;editable=0;locked=1;connectable=0;" parent="1" vertex="1">
          <mxGeometry x="1202" y="1710" width="100" height="40" as="geometry" />
        </mxCell>
        <mxCell id="nt-hYRIr4ldOG242e9yD-163" value="changes_summary" style="ellipse;whiteSpace=wrap;html=1;align=center;strokeColor=#432D57;fontColor=#ffffff;fillColor=#76608a;movable=0;resizable=0;rotatable=0;deletable=0;editable=0;locked=1;connectable=0;" parent="1" vertex="1">
          <mxGeometry x="1035.6" y="1705" width="130" height="40" as="geometry" />
        </mxCell>
        <mxCell id="nt-hYRIr4ldOG242e9yD-164" value="amendment_date" style="ellipse;whiteSpace=wrap;html=1;align=center;strokeColor=#432D57;fontColor=#ffffff;fillColor=#76608a;movable=0;resizable=0;rotatable=0;deletable=0;editable=0;locked=1;connectable=0;" parent="1" vertex="1">
          <mxGeometry x="1115.6" y="1440" width="110" height="40" as="geometry" />
        </mxCell>
        <mxCell id="nt-hYRIr4ldOG242e9yD-165" value="approved_by" style="ellipse;whiteSpace=wrap;html=1;align=center;strokeColor=#432D57;fontColor=#ffffff;fillColor=#76608a;movable=0;resizable=0;rotatable=0;deletable=0;editable=0;locked=1;connectable=0;" parent="1" vertex="1">
          <mxGeometry x="887" y="1705" width="100" height="40" as="geometry" />
        </mxCell>
        <mxCell id="nt-hYRIr4ldOG242e9yD-166" value="" style="endArrow=none;html=1;rounded=0;strokeColor=#A8201A;fontColor=#143642;fillColor=#FAE5C7;exitX=0.5;exitY=0;exitDx=0;exitDy=0;entryX=0.5;entryY=1;entryDx=0;entryDy=0;movable=0;resizable=0;rotatable=0;deletable=0;editable=0;locked=1;connectable=0;" parent="1" source="nt-hYRIr4ldOG242e9yD-165" target="nt-hYRIr4ldOG242e9yD-61" edge="1">
          <mxGeometry width="50" height="50" relative="1" as="geometry">
            <mxPoint x="956.9999999999995" y="1682.44" as="sourcePoint" />
            <mxPoint x="595.5999999999999" y="1860" as="targetPoint" />
          </mxGeometry>
        </mxCell>
        <mxCell id="nt-hYRIr4ldOG242e9yD-167" value="" style="endArrow=none;html=1;rounded=0;strokeColor=#A8201A;fontColor=#143642;fillColor=#FAE5C7;entryX=0.5;entryY=1;entryDx=0;entryDy=0;exitX=0.5;exitY=0;exitDx=0;exitDy=0;movable=0;resizable=0;rotatable=0;deletable=0;editable=0;locked=1;connectable=0;" parent="1" source="nt-hYRIr4ldOG242e9yD-163" target="nt-hYRIr4ldOG242e9yD-61" edge="1">
          <mxGeometry width="50" height="50" relative="1" as="geometry">
            <mxPoint x="835.5999999999999" y="1960" as="sourcePoint" />
            <mxPoint x="885.5999999999999" y="1910" as="targetPoint" />
          </mxGeometry>
        </mxCell>
        <mxCell id="nt-hYRIr4ldOG242e9yD-168" value="" style="endArrow=none;html=1;rounded=0;strokeColor=#A8201A;fontColor=#143642;fillColor=#FAE5C7;entryX=0.5;entryY=1;entryDx=0;entryDy=0;exitX=0.416;exitY=0.062;exitDx=0;exitDy=0;exitPerimeter=0;movable=0;resizable=0;rotatable=0;deletable=0;editable=0;locked=1;connectable=0;" parent="1" source="nt-hYRIr4ldOG242e9yD-162" target="nt-hYRIr4ldOG242e9yD-61" edge="1">
          <mxGeometry width="50" height="50" relative="1" as="geometry">
            <mxPoint x="835.5999999999999" y="1960" as="sourcePoint" />
            <mxPoint x="885.5999999999999" y="1910" as="targetPoint" />
          </mxGeometry>
        </mxCell>
        <mxCell id="nt-hYRIr4ldOG242e9yD-169" value="" style="endArrow=none;html=1;rounded=0;strokeColor=#A8201A;fontColor=#143642;fillColor=#FAE5C7;entryX=0.5;entryY=1;entryDx=0;entryDy=0;exitX=0.5;exitY=0;exitDx=0;exitDy=0;movable=0;resizable=0;rotatable=0;deletable=0;editable=0;locked=1;connectable=0;" parent="1" source="nt-hYRIr4ldOG242e9yD-61" target="nt-hYRIr4ldOG242e9yD-164" edge="1">
          <mxGeometry width="50" height="50" relative="1" as="geometry">
            <mxPoint x="845.5999999999999" y="1950" as="sourcePoint" />
            <mxPoint x="895.5999999999999" y="1900" as="targetPoint" />
          </mxGeometry>
        </mxCell>
        <mxCell id="nt-hYRIr4ldOG242e9yD-170" value="" style="endArrow=none;html=1;rounded=0;strokeColor=#A8201A;fontColor=#143642;fillColor=#FAE5C7;entryX=0.5;entryY=1;entryDx=0;entryDy=0;exitX=0.5;exitY=0;exitDx=0;exitDy=0;movable=0;resizable=0;rotatable=0;deletable=0;editable=0;locked=1;connectable=0;" parent="1" source="nt-hYRIr4ldOG242e9yD-61" target="nt-hYRIr4ldOG242e9yD-62" edge="1">
          <mxGeometry width="50" height="50" relative="1" as="geometry">
            <mxPoint x="845.5999999999999" y="1950" as="sourcePoint" />
            <mxPoint x="895.5999999999999" y="1900" as="targetPoint" />
          </mxGeometry>
        </mxCell>
        <mxCell id="nt-hYRIr4ldOG242e9yD-171" value="&lt;span style=&quot;font-size:11.0pt;line-height:107%;&lt;br/&gt;font-family:&amp;quot;Calibri&amp;quot;,sans-serif;mso-ascii-theme-font:minor-latin;mso-fareast-font-family:&lt;br/&gt;Calibri;mso-fareast-theme-font:minor-latin;mso-hansi-theme-font:minor-latin;&lt;br/&gt;mso-bidi-font-family:Arial;mso-bidi-theme-font:minor-bidi;mso-ansi-language:&lt;br/&gt;EN-US;mso-fareast-language:EN-US;mso-bidi-language:AR-SA&quot;&gt;po_id&amp;nbsp;&lt;/span&gt;" style="ellipse;whiteSpace=wrap;html=1;align=center;fontStyle=4;strokeColor=#314354;fontColor=#ffffff;fillColor=#647687;movable=0;resizable=0;rotatable=0;deletable=0;editable=0;locked=1;connectable=0;" parent="1" vertex="1">
          <mxGeometry x="2315" y="1723" width="100" height="40" as="geometry" />
        </mxCell>
        <mxCell id="nt-hYRIr4ldOG242e9yD-172" value="po_date" style="ellipse;whiteSpace=wrap;html=1;align=center;strokeColor=#432D57;fontColor=#ffffff;fillColor=#76608a;movable=0;resizable=0;rotatable=0;deletable=0;editable=0;locked=1;connectable=0;" parent="1" vertex="1">
          <mxGeometry x="2459" y="1723" width="100" height="40" as="geometry" />
        </mxCell>
        <mxCell id="nt-hYRIr4ldOG242e9yD-173" value="budget_compliance" style="ellipse;whiteSpace=wrap;html=1;align=center;strokeColor=#432D57;fontColor=#ffffff;fillColor=#76608a;movable=0;resizable=0;rotatable=0;deletable=0;editable=0;locked=1;connectable=0;" parent="1" vertex="1">
          <mxGeometry x="2551" y="1765" width="130" height="40" as="geometry" />
        </mxCell>
        <mxCell id="nt-hYRIr4ldOG242e9yD-174" value="approval_status" style="ellipse;whiteSpace=wrap;html=1;align=center;strokeColor=#432D57;fontColor=#ffffff;fillColor=#76608a;movable=0;resizable=0;rotatable=0;deletable=0;editable=0;locked=1;connectable=0;" parent="1" vertex="1">
          <mxGeometry x="2222" y="1762" width="100" height="40" as="geometry" />
        </mxCell>
        <mxCell id="nt-hYRIr4ldOG242e9yD-175" value="total_cost" style="ellipse;whiteSpace=wrap;html=1;align=center;strokeColor=#432D57;fontColor=#ffffff;fillColor=#76608a;movable=0;resizable=0;rotatable=0;deletable=0;editable=0;locked=1;connectable=0;" parent="1" vertex="1">
          <mxGeometry x="2567" y="1821" width="100" height="40" as="geometry" />
        </mxCell>
        <mxCell id="nt-hYRIr4ldOG242e9yD-176" value="status" style="ellipse;whiteSpace=wrap;html=1;align=center;strokeColor=#432D57;fontColor=#ffffff;fillColor=#76608a;movable=0;resizable=0;rotatable=0;deletable=0;editable=0;locked=1;connectable=0;" parent="1" vertex="1">
          <mxGeometry x="2218" y="1817" width="100" height="40" as="geometry" />
        </mxCell>
        <mxCell id="nt-hYRIr4ldOG242e9yD-177" value="" style="endArrow=none;html=1;rounded=0;strokeColor=#A8201A;fontColor=#143642;fillColor=#FAE5C7;entryX=0.5;entryY=1;entryDx=0;entryDy=0;exitX=0.5;exitY=0;exitDx=0;exitDy=0;movable=0;resizable=0;rotatable=0;deletable=0;editable=0;locked=1;connectable=0;" parent="1" source="nt-hYRIr4ldOG242e9yD-63" target="nt-hYRIr4ldOG242e9yD-172" edge="1">
          <mxGeometry width="50" height="50" relative="1" as="geometry">
            <mxPoint x="2437" y="1881" as="sourcePoint" />
            <mxPoint x="2417" y="2121" as="targetPoint" />
          </mxGeometry>
        </mxCell>
        <mxCell id="nt-hYRIr4ldOG242e9yD-178" value="" style="endArrow=none;html=1;rounded=0;strokeColor=#A8201A;fontColor=#143642;fillColor=#FAE5C7;entryX=0.5;entryY=1;entryDx=0;entryDy=0;exitX=0.5;exitY=0;exitDx=0;exitDy=0;movable=0;resizable=0;rotatable=0;deletable=0;editable=0;locked=1;connectable=0;" parent="1" source="nt-hYRIr4ldOG242e9yD-63" target="nt-hYRIr4ldOG242e9yD-171" edge="1">
          <mxGeometry width="50" height="50" relative="1" as="geometry">
            <mxPoint x="2367" y="2171" as="sourcePoint" />
            <mxPoint x="2417" y="2121" as="targetPoint" />
          </mxGeometry>
        </mxCell>
        <mxCell id="nt-hYRIr4ldOG242e9yD-179" value="" style="endArrow=none;html=1;rounded=0;strokeColor=#A8201A;fontColor=#143642;fillColor=#FAE5C7;entryX=0.048;entryY=0.72;entryDx=0;entryDy=0;entryPerimeter=0;exitX=0.5;exitY=0;exitDx=0;exitDy=0;movable=0;resizable=0;rotatable=0;deletable=0;editable=0;locked=1;connectable=0;" parent="1" source="nt-hYRIr4ldOG242e9yD-63" target="nt-hYRIr4ldOG242e9yD-175" edge="1">
          <mxGeometry width="50" height="50" relative="1" as="geometry">
            <mxPoint x="2367" y="2171" as="sourcePoint" />
            <mxPoint x="2417" y="2121" as="targetPoint" />
          </mxGeometry>
        </mxCell>
        <mxCell id="nt-hYRIr4ldOG242e9yD-180" value="" style="endArrow=none;html=1;rounded=0;strokeColor=#A8201A;fontColor=#143642;fillColor=#FAE5C7;entryX=0.073;entryY=0.67;entryDx=0;entryDy=0;entryPerimeter=0;exitX=0.5;exitY=0;exitDx=0;exitDy=0;movable=0;resizable=0;rotatable=0;deletable=0;editable=0;locked=1;connectable=0;" parent="1" source="nt-hYRIr4ldOG242e9yD-63" target="nt-hYRIr4ldOG242e9yD-173" edge="1">
          <mxGeometry width="50" height="50" relative="1" as="geometry">
            <mxPoint x="2367" y="2171" as="sourcePoint" />
            <mxPoint x="2417" y="2121" as="targetPoint" />
          </mxGeometry>
        </mxCell>
        <mxCell id="nt-hYRIr4ldOG242e9yD-181" value="" style="endArrow=none;html=1;rounded=0;strokeColor=#A8201A;fontColor=#143642;fillColor=#FAE5C7;entryX=1;entryY=1;entryDx=0;entryDy=0;exitX=0.5;exitY=0;exitDx=0;exitDy=0;movable=0;resizable=0;rotatable=0;deletable=0;editable=0;locked=1;connectable=0;" parent="1" source="nt-hYRIr4ldOG242e9yD-63" target="nt-hYRIr4ldOG242e9yD-174" edge="1">
          <mxGeometry width="50" height="50" relative="1" as="geometry">
            <mxPoint x="2367" y="2171" as="sourcePoint" />
            <mxPoint x="2417" y="2121" as="targetPoint" />
          </mxGeometry>
        </mxCell>
        <mxCell id="nt-hYRIr4ldOG242e9yD-182" value="" style="endArrow=none;html=1;rounded=0;strokeColor=#A8201A;fontColor=#143642;fillColor=#FAE5C7;entryX=0.732;entryY=0.904;entryDx=0;entryDy=0;entryPerimeter=0;exitX=0.5;exitY=0;exitDx=0;exitDy=0;movable=0;resizable=0;rotatable=0;deletable=0;editable=0;locked=1;connectable=0;" parent="1" source="nt-hYRIr4ldOG242e9yD-63" target="nt-hYRIr4ldOG242e9yD-176" edge="1">
          <mxGeometry width="50" height="50" relative="1" as="geometry">
            <mxPoint x="2367" y="2171" as="sourcePoint" />
            <mxPoint x="2417" y="2121" as="targetPoint" />
          </mxGeometry>
        </mxCell>
        <mxCell id="nt-hYRIr4ldOG242e9yD-183" value="Approved" style="whiteSpace=wrap;html=1;align=center;strokeColor=#005700;fillColor=#008a00;fontColor=#ffffff;movable=0;resizable=0;rotatable=0;deletable=0;editable=0;locked=1;connectable=0;" parent="1" vertex="1">
          <mxGeometry x="2491" y="2032" width="100" height="40" as="geometry" />
        </mxCell>
        <mxCell id="nt-hYRIr4ldOG242e9yD-184" value="Pending" style="whiteSpace=wrap;html=1;align=center;strokeColor=#005700;fillColor=#008a00;fontColor=#ffffff;movable=0;resizable=0;rotatable=0;deletable=0;editable=0;locked=1;connectable=0;" parent="1" vertex="1">
          <mxGeometry x="2267" y="2031" width="100" height="40" as="geometry" />
        </mxCell>
        <mxCell id="nt-hYRIr4ldOG242e9yD-185" value="d" style="ellipse;whiteSpace=wrap;html=1;aspect=fixed;strokeColor=#B20000;fontColor=#ffffff;fillColor=#e51400;movable=0;resizable=0;rotatable=0;deletable=0;editable=0;locked=1;connectable=0;" parent="1" vertex="1">
          <mxGeometry x="2417" y="1960" width="40" height="40" as="geometry" />
        </mxCell>
        <mxCell id="nt-hYRIr4ldOG242e9yD-186" value="" style="endArrow=none;html=1;rounded=0;strokeColor=#A8201A;fontColor=#143642;fillColor=#FAE5C7;exitX=0.458;exitY=0.068;exitDx=0;exitDy=0;exitPerimeter=0;movable=0;resizable=0;rotatable=0;deletable=0;editable=0;locked=1;connectable=0;" parent="1" source="nt-hYRIr4ldOG242e9yD-184" target="nt-hYRIr4ldOG242e9yD-185" edge="1">
          <mxGeometry width="50" height="50" relative="1" as="geometry">
            <mxPoint x="2067" y="2091" as="sourcePoint" />
            <mxPoint x="2117" y="2041" as="targetPoint" />
          </mxGeometry>
        </mxCell>
        <mxCell id="nt-hYRIr4ldOG242e9yD-187" value="" style="endArrow=none;html=1;rounded=0;strokeColor=#A8201A;fontColor=#143642;fillColor=#FAE5C7;entryX=0.5;entryY=1;entryDx=0;entryDy=0;movable=0;resizable=0;rotatable=0;deletable=0;editable=0;locked=1;connectable=0;" parent="1" target="nt-hYRIr4ldOG242e9yD-63" edge="1">
          <mxGeometry width="50" height="50" relative="1" as="geometry">
            <mxPoint x="2436.7224198259087" y="1960.0130514831947" as="sourcePoint" />
            <mxPoint x="2437.9999999999995" y="1931" as="targetPoint" />
          </mxGeometry>
        </mxCell>
        <mxCell id="nt-hYRIr4ldOG242e9yD-188" value="" style="endArrow=none;html=1;rounded=0;strokeColor=#A8201A;fontColor=#143642;fillColor=#FAE5C7;exitX=0.5;exitY=0;exitDx=0;exitDy=0;entryX=0.969;entryY=0.637;entryDx=0;entryDy=0;entryPerimeter=0;movable=0;resizable=0;rotatable=0;deletable=0;editable=0;locked=1;connectable=0;" parent="1" source="nt-hYRIr4ldOG242e9yD-183" target="nt-hYRIr4ldOG242e9yD-185" edge="1">
          <mxGeometry width="50" height="50" relative="1" as="geometry">
            <mxPoint x="2247" y="2081" as="sourcePoint" />
            <mxPoint x="2297" y="2031" as="targetPoint" />
          </mxGeometry>
        </mxCell>
        <mxCell id="nt-hYRIr4ldOG242e9yD-189" value="description" style="ellipse;whiteSpace=wrap;html=1;align=center;strokeColor=#432D57;fontColor=#ffffff;fillColor=#76608a;movable=0;resizable=0;rotatable=0;deletable=0;editable=0;locked=1;connectable=0;" parent="1" vertex="1">
          <mxGeometry x="3059" y="2123.5" width="100" height="40" as="geometry" />
        </mxCell>
        <mxCell id="nt-hYRIr4ldOG242e9yD-190" value="item-id" style="ellipse;whiteSpace=wrap;html=1;align=center;fontStyle=4;strokeColor=#314354;fontColor=#ffffff;fillColor=#647687;movable=0;resizable=0;rotatable=0;deletable=0;editable=0;locked=1;connectable=0;" parent="1" vertex="1">
          <mxGeometry x="3247" y="2123.5" width="100" height="40" as="geometry" />
        </mxCell>
        <mxCell id="nt-hYRIr4ldOG242e9yD-191" value="quantity" style="ellipse;whiteSpace=wrap;html=1;align=center;strokeColor=#432D57;fontColor=#ffffff;fillColor=#76608a;movable=0;resizable=0;rotatable=0;deletable=0;editable=0;locked=1;connectable=0;" parent="1" vertex="1">
          <mxGeometry x="3097" y="2326.5" width="100" height="40" as="geometry" />
        </mxCell>
        <mxCell id="nt-hYRIr4ldOG242e9yD-192" value="total_price" style="ellipse;whiteSpace=wrap;html=1;align=center;strokeColor=#432D57;fontColor=#ffffff;fillColor=#76608a;movable=0;resizable=0;rotatable=0;deletable=0;editable=0;locked=1;connectable=0;" parent="1" vertex="1">
          <mxGeometry x="3207" y="2326.5" width="100" height="40" as="geometry" />
        </mxCell>
        <mxCell id="nt-hYRIr4ldOG242e9yD-193" value="unit_price" style="ellipse;whiteSpace=wrap;html=1;align=center;strokeColor=#432D57;fontColor=#ffffff;fillColor=#76608a;movable=0;resizable=0;rotatable=0;deletable=0;editable=0;locked=1;connectable=0;" parent="1" vertex="1">
          <mxGeometry x="3148" y="2063.5" width="100" height="40" as="geometry" />
        </mxCell>
        <mxCell id="nt-hYRIr4ldOG242e9yD-194" value="" style="endArrow=none;html=1;rounded=0;strokeColor=#A8201A;fontColor=#143642;fillColor=#FAE5C7;entryX=0.5;entryY=1;entryDx=0;entryDy=0;exitX=0.5;exitY=0;exitDx=0;exitDy=0;movable=0;resizable=0;rotatable=0;deletable=0;editable=0;locked=1;connectable=0;" parent="1" source="nt-hYRIr4ldOG242e9yD-64" target="nt-hYRIr4ldOG242e9yD-193" edge="1">
          <mxGeometry width="50" height="50" relative="1" as="geometry">
            <mxPoint x="3467" y="2233.5" as="sourcePoint" />
            <mxPoint x="3517" y="2183.5" as="targetPoint" />
          </mxGeometry>
        </mxCell>
        <mxCell id="nt-hYRIr4ldOG242e9yD-195" value="" style="endArrow=none;html=1;rounded=0;strokeColor=#A8201A;fontColor=#143642;fillColor=#FAE5C7;exitX=0.5;exitY=0;exitDx=0;exitDy=0;entryX=0.5;entryY=1;entryDx=0;entryDy=0;movable=0;resizable=0;rotatable=0;deletable=0;editable=0;locked=1;connectable=0;" parent="1" source="nt-hYRIr4ldOG242e9yD-64" target="nt-hYRIr4ldOG242e9yD-190" edge="1">
          <mxGeometry width="50" height="50" relative="1" as="geometry">
            <mxPoint x="3467" y="2233.5" as="sourcePoint" />
            <mxPoint x="3517" y="2183.5" as="targetPoint" />
          </mxGeometry>
        </mxCell>
        <mxCell id="nt-hYRIr4ldOG242e9yD-196" value="" style="endArrow=none;html=1;rounded=0;strokeColor=#A8201A;fontColor=#143642;fillColor=#FAE5C7;exitX=0.552;exitY=0.988;exitDx=0;exitDy=0;exitPerimeter=0;movable=0;resizable=0;rotatable=0;deletable=0;editable=0;locked=1;connectable=0;" parent="1" source="nt-hYRIr4ldOG242e9yD-189" edge="1">
          <mxGeometry width="50" height="50" relative="1" as="geometry">
            <mxPoint x="3467" y="2233.5" as="sourcePoint" />
            <mxPoint x="3197" y="2223.5" as="targetPoint" />
          </mxGeometry>
        </mxCell>
        <mxCell id="nt-hYRIr4ldOG242e9yD-197" value="" style="endArrow=none;html=1;rounded=0;strokeColor=#A8201A;fontColor=#143642;fillColor=#FAE5C7;exitX=0.41;exitY=0.029;exitDx=0;exitDy=0;exitPerimeter=0;entryX=0.5;entryY=1;entryDx=0;entryDy=0;movable=0;resizable=0;rotatable=0;deletable=0;editable=0;locked=1;connectable=0;" parent="1" source="nt-hYRIr4ldOG242e9yD-191" target="nt-hYRIr4ldOG242e9yD-64" edge="1">
          <mxGeometry width="50" height="50" relative="1" as="geometry">
            <mxPoint x="3467" y="2233.5" as="sourcePoint" />
            <mxPoint x="3517" y="2183.5" as="targetPoint" />
          </mxGeometry>
        </mxCell>
        <mxCell id="nt-hYRIr4ldOG242e9yD-198" value="" style="endArrow=none;html=1;rounded=0;strokeColor=#A8201A;fontColor=#143642;fillColor=#FAE5C7;exitX=0.5;exitY=1;exitDx=0;exitDy=0;entryX=0.441;entryY=0.087;entryDx=0;entryDy=0;entryPerimeter=0;movable=0;resizable=0;rotatable=0;deletable=0;editable=0;locked=1;connectable=0;" parent="1" source="nt-hYRIr4ldOG242e9yD-64" target="nt-hYRIr4ldOG242e9yD-192" edge="1">
          <mxGeometry width="50" height="50" relative="1" as="geometry">
            <mxPoint x="3467" y="2233.5" as="sourcePoint" />
            <mxPoint x="3517" y="2183.5" as="targetPoint" />
          </mxGeometry>
        </mxCell>
        <mxCell id="nt-hYRIr4ldOG242e9yD-199" value="&lt;span style=&quot;font-size:11.0pt;line-height:107%;&lt;br/&gt;font-family:&amp;quot;Calibri&amp;quot;,sans-serif;mso-ascii-theme-font:minor-latin;mso-fareast-font-family:&lt;br/&gt;Calibri;mso-fareast-theme-font:minor-latin;mso-hansi-theme-font:minor-latin;&lt;br/&gt;mso-bidi-font-family:Arial;mso-bidi-theme-font:minor-bidi;mso-ansi-language:&lt;br/&gt;EN-US;mso-fareast-language:EN-US;mso-bidi-language:AR-SA&quot;&gt;budget_id&amp;nbsp;&lt;/span&gt;" style="ellipse;whiteSpace=wrap;html=1;align=center;fontStyle=4;strokeColor=#314354;fontColor=#ffffff;fillColor=#647687;movable=0;resizable=0;rotatable=0;deletable=0;editable=0;locked=1;connectable=0;" parent="1" vertex="1">
          <mxGeometry x="1760" y="2475" width="100" height="40" as="geometry" />
        </mxCell>
        <mxCell id="nt-hYRIr4ldOG242e9yD-200" value="allocated_amount" style="ellipse;whiteSpace=wrap;html=1;align=center;strokeColor=#432D57;fontColor=#ffffff;fillColor=#76608a;movable=0;resizable=0;rotatable=0;deletable=0;editable=0;locked=1;connectable=0;" parent="1" vertex="1">
          <mxGeometry x="1900" y="2475" width="100" height="40" as="geometry" />
        </mxCell>
        <mxCell id="nt-hYRIr4ldOG242e9yD-201" value="year" style="ellipse;whiteSpace=wrap;html=1;align=center;strokeColor=#432D57;fontColor=#ffffff;fillColor=#76608a;movable=0;resizable=0;rotatable=0;deletable=0;editable=0;locked=1;connectable=0;" parent="1" vertex="1">
          <mxGeometry x="1950" y="2655" width="100" height="40" as="geometry" />
        </mxCell>
        <mxCell id="nt-hYRIr4ldOG242e9yD-202" value="remaining_amount" style="ellipse;whiteSpace=wrap;html=1;align=center;strokeColor=#432D57;fontColor=#ffffff;fillColor=#76608a;movable=0;resizable=0;rotatable=0;deletable=0;editable=0;locked=1;connectable=0;" parent="1" vertex="1">
          <mxGeometry x="1819" y="2705" width="120" height="40" as="geometry" />
        </mxCell>
        <mxCell id="nt-hYRIr4ldOG242e9yD-203" value="spent_amount" style="ellipse;whiteSpace=wrap;html=1;align=center;strokeColor=#432D57;fontColor=#ffffff;fillColor=#76608a;movable=0;resizable=0;rotatable=0;deletable=0;editable=0;locked=1;connectable=0;" parent="1" vertex="1">
          <mxGeometry x="1710" y="2655" width="100" height="40" as="geometry" />
        </mxCell>
        <mxCell id="nt-hYRIr4ldOG242e9yD-204" value="" style="endArrow=none;html=1;rounded=0;strokeColor=#A8201A;fontColor=#143642;fillColor=#FAE5C7;exitX=0.5;exitY=0;exitDx=0;exitDy=0;movable=0;resizable=0;rotatable=0;deletable=0;editable=0;locked=1;connectable=0;" parent="1" source="nt-hYRIr4ldOG242e9yD-65" target="nt-hYRIr4ldOG242e9yD-200" edge="1">
          <mxGeometry width="50" height="50" relative="1" as="geometry">
            <mxPoint x="2040" y="2685" as="sourcePoint" />
            <mxPoint x="2090" y="2635" as="targetPoint" />
          </mxGeometry>
        </mxCell>
        <mxCell id="nt-hYRIr4ldOG242e9yD-205" value="" style="endArrow=none;html=1;rounded=0;strokeColor=#A8201A;fontColor=#143642;fillColor=#FAE5C7;entryX=0.5;entryY=1;entryDx=0;entryDy=0;movable=0;resizable=0;rotatable=0;deletable=0;editable=0;locked=1;connectable=0;" parent="1" target="nt-hYRIr4ldOG242e9yD-199" edge="1">
          <mxGeometry width="50" height="50" relative="1" as="geometry">
            <mxPoint x="1880" y="2565" as="sourcePoint" />
            <mxPoint x="2090" y="2635" as="targetPoint" />
          </mxGeometry>
        </mxCell>
        <mxCell id="nt-hYRIr4ldOG242e9yD-206" value="" style="endArrow=none;html=1;rounded=0;strokeColor=#A8201A;fontColor=#143642;fillColor=#FAE5C7;exitX=0.5;exitY=0;exitDx=0;exitDy=0;movable=0;resizable=0;rotatable=0;deletable=0;editable=0;locked=1;connectable=0;" parent="1" source="nt-hYRIr4ldOG242e9yD-203" edge="1">
          <mxGeometry width="50" height="50" relative="1" as="geometry">
            <mxPoint x="2040" y="2685" as="sourcePoint" />
            <mxPoint x="1880" y="2605" as="targetPoint" />
          </mxGeometry>
        </mxCell>
        <mxCell id="nt-hYRIr4ldOG242e9yD-207" value="" style="endArrow=none;html=1;rounded=0;strokeColor=#A8201A;fontColor=#143642;fillColor=#FAE5C7;exitX=0.5;exitY=0;exitDx=0;exitDy=0;entryX=0.5;entryY=1;entryDx=0;entryDy=0;movable=0;resizable=0;rotatable=0;deletable=0;editable=0;locked=1;connectable=0;" parent="1" source="nt-hYRIr4ldOG242e9yD-202" target="nt-hYRIr4ldOG242e9yD-65" edge="1">
          <mxGeometry width="50" height="50" relative="1" as="geometry">
            <mxPoint x="2040" y="2685" as="sourcePoint" />
            <mxPoint x="2090" y="2635" as="targetPoint" />
          </mxGeometry>
        </mxCell>
        <mxCell id="nt-hYRIr4ldOG242e9yD-208" value="" style="endArrow=none;html=1;rounded=0;strokeColor=#A8201A;fontColor=#143642;fillColor=#FAE5C7;exitX=0.5;exitY=0;exitDx=0;exitDy=0;movable=0;resizable=0;rotatable=0;deletable=0;editable=0;locked=1;connectable=0;" parent="1" source="nt-hYRIr4ldOG242e9yD-201" edge="1">
          <mxGeometry width="50" height="50" relative="1" as="geometry">
            <mxPoint x="1970" y="2695" as="sourcePoint" />
            <mxPoint x="1880" y="2605" as="targetPoint" />
          </mxGeometry>
        </mxCell>
        <mxCell id="nt-hYRIr4ldOG242e9yD-209" value="category-id" style="ellipse;whiteSpace=wrap;html=1;align=center;fontStyle=4;strokeColor=#314354;fontColor=#ffffff;fillColor=#647687;movable=0;resizable=0;rotatable=0;deletable=0;editable=0;locked=1;connectable=0;" parent="1" vertex="1">
          <mxGeometry x="2330" y="2682" width="100" height="40" as="geometry" />
        </mxCell>
        <mxCell id="nt-hYRIr4ldOG242e9yD-210" value="category_name" style="ellipse;whiteSpace=wrap;html=1;align=center;strokeColor=#432D57;fontColor=#ffffff;fillColor=#76608a;movable=0;resizable=0;rotatable=0;deletable=0;editable=0;locked=1;connectable=0;" parent="1" vertex="1">
          <mxGeometry x="2493" y="2686" width="100" height="40" as="geometry" />
        </mxCell>
        <mxCell id="nt-hYRIr4ldOG242e9yD-211" value="" style="endArrow=none;html=1;rounded=0;strokeColor=#A8201A;fontColor=#143642;fillColor=#FAE5C7;exitX=0.5;exitY=0;exitDx=0;exitDy=0;entryX=0.5;entryY=1;entryDx=0;entryDy=0;movable=0;resizable=0;rotatable=0;deletable=0;editable=0;locked=1;connectable=0;" parent="1" source="nt-hYRIr4ldOG242e9yD-209" target="nt-hYRIr4ldOG242e9yD-66" edge="1">
          <mxGeometry width="50" height="50" relative="1" as="geometry">
            <mxPoint x="2990" y="2392" as="sourcePoint" />
            <mxPoint x="3040" y="2342" as="targetPoint" />
          </mxGeometry>
        </mxCell>
        <mxCell id="nt-hYRIr4ldOG242e9yD-212" value="" style="endArrow=none;html=1;rounded=0;strokeColor=#A8201A;fontColor=#143642;fillColor=#FAE5C7;entryX=0.5;entryY=1;entryDx=0;entryDy=0;movable=0;resizable=0;rotatable=0;deletable=0;editable=0;locked=1;connectable=0;" parent="1" source="nt-hYRIr4ldOG242e9yD-210" target="nt-hYRIr4ldOG242e9yD-66" edge="1">
          <mxGeometry width="50" height="50" relative="1" as="geometry">
            <mxPoint x="2990" y="2392" as="sourcePoint" />
            <mxPoint x="3040" y="2342" as="targetPoint" />
          </mxGeometry>
        </mxCell>
        <mxCell id="nt-hYRIr4ldOG242e9yD-213" value="evaluation_id" style="ellipse;whiteSpace=wrap;html=1;align=center;fontStyle=4;strokeColor=#314354;fontColor=#ffffff;fillColor=#647687;movable=0;resizable=0;rotatable=0;deletable=0;editable=0;locked=1;connectable=0;" parent="1" vertex="1">
          <mxGeometry x="3864.5" y="857" width="100" height="40" as="geometry" />
        </mxCell>
        <mxCell id="nt-hYRIr4ldOG242e9yD-214" value="rating" style="ellipse;whiteSpace=wrap;html=1;align=center;strokeColor=#432D57;fontColor=#ffffff;fillColor=#76608a;movable=0;resizable=0;rotatable=0;deletable=0;editable=0;locked=1;connectable=0;" parent="1" vertex="1">
          <mxGeometry x="4045.5" y="857" width="100" height="40" as="geometry" />
        </mxCell>
        <mxCell id="nt-hYRIr4ldOG242e9yD-215" value="feedback" style="ellipse;whiteSpace=wrap;html=1;align=center;strokeColor=#432D57;fontColor=#ffffff;fillColor=#76608a;movable=0;resizable=0;rotatable=0;deletable=0;editable=0;locked=1;connectable=0;" parent="1" vertex="1">
          <mxGeometry x="3956" y="1157" width="100" height="40" as="geometry" />
        </mxCell>
        <mxCell id="nt-hYRIr4ldOG242e9yD-216" value="evaluation_date" style="ellipse;whiteSpace=wrap;html=1;align=center;strokeColor=#432D57;fontColor=#ffffff;fillColor=#76608a;movable=0;resizable=0;rotatable=0;deletable=0;editable=0;locked=1;connectable=0;" parent="1" vertex="1">
          <mxGeometry x="4076" y="1117" width="100" height="40" as="geometry" />
        </mxCell>
        <mxCell id="nt-hYRIr4ldOG242e9yD-217" value="improvement_notes" style="ellipse;whiteSpace=wrap;html=1;align=center;strokeColor=#432D57;fontColor=#ffffff;fillColor=#76608a;movable=0;resizable=0;rotatable=0;deletable=0;editable=0;locked=1;connectable=0;" parent="1" vertex="1">
          <mxGeometry x="3806" y="1117" width="140" height="40" as="geometry" />
        </mxCell>
        <mxCell id="nt-hYRIr4ldOG242e9yD-218" value="" style="endArrow=none;html=1;rounded=0;strokeColor=#A8201A;fontColor=#143642;fillColor=#FAE5C7;exitX=0.5;exitY=0;exitDx=0;exitDy=0;entryX=0.5;entryY=1;entryDx=0;entryDy=0;movable=0;resizable=0;rotatable=0;deletable=0;editable=0;locked=1;connectable=0;" parent="1" source="nt-hYRIr4ldOG242e9yD-215" target="nt-hYRIr4ldOG242e9yD-67" edge="1">
          <mxGeometry width="50" height="50" relative="1" as="geometry">
            <mxPoint x="4236" y="1037" as="sourcePoint" />
            <mxPoint x="4286" y="987" as="targetPoint" />
          </mxGeometry>
        </mxCell>
        <mxCell id="nt-hYRIr4ldOG242e9yD-219" value="" style="endArrow=none;html=1;rounded=0;strokeColor=#A8201A;fontColor=#143642;fillColor=#FAE5C7;entryX=0.5;entryY=1;entryDx=0;entryDy=0;exitX=0.5;exitY=0;exitDx=0;exitDy=0;movable=0;resizable=0;rotatable=0;deletable=0;editable=0;locked=1;connectable=0;" parent="1" source="nt-hYRIr4ldOG242e9yD-216" target="nt-hYRIr4ldOG242e9yD-67" edge="1">
          <mxGeometry width="50" height="50" relative="1" as="geometry">
            <mxPoint x="4236" y="1037" as="sourcePoint" />
            <mxPoint x="4286" y="987" as="targetPoint" />
          </mxGeometry>
        </mxCell>
        <mxCell id="nt-hYRIr4ldOG242e9yD-220" value="" style="endArrow=none;html=1;rounded=0;strokeColor=#A8201A;fontColor=#143642;fillColor=#FAE5C7;exitX=0.5;exitY=0;exitDx=0;exitDy=0;entryX=0.5;entryY=1;entryDx=0;entryDy=0;movable=0;resizable=0;rotatable=0;deletable=0;editable=0;locked=1;connectable=0;" parent="1" source="nt-hYRIr4ldOG242e9yD-217" target="nt-hYRIr4ldOG242e9yD-67" edge="1">
          <mxGeometry width="50" height="50" relative="1" as="geometry">
            <mxPoint x="4236" y="1037" as="sourcePoint" />
            <mxPoint x="4286" y="987" as="targetPoint" />
          </mxGeometry>
        </mxCell>
        <mxCell id="nt-hYRIr4ldOG242e9yD-221" value="" style="endArrow=none;html=1;rounded=0;strokeColor=#A8201A;fontColor=#143642;fillColor=#FAE5C7;entryX=0.5;entryY=1;entryDx=0;entryDy=0;exitX=0.5;exitY=0;exitDx=0;exitDy=0;movable=0;resizable=0;rotatable=0;deletable=0;editable=0;locked=1;connectable=0;" parent="1" source="nt-hYRIr4ldOG242e9yD-67" target="nt-hYRIr4ldOG242e9yD-214" edge="1">
          <mxGeometry width="50" height="50" relative="1" as="geometry">
            <mxPoint x="3426" y="1207" as="sourcePoint" />
            <mxPoint x="3476" y="1157" as="targetPoint" />
          </mxGeometry>
        </mxCell>
        <mxCell id="nt-hYRIr4ldOG242e9yD-222" value="" style="endArrow=none;html=1;rounded=0;strokeColor=#A8201A;fontColor=#143642;fillColor=#FAE5C7;entryX=0.5;entryY=1;entryDx=0;entryDy=0;exitX=0.5;exitY=0;exitDx=0;exitDy=0;movable=0;resizable=0;rotatable=0;deletable=0;editable=0;locked=1;connectable=0;" parent="1" source="nt-hYRIr4ldOG242e9yD-67" target="nt-hYRIr4ldOG242e9yD-213" edge="1">
          <mxGeometry width="50" height="50" relative="1" as="geometry">
            <mxPoint x="3426" y="1207" as="sourcePoint" />
            <mxPoint x="3476" y="1157" as="targetPoint" />
          </mxGeometry>
        </mxCell>
        <mxCell id="nt-hYRIr4ldOG242e9yD-223" value="message" style="ellipse;whiteSpace=wrap;html=1;align=center;strokeColor=#432D57;fontColor=#ffffff;fillColor=#76608a;movable=0;resizable=0;rotatable=0;deletable=0;editable=0;locked=1;connectable=0;" parent="1" vertex="1">
          <mxGeometry x="3053" y="460" width="100" height="40" as="geometry" />
        </mxCell>
        <mxCell id="nt-hYRIr4ldOG242e9yD-224" value="notification_type" style="ellipse;whiteSpace=wrap;html=1;align=center;strokeColor=#432D57;fontColor=#ffffff;fillColor=#76608a;movable=0;resizable=0;rotatable=0;deletable=0;editable=0;locked=1;connectable=0;" parent="1" vertex="1">
          <mxGeometry x="3364" y="460" width="100" height="40" as="geometry" />
        </mxCell>
        <mxCell id="nt-hYRIr4ldOG242e9yD-225" value="read_status" style="ellipse;whiteSpace=wrap;html=1;align=center;strokeColor=#432D57;fontColor=#ffffff;fillColor=#76608a;movable=0;resizable=0;rotatable=0;deletable=0;editable=0;locked=1;connectable=0;" parent="1" vertex="1">
          <mxGeometry x="3104" y="523" width="100" height="40" as="geometry" />
        </mxCell>
        <mxCell id="nt-hYRIr4ldOG242e9yD-226" value="date" style="ellipse;whiteSpace=wrap;html=1;align=center;strokeColor=#432D57;fontColor=#ffffff;fillColor=#76608a;movable=0;resizable=0;rotatable=0;deletable=0;editable=0;locked=1;connectable=0;" parent="1" vertex="1">
          <mxGeometry x="3324" y="520" width="100" height="40" as="geometry" />
        </mxCell>
        <mxCell id="nt-hYRIr4ldOG242e9yD-227" value="notification_id" style="ellipse;whiteSpace=wrap;html=1;align=center;fontStyle=4;strokeColor=#314354;fontColor=#ffffff;fillColor=#647687;movable=0;resizable=0;rotatable=0;deletable=0;editable=0;locked=1;connectable=0;" parent="1" vertex="1">
          <mxGeometry x="3205" y="563" width="100" height="40" as="geometry" />
        </mxCell>
        <mxCell id="nt-hYRIr4ldOG242e9yD-228" value="" style="endArrow=none;html=1;rounded=0;strokeColor=#A8201A;fontColor=#143642;fillColor=#FAE5C7;exitX=0.5;exitY=0;exitDx=0;exitDy=0;entryX=0.5;entryY=1;entryDx=0;entryDy=0;movable=0;resizable=0;rotatable=0;deletable=0;editable=0;locked=1;connectable=0;" parent="1" source="nt-hYRIr4ldOG242e9yD-227" target="nt-hYRIr4ldOG242e9yD-69" edge="1">
          <mxGeometry width="50" height="50" relative="1" as="geometry">
            <mxPoint x="3214" y="410" as="sourcePoint" />
            <mxPoint x="3264" y="360" as="targetPoint" />
          </mxGeometry>
        </mxCell>
        <mxCell id="nt-hYRIr4ldOG242e9yD-229" value="" style="endArrow=none;html=1;rounded=0;strokeColor=#A8201A;fontColor=#143642;fillColor=#FAE5C7;entryX=0.5;entryY=1;entryDx=0;entryDy=0;movable=0;resizable=0;rotatable=0;deletable=0;editable=0;locked=1;connectable=0;" parent="1" source="nt-hYRIr4ldOG242e9yD-225" target="nt-hYRIr4ldOG242e9yD-69" edge="1">
          <mxGeometry width="50" height="50" relative="1" as="geometry">
            <mxPoint x="3244" y="570" as="sourcePoint" />
            <mxPoint x="3294" y="520" as="targetPoint" />
          </mxGeometry>
        </mxCell>
        <mxCell id="nt-hYRIr4ldOG242e9yD-230" value="" style="endArrow=none;html=1;rounded=0;strokeColor=#A8201A;fontColor=#143642;fillColor=#FAE5C7;entryX=0.5;entryY=1;entryDx=0;entryDy=0;exitX=1;exitY=0;exitDx=0;exitDy=0;movable=0;resizable=0;rotatable=0;deletable=0;editable=0;locked=1;connectable=0;" parent="1" target="nt-hYRIr4ldOG242e9yD-69" edge="1">
          <mxGeometry width="50" height="50" relative="1" as="geometry">
            <mxPoint x="3139.1455206038836" y="465.77443213652396" as="sourcePoint" />
            <mxPoint x="3294" y="520" as="targetPoint" />
          </mxGeometry>
        </mxCell>
        <mxCell id="nt-hYRIr4ldOG242e9yD-231" value="" style="endArrow=none;html=1;rounded=0;strokeColor=#A8201A;fontColor=#143642;fillColor=#FAE5C7;entryX=0.5;entryY=1;entryDx=0;entryDy=0;movable=0;resizable=0;rotatable=0;deletable=0;editable=0;locked=1;connectable=0;" parent="1" source="nt-hYRIr4ldOG242e9yD-226" target="nt-hYRIr4ldOG242e9yD-69" edge="1">
          <mxGeometry width="50" height="50" relative="1" as="geometry">
            <mxPoint x="3244" y="570" as="sourcePoint" />
            <mxPoint x="3294" y="520" as="targetPoint" />
          </mxGeometry>
        </mxCell>
        <mxCell id="nt-hYRIr4ldOG242e9yD-232" value="" style="endArrow=none;html=1;rounded=0;strokeColor=#A8201A;fontColor=#143642;fillColor=#FAE5C7;entryX=0.5;entryY=1;entryDx=0;entryDy=0;movable=0;resizable=0;rotatable=0;deletable=0;editable=0;locked=1;connectable=0;" parent="1" source="nt-hYRIr4ldOG242e9yD-224" target="nt-hYRIr4ldOG242e9yD-69" edge="1">
          <mxGeometry width="50" height="50" relative="1" as="geometry">
            <mxPoint x="3244" y="570" as="sourcePoint" />
            <mxPoint x="3294" y="520" as="targetPoint" />
          </mxGeometry>
        </mxCell>
        <mxCell id="nt-hYRIr4ldOG242e9yD-233" value="audit_id" style="ellipse;whiteSpace=wrap;html=1;align=center;fontStyle=4;strokeColor=#314354;fontColor=#ffffff;fillColor=#647687;movable=0;resizable=0;rotatable=0;deletable=0;editable=0;locked=1;connectable=0;" parent="1" vertex="1">
          <mxGeometry x="2200" y="1183" width="100" height="40" as="geometry" />
        </mxCell>
        <mxCell id="nt-hYRIr4ldOG242e9yD-234" value="audit_date" style="ellipse;whiteSpace=wrap;html=1;align=center;strokeColor=#432D57;fontColor=#ffffff;fillColor=#76608a;movable=0;resizable=0;rotatable=0;deletable=0;editable=0;locked=1;connectable=0;" parent="1" vertex="1">
          <mxGeometry x="1870" y="1183" width="100" height="40" as="geometry" />
        </mxCell>
        <mxCell id="nt-hYRIr4ldOG242e9yD-235" value="audit_results" style="ellipse;whiteSpace=wrap;html=1;align=center;strokeColor=#432D57;fontColor=#ffffff;fillColor=#76608a;movable=0;resizable=0;rotatable=0;deletable=0;editable=0;locked=1;connectable=0;" parent="1" vertex="1">
          <mxGeometry x="1930" y="1253" width="90" height="40" as="geometry" />
        </mxCell>
        <mxCell id="nt-hYRIr4ldOG242e9yD-236" value="non_compliance_issues" style="ellipse;whiteSpace=wrap;html=1;align=center;strokeColor=#432D57;fontColor=#ffffff;fillColor=#76608a;movable=0;resizable=0;rotatable=0;deletable=0;editable=0;locked=1;connectable=0;" parent="1" vertex="1">
          <mxGeometry x="1990" y="1302" width="160" height="40" as="geometry" />
        </mxCell>
        <mxCell id="nt-hYRIr4ldOG242e9yD-237" value="audit_report" style="ellipse;whiteSpace=wrap;html=1;align=center;strokeColor=#432D57;fontColor=#ffffff;fillColor=#76608a;movable=0;resizable=0;rotatable=0;deletable=0;editable=0;locked=1;connectable=0;" parent="1" vertex="1">
          <mxGeometry x="2150" y="1253" width="100" height="40" as="geometry" />
        </mxCell>
        <mxCell id="nt-hYRIr4ldOG242e9yD-238" value="" style="endArrow=none;html=1;rounded=0;strokeColor=#A8201A;fontColor=#143642;fillColor=#FAE5C7;exitX=0.5;exitY=0;exitDx=0;exitDy=0;entryX=0.5;entryY=1;entryDx=0;entryDy=0;movable=0;resizable=0;rotatable=0;deletable=0;editable=0;locked=1;connectable=0;" parent="1" source="nt-hYRIr4ldOG242e9yD-236" target="nt-hYRIr4ldOG242e9yD-68" edge="1">
          <mxGeometry width="50" height="50" relative="1" as="geometry">
            <mxPoint x="2400" y="1443" as="sourcePoint" />
            <mxPoint x="2450" y="1393" as="targetPoint" />
          </mxGeometry>
        </mxCell>
        <mxCell id="nt-hYRIr4ldOG242e9yD-239" value="" style="endArrow=none;html=1;rounded=0;strokeColor=#A8201A;fontColor=#143642;fillColor=#FAE5C7;exitX=0.5;exitY=0;exitDx=0;exitDy=0;entryX=0.5;entryY=1;entryDx=0;entryDy=0;movable=0;resizable=0;rotatable=0;deletable=0;editable=0;locked=1;connectable=0;" parent="1" source="nt-hYRIr4ldOG242e9yD-235" target="nt-hYRIr4ldOG242e9yD-68" edge="1">
          <mxGeometry width="50" height="50" relative="1" as="geometry">
            <mxPoint x="2400" y="1443" as="sourcePoint" />
            <mxPoint x="2450" y="1393" as="targetPoint" />
          </mxGeometry>
        </mxCell>
        <mxCell id="nt-hYRIr4ldOG242e9yD-240" value="" style="endArrow=none;html=1;rounded=0;strokeColor=#A8201A;fontColor=#143642;fillColor=#FAE5C7;exitX=0.5;exitY=0;exitDx=0;exitDy=0;entryX=0.5;entryY=1;entryDx=0;entryDy=0;movable=0;resizable=0;rotatable=0;deletable=0;editable=0;locked=1;connectable=0;" parent="1" source="nt-hYRIr4ldOG242e9yD-234" target="nt-hYRIr4ldOG242e9yD-68" edge="1">
          <mxGeometry width="50" height="50" relative="1" as="geometry">
            <mxPoint x="2400" y="1443" as="sourcePoint" />
            <mxPoint x="2450" y="1393" as="targetPoint" />
          </mxGeometry>
        </mxCell>
        <mxCell id="nt-hYRIr4ldOG242e9yD-241" value="" style="endArrow=none;html=1;rounded=0;strokeColor=#A8201A;fontColor=#143642;fillColor=#FAE5C7;entryX=0.5;entryY=1;entryDx=0;entryDy=0;exitX=0.5;exitY=0;exitDx=0;exitDy=0;movable=0;resizable=0;rotatable=0;deletable=0;editable=0;locked=1;connectable=0;" parent="1" source="nt-hYRIr4ldOG242e9yD-237" target="nt-hYRIr4ldOG242e9yD-68" edge="1">
          <mxGeometry width="50" height="50" relative="1" as="geometry">
            <mxPoint x="2400" y="1443" as="sourcePoint" />
            <mxPoint x="2450" y="1393" as="targetPoint" />
          </mxGeometry>
        </mxCell>
        <mxCell id="nt-hYRIr4ldOG242e9yD-242" value="" style="endArrow=none;html=1;rounded=0;strokeColor=#A8201A;fontColor=#143642;fillColor=#FAE5C7;entryX=0.5;entryY=1;entryDx=0;entryDy=0;exitX=0.412;exitY=0.065;exitDx=0;exitDy=0;exitPerimeter=0;movable=0;resizable=0;rotatable=0;deletable=0;editable=0;locked=1;connectable=0;" parent="1" source="nt-hYRIr4ldOG242e9yD-233" target="nt-hYRIr4ldOG242e9yD-68" edge="1">
          <mxGeometry width="50" height="50" relative="1" as="geometry">
            <mxPoint x="2400" y="1443" as="sourcePoint" />
            <mxPoint x="2450" y="1393" as="targetPoint" />
          </mxGeometry>
        </mxCell>
        <mxCell id="nt-hYRIr4ldOG242e9yD-243" value="audit_trail_id" style="ellipse;whiteSpace=wrap;html=1;align=center;fontStyle=4;strokeColor=#314354;fontColor=#ffffff;fillColor=#647687;movable=0;resizable=0;rotatable=0;deletable=0;editable=0;locked=1;connectable=0;" parent="1" vertex="1">
          <mxGeometry x="1621.25" y="499" width="100" height="40" as="geometry" />
        </mxCell>
        <mxCell id="nt-hYRIr4ldOG242e9yD-244" value="old_data" style="ellipse;whiteSpace=wrap;html=1;align=center;strokeColor=#432D57;fontColor=#ffffff;fillColor=#76608a;movable=0;resizable=0;rotatable=0;deletable=0;editable=0;locked=1;connectable=0;" parent="1" vertex="1">
          <mxGeometry x="1723.75" y="650" width="100" height="40" as="geometry" />
        </mxCell>
        <mxCell id="nt-hYRIr4ldOG242e9yD-245" value="action_timestamp" style="ellipse;whiteSpace=wrap;html=1;align=center;strokeColor=#432D57;fontColor=#ffffff;fillColor=#76608a;movable=0;resizable=0;rotatable=0;deletable=0;editable=0;locked=1;connectable=0;" parent="1" vertex="1">
          <mxGeometry x="1882.75" y="569" width="120" height="40" as="geometry" />
        </mxCell>
        <mxCell id="nt-hYRIr4ldOG242e9yD-246" value="entity" style="ellipse;whiteSpace=wrap;html=1;align=center;strokeColor=#432D57;fontColor=#ffffff;fillColor=#76608a;movable=0;resizable=0;rotatable=0;deletable=0;editable=0;locked=1;connectable=0;" parent="1" vertex="1">
          <mxGeometry x="1656.75" y="569" width="100" height="40" as="geometry" />
        </mxCell>
        <mxCell id="nt-hYRIr4ldOG242e9yD-247" value="&lt;code&gt;action&lt;/code&gt;" style="ellipse;whiteSpace=wrap;html=1;align=center;strokeColor=#432D57;fontColor=#ffffff;fillColor=#76608a;movable=0;resizable=0;rotatable=0;deletable=0;editable=0;locked=1;connectable=0;" parent="1" vertex="1">
          <mxGeometry x="1938.75" y="499" width="100" height="40" as="geometry" />
        </mxCell>
        <mxCell id="nt-hYRIr4ldOG242e9yD-248" value="new_data" style="ellipse;whiteSpace=wrap;html=1;align=center;strokeColor=#432D57;fontColor=#ffffff;fillColor=#76608a;movable=0;resizable=0;rotatable=0;deletable=0;editable=0;locked=1;connectable=0;" parent="1" vertex="1">
          <mxGeometry x="1838.75" y="649" width="100" height="40" as="geometry" />
        </mxCell>
        <mxCell id="nt-hYRIr4ldOG242e9yD-249" value="" style="endArrow=none;html=1;rounded=0;strokeColor=#A8201A;fontColor=#143642;fillColor=#FAE5C7;entryX=0.5;entryY=1;entryDx=0;entryDy=0;movable=0;resizable=0;rotatable=0;deletable=0;editable=0;locked=1;connectable=0;" parent="1" source="nt-hYRIr4ldOG242e9yD-243" target="nt-hYRIr4ldOG242e9yD-70" edge="1">
          <mxGeometry width="50" height="50" relative="1" as="geometry">
            <mxPoint x="1332.75" y="539" as="sourcePoint" />
            <mxPoint x="1382.75" y="489" as="targetPoint" />
          </mxGeometry>
        </mxCell>
        <mxCell id="nt-hYRIr4ldOG242e9yD-250" value="" style="endArrow=none;html=1;rounded=0;strokeColor=#A8201A;fontColor=#143642;fillColor=#FAE5C7;entryX=0.5;entryY=1;entryDx=0;entryDy=0;exitX=0.614;exitY=0.102;exitDx=0;exitDy=0;exitPerimeter=0;movable=0;resizable=0;rotatable=0;deletable=0;editable=0;locked=1;connectable=0;" parent="1" source="nt-hYRIr4ldOG242e9yD-246" target="nt-hYRIr4ldOG242e9yD-70" edge="1">
          <mxGeometry width="50" height="50" relative="1" as="geometry">
            <mxPoint x="1332.75" y="539" as="sourcePoint" />
            <mxPoint x="1382.75" y="489" as="targetPoint" />
          </mxGeometry>
        </mxCell>
        <mxCell id="nt-hYRIr4ldOG242e9yD-251" value="" style="endArrow=none;html=1;rounded=0;strokeColor=#A8201A;fontColor=#143642;fillColor=#FAE5C7;exitX=0.5;exitY=0;exitDx=0;exitDy=0;entryX=0.5;entryY=1;entryDx=0;entryDy=0;movable=0;resizable=0;rotatable=0;deletable=0;editable=0;locked=1;connectable=0;" parent="1" source="nt-hYRIr4ldOG242e9yD-244" target="nt-hYRIr4ldOG242e9yD-70" edge="1">
          <mxGeometry width="50" height="50" relative="1" as="geometry">
            <mxPoint x="1512.75" y="539" as="sourcePoint" />
            <mxPoint x="1562.75" y="489" as="targetPoint" />
          </mxGeometry>
        </mxCell>
        <mxCell id="nt-hYRIr4ldOG242e9yD-252" value="" style="endArrow=none;html=1;rounded=0;strokeColor=#A8201A;fontColor=#143642;fillColor=#FAE5C7;exitX=0.5;exitY=0;exitDx=0;exitDy=0;movable=0;resizable=0;rotatable=0;deletable=0;editable=0;locked=1;connectable=0;" parent="1" source="nt-hYRIr4ldOG242e9yD-248" edge="1">
          <mxGeometry width="50" height="50" relative="1" as="geometry">
            <mxPoint x="1512.75" y="539" as="sourcePoint" />
            <mxPoint x="1822.75" y="449" as="targetPoint" />
          </mxGeometry>
        </mxCell>
        <mxCell id="nt-hYRIr4ldOG242e9yD-253" value="" style="endArrow=none;html=1;rounded=0;strokeColor=#A8201A;fontColor=#143642;fillColor=#FAE5C7;exitX=0.414;exitY=-0.009;exitDx=0;exitDy=0;exitPerimeter=0;entryX=0.5;entryY=1;entryDx=0;entryDy=0;movable=0;resizable=0;rotatable=0;deletable=0;editable=0;locked=1;connectable=0;" parent="1" source="nt-hYRIr4ldOG242e9yD-245" target="nt-hYRIr4ldOG242e9yD-70" edge="1">
          <mxGeometry width="50" height="50" relative="1" as="geometry">
            <mxPoint x="1512.75" y="539" as="sourcePoint" />
            <mxPoint x="1562.75" y="489" as="targetPoint" />
          </mxGeometry>
        </mxCell>
        <mxCell id="nt-hYRIr4ldOG242e9yD-254" value="" style="endArrow=none;html=1;rounded=0;strokeColor=#A8201A;fontColor=#143642;fillColor=#FAE5C7;exitX=0.5;exitY=0;exitDx=0;exitDy=0;entryX=0.419;entryY=0.95;entryDx=0;entryDy=0;entryPerimeter=0;movable=0;resizable=0;rotatable=0;deletable=0;editable=0;locked=1;connectable=0;" parent="1" source="nt-hYRIr4ldOG242e9yD-247" target="nt-hYRIr4ldOG242e9yD-70" edge="1">
          <mxGeometry width="50" height="50" relative="1" as="geometry">
            <mxPoint x="1512.75" y="539" as="sourcePoint" />
            <mxPoint x="1562.75" y="489" as="targetPoint" />
          </mxGeometry>
        </mxCell>
        <mxCell id="nt-hYRIr4ldOG242e9yD-287" value="" style="endArrow=none;html=1;rounded=0;fillColor=#e51400;strokeColor=#B20000;exitX=0;exitY=0.5;exitDx=0;exitDy=0;movable=0;resizable=0;rotatable=0;deletable=0;editable=0;locked=1;connectable=0;" parent="1" source="nt-hYRIr4ldOG242e9yD-87" target="nt-hYRIr4ldOG242e9yD-18" edge="1">
          <mxGeometry relative="1" as="geometry">
            <mxPoint x="1740" y="810" as="sourcePoint" />
            <mxPoint x="1640" y="870" as="targetPoint" />
          </mxGeometry>
        </mxCell>
        <mxCell id="nt-hYRIr4ldOG242e9yD-288" value="" style="resizable=0;html=1;whiteSpace=wrap;align=right;verticalAlign=bottom;movable=0;rotatable=0;deletable=0;editable=0;locked=1;connectable=0;" parent="nt-hYRIr4ldOG242e9yD-287" connectable="0" vertex="1">
          <mxGeometry x="1" relative="1" as="geometry" />
        </mxCell>
        <mxCell id="nt-hYRIr4ldOG242e9yD-289" value="" style="endArrow=none;html=1;rounded=0;entryX=0;entryY=0.5;entryDx=0;entryDy=0;exitX=1;exitY=0.5;exitDx=0;exitDy=0;movable=0;resizable=0;rotatable=0;deletable=0;editable=0;locked=1;connectable=0;" parent="1" source="nt-hYRIr4ldOG242e9yD-87" target="nt-hYRIr4ldOG242e9yD-1" edge="1">
          <mxGeometry relative="1" as="geometry">
            <mxPoint x="1930" y="810" as="sourcePoint" />
            <mxPoint x="2290" y="830" as="targetPoint" />
          </mxGeometry>
        </mxCell>
        <mxCell id="nt-hYRIr4ldOG242e9yD-290" value="" style="resizable=0;html=1;whiteSpace=wrap;align=right;verticalAlign=bottom;movable=0;rotatable=0;deletable=0;editable=0;locked=1;connectable=0;" parent="nt-hYRIr4ldOG242e9yD-289" connectable="0" vertex="1">
          <mxGeometry x="1" relative="1" as="geometry" />
        </mxCell>
        <mxCell id="nt-hYRIr4ldOG242e9yD-292" value="has many" style="rhombus;whiteSpace=wrap;html=1;fillColor=#bac8d3;strokeColor=#23445d;fontColor=#000000;movable=0;resizable=0;rotatable=0;deletable=0;editable=0;locked=1;connectable=0;" parent="1" vertex="1">
          <mxGeometry x="3133" y="770" width="80" height="80" as="geometry" />
        </mxCell>
        <mxCell id="nt-hYRIr4ldOG242e9yD-293" value="" style="endArrow=none;html=1;rounded=0;entryX=1;entryY=0.5;entryDx=0;entryDy=0;exitX=0;exitY=0.5;exitDx=0;exitDy=0;movable=0;resizable=0;rotatable=0;deletable=0;editable=0;locked=1;connectable=0;" parent="1" source="nt-hYRIr4ldOG242e9yD-292" target="nt-hYRIr4ldOG242e9yD-1" edge="1">
          <mxGeometry relative="1" as="geometry">
            <mxPoint x="2940" y="830" as="sourcePoint" />
            <mxPoint x="3100" y="830" as="targetPoint" />
          </mxGeometry>
        </mxCell>
        <mxCell id="nt-hYRIr4ldOG242e9yD-294" value="" style="resizable=0;html=1;whiteSpace=wrap;align=right;verticalAlign=bottom;movable=0;rotatable=0;deletable=0;editable=0;locked=1;connectable=0;" parent="nt-hYRIr4ldOG242e9yD-293" connectable="0" vertex="1">
          <mxGeometry x="1" relative="1" as="geometry" />
        </mxCell>
        <mxCell id="nt-hYRIr4ldOG242e9yD-295" value="" style="shape=link;html=1;rounded=0;exitX=1;exitY=0.5;exitDx=0;exitDy=0;entryX=0;entryY=0.5;entryDx=0;entryDy=0;movable=0;resizable=0;rotatable=0;deletable=0;editable=0;locked=1;connectable=0;" parent="1" source="nt-hYRIr4ldOG242e9yD-292" target="nt-hYRIr4ldOG242e9yD-28" edge="1">
          <mxGeometry relative="1" as="geometry">
            <mxPoint x="3223" y="814.47" as="sourcePoint" />
            <mxPoint x="3383" y="814.47" as="targetPoint" />
          </mxGeometry>
        </mxCell>
        <mxCell id="nt-hYRIr4ldOG242e9yD-296" value="" style="resizable=0;html=1;whiteSpace=wrap;align=right;verticalAlign=bottom;movable=0;rotatable=0;deletable=0;editable=0;locked=1;connectable=0;" parent="nt-hYRIr4ldOG242e9yD-295" connectable="0" vertex="1">
          <mxGeometry x="1" relative="1" as="geometry" />
        </mxCell>
        <mxCell id="nt-hYRIr4ldOG242e9yD-297" value="has a&amp;nbsp;" style="rhombus;whiteSpace=wrap;html=1;fillColor=#bac8d3;strokeColor=#23445d;fontColor=#000000;movable=0;resizable=0;rotatable=0;deletable=0;editable=0;locked=1;connectable=0;" parent="1" vertex="1">
          <mxGeometry x="2575" y="998" width="80" height="80" as="geometry" />
        </mxCell>
        <mxCell id="nt-hYRIr4ldOG242e9yD-298" value="" style="endArrow=none;html=1;rounded=0;exitX=0.5;exitY=0;exitDx=0;exitDy=0;entryX=0.5;entryY=1;entryDx=0;entryDy=0;movable=0;resizable=0;rotatable=0;deletable=0;editable=0;locked=1;connectable=0;" parent="1" source="nt-hYRIr4ldOG242e9yD-297" target="nt-hYRIr4ldOG242e9yD-1" edge="1">
          <mxGeometry relative="1" as="geometry">
            <mxPoint x="2650" y="950" as="sourcePoint" />
            <mxPoint x="2650" y="920" as="targetPoint" />
          </mxGeometry>
        </mxCell>
        <mxCell id="nt-hYRIr4ldOG242e9yD-299" value="" style="resizable=0;html=1;whiteSpace=wrap;align=right;verticalAlign=bottom;movable=0;rotatable=0;deletable=0;editable=0;locked=1;connectable=0;" parent="nt-hYRIr4ldOG242e9yD-298" connectable="0" vertex="1">
          <mxGeometry x="1" relative="1" as="geometry" />
        </mxCell>
        <mxCell id="nt-hYRIr4ldOG242e9yD-300" value="" style="endArrow=none;html=1;rounded=0;exitX=1;exitY=0.5;exitDx=0;exitDy=0;entryX=-0.004;entryY=0.666;entryDx=0;entryDy=0;entryPerimeter=0;movable=0;resizable=0;rotatable=0;deletable=0;editable=0;locked=1;connectable=0;" parent="1" source="nt-hYRIr4ldOG242e9yD-297" target="nt-hYRIr4ldOG242e9yD-34" edge="1">
          <mxGeometry relative="1" as="geometry">
            <mxPoint x="2670" y="1037" as="sourcePoint" />
            <mxPoint x="2830" y="1037" as="targetPoint" />
            <Array as="points" />
          </mxGeometry>
        </mxCell>
        <mxCell id="nt-hYRIr4ldOG242e9yD-301" value="" style="resizable=0;html=1;whiteSpace=wrap;align=right;verticalAlign=bottom;movable=0;rotatable=0;deletable=0;editable=0;locked=1;connectable=0;" parent="nt-hYRIr4ldOG242e9yD-300" connectable="0" vertex="1">
          <mxGeometry x="1" relative="1" as="geometry" />
        </mxCell>
        <mxCell id="nt-hYRIr4ldOG242e9yD-302" value="" style="group;rotation=0;movable=0;resizable=0;rotatable=0;deletable=0;editable=0;locked=1;connectable=0;" parent="1" vertex="1" connectable="0">
          <mxGeometry x="2450" y="1152" width="350" height="200" as="geometry" />
        </mxCell>
        <mxCell id="nt-hYRIr4ldOG242e9yD-39" value="Compliance Certification" style="whiteSpace=wrap;html=1;align=center;movable=0;resizable=0;rotatable=0;deletable=0;editable=0;locked=1;connectable=0;fillStyle=auto;fillColor=#6d8764;strokeColor=#3A5431;labelBackgroundColor=none;fontColor=#ffffff;rotation=0;" parent="nt-hYRIr4ldOG242e9yD-302" vertex="1">
          <mxGeometry x="70" y="160" width="170" height="40" as="geometry" />
        </mxCell>
        <mxCell id="nt-hYRIr4ldOG242e9yD-40" value="certification_name" style="ellipse;whiteSpace=wrap;html=1;align=center;movable=0;resizable=0;rotatable=0;deletable=0;editable=0;locked=1;connectable=0;fillStyle=auto;fillColor=#76608a;strokeColor=#432D57;labelBackgroundColor=none;fontColor=#ffffff;rotation=0;" parent="nt-hYRIr4ldOG242e9yD-302" vertex="1">
          <mxGeometry x="230" y="53" width="120" height="40" as="geometry" />
        </mxCell>
        <mxCell id="nt-hYRIr4ldOG242e9yD-41" value="certification_id " style="ellipse;whiteSpace=wrap;html=1;align=center;fontStyle=4;movable=0;resizable=0;rotatable=0;deletable=0;editable=0;locked=1;connectable=0;fillStyle=auto;fillColor=#647687;strokeColor=#314354;labelBackgroundColor=none;fontColor=#ffffff;rotation=0;" parent="nt-hYRIr4ldOG242e9yD-302" vertex="1">
          <mxGeometry y="53" width="100" height="40" as="geometry" />
        </mxCell>
        <mxCell id="nt-hYRIr4ldOG242e9yD-42" value="issued_by" style="ellipse;whiteSpace=wrap;html=1;align=center;movable=0;resizable=0;rotatable=0;deletable=0;editable=0;locked=1;connectable=0;fillStyle=auto;fillColor=#76608a;strokeColor=#432D57;labelBackgroundColor=none;fontColor=#ffffff;rotation=0;" parent="nt-hYRIr4ldOG242e9yD-302" vertex="1">
          <mxGeometry x="180" width="100" height="40" as="geometry" />
        </mxCell>
        <mxCell id="nt-hYRIr4ldOG242e9yD-43" value="issue_date" style="ellipse;whiteSpace=wrap;html=1;align=center;movable=0;resizable=0;rotatable=0;deletable=0;editable=0;locked=1;connectable=0;fillStyle=auto;fillColor=#76608a;strokeColor=#432D57;labelBackgroundColor=none;fontColor=#ffffff;rotation=0;" parent="nt-hYRIr4ldOG242e9yD-302" vertex="1">
          <mxGeometry x="50" width="100" height="40" as="geometry" />
        </mxCell>
        <mxCell id="nt-hYRIr4ldOG242e9yD-120" value="" style="endArrow=none;html=1;rounded=0;strokeColor=#A8201A;fontColor=#143642;fillColor=#FAE5C7;entryX=0.5;entryY=1;entryDx=0;entryDy=0;exitX=0.5;exitY=0;exitDx=0;exitDy=0;movable=0;resizable=0;rotatable=0;deletable=0;editable=0;locked=1;connectable=0;" parent="nt-hYRIr4ldOG242e9yD-302" source="nt-hYRIr4ldOG242e9yD-39" target="nt-hYRIr4ldOG242e9yD-43" edge="1">
          <mxGeometry width="50" height="50" relative="1" as="geometry">
            <mxPoint x="290" y="220" as="sourcePoint" />
            <mxPoint x="340" y="170" as="targetPoint" />
          </mxGeometry>
        </mxCell>
        <mxCell id="nt-hYRIr4ldOG242e9yD-121" value="" style="endArrow=none;html=1;rounded=0;strokeColor=#A8201A;fontColor=#143642;fillColor=#FAE5C7;entryX=0.426;entryY=1;entryDx=0;entryDy=0;entryPerimeter=0;exitX=0.5;exitY=0;exitDx=0;exitDy=0;movable=0;resizable=0;rotatable=0;deletable=0;editable=0;locked=1;connectable=0;" parent="nt-hYRIr4ldOG242e9yD-302" source="nt-hYRIr4ldOG242e9yD-39" target="nt-hYRIr4ldOG242e9yD-42" edge="1">
          <mxGeometry width="50" height="50" relative="1" as="geometry">
            <mxPoint x="290" y="220" as="sourcePoint" />
            <mxPoint x="340" y="170" as="targetPoint" />
          </mxGeometry>
        </mxCell>
        <mxCell id="nt-hYRIr4ldOG242e9yD-122" value="" style="endArrow=none;html=1;rounded=0;strokeColor=#A8201A;fontColor=#143642;fillColor=#FAE5C7;entryX=0.5;entryY=1;entryDx=0;entryDy=0;exitX=0.5;exitY=0;exitDx=0;exitDy=0;movable=0;resizable=0;rotatable=0;deletable=0;editable=0;locked=1;connectable=0;" parent="nt-hYRIr4ldOG242e9yD-302" source="nt-hYRIr4ldOG242e9yD-39" target="nt-hYRIr4ldOG242e9yD-41" edge="1">
          <mxGeometry width="50" height="50" relative="1" as="geometry">
            <mxPoint x="290" y="220" as="sourcePoint" />
            <mxPoint x="340" y="170" as="targetPoint" />
          </mxGeometry>
        </mxCell>
        <mxCell id="nt-hYRIr4ldOG242e9yD-123" value="" style="endArrow=none;html=1;rounded=0;strokeColor=#A8201A;fontColor=#143642;fillColor=#FAE5C7;exitX=0.5;exitY=0;exitDx=0;exitDy=0;entryX=0.454;entryY=0.937;entryDx=0;entryDy=0;entryPerimeter=0;movable=0;resizable=0;rotatable=0;deletable=0;editable=0;locked=1;connectable=0;" parent="nt-hYRIr4ldOG242e9yD-302" source="nt-hYRIr4ldOG242e9yD-39" target="nt-hYRIr4ldOG242e9yD-40" edge="1">
          <mxGeometry width="50" height="50" relative="1" as="geometry">
            <mxPoint x="290" y="220" as="sourcePoint" />
            <mxPoint x="340" y="170" as="targetPoint" />
          </mxGeometry>
        </mxCell>
        <mxCell id="nt-hYRIr4ldOG242e9yD-303" value="has many" style="rhombus;whiteSpace=wrap;html=1;fillColor=#bac8d3;strokeColor=#23445d;fontColor=#000000;movable=0;resizable=0;rotatable=0;deletable=0;editable=0;locked=1;connectable=0;" parent="1" vertex="1">
          <mxGeometry x="2875" y="1292" width="80" height="80" as="geometry" />
        </mxCell>
        <mxCell id="nt-hYRIr4ldOG242e9yD-304" value="" style="endArrow=none;html=1;rounded=0;exitX=0.5;exitY=1;exitDx=0;exitDy=0;entryX=0.5;entryY=0;entryDx=0;entryDy=0;movable=0;resizable=0;rotatable=0;deletable=0;editable=0;locked=1;connectable=0;" parent="1" source="nt-hYRIr4ldOG242e9yD-34" target="nt-hYRIr4ldOG242e9yD-303" edge="1">
          <mxGeometry relative="1" as="geometry">
            <mxPoint x="2900" y="1200" as="sourcePoint" />
            <mxPoint x="3060" y="1200" as="targetPoint" />
          </mxGeometry>
        </mxCell>
        <mxCell id="nt-hYRIr4ldOG242e9yD-305" value="" style="resizable=0;html=1;whiteSpace=wrap;align=right;verticalAlign=bottom;movable=0;rotatable=0;deletable=0;editable=0;locked=1;connectable=0;" parent="nt-hYRIr4ldOG242e9yD-304" connectable="0" vertex="1">
          <mxGeometry x="1" relative="1" as="geometry" />
        </mxCell>
        <mxCell id="nt-hYRIr4ldOG242e9yD-308" value="" style="shape=link;html=1;rounded=0;exitX=0;exitY=0.5;exitDx=0;exitDy=0;entryX=1;entryY=0.5;entryDx=0;entryDy=0;movable=0;resizable=0;rotatable=0;deletable=0;editable=0;locked=1;connectable=0;" parent="1" source="nt-hYRIr4ldOG242e9yD-303" target="nt-hYRIr4ldOG242e9yD-39" edge="1">
          <mxGeometry relative="1" as="geometry">
            <mxPoint x="2670" y="1410" as="sourcePoint" />
            <mxPoint x="2830" y="1410" as="targetPoint" />
          </mxGeometry>
        </mxCell>
        <mxCell id="nt-hYRIr4ldOG242e9yD-309" value="" style="resizable=0;html=1;whiteSpace=wrap;align=right;verticalAlign=bottom;movable=0;rotatable=0;deletable=0;editable=0;locked=1;connectable=0;" parent="nt-hYRIr4ldOG242e9yD-308" connectable="0" vertex="1">
          <mxGeometry x="1" relative="1" as="geometry" />
        </mxCell>
        <mxCell id="nt-hYRIr4ldOG242e9yD-310" value="have" style="rhombus;whiteSpace=wrap;html=1;fillColor=#bac8d3;strokeColor=#23445d;fontColor=#000000;movable=0;resizable=0;rotatable=0;deletable=0;editable=0;locked=1;connectable=0;" parent="1" vertex="1">
          <mxGeometry x="3093" y="1292" width="80" height="80" as="geometry" />
        </mxCell>
        <mxCell id="nt-hYRIr4ldOG242e9yD-315" value="" style="endArrow=none;html=1;rounded=0;entryX=1;entryY=0.5;entryDx=0;entryDy=0;exitX=0.5;exitY=0;exitDx=0;exitDy=0;movable=0;resizable=0;rotatable=0;deletable=0;editable=0;locked=1;connectable=0;" parent="1" source="nt-hYRIr4ldOG242e9yD-310" target="nt-hYRIr4ldOG242e9yD-34" edge="1">
          <mxGeometry relative="1" as="geometry">
            <mxPoint x="2990" y="1170" as="sourcePoint" />
            <mxPoint x="3150" y="1170" as="targetPoint" />
            <Array as="points">
              <mxPoint x="3130" y="1032" />
            </Array>
          </mxGeometry>
        </mxCell>
        <mxCell id="nt-hYRIr4ldOG242e9yD-316" value="" style="resizable=0;html=1;whiteSpace=wrap;align=right;verticalAlign=bottom;movable=0;rotatable=0;deletable=0;editable=0;locked=1;connectable=0;" parent="nt-hYRIr4ldOG242e9yD-315" connectable="0" vertex="1">
          <mxGeometry x="1" relative="1" as="geometry" />
        </mxCell>
        <mxCell id="nt-hYRIr4ldOG242e9yD-317" value="1" style="text;html=1;align=center;verticalAlign=middle;resizable=0;points=[];autosize=1;strokeColor=none;fillColor=none;fontSize=16;fontStyle=3;fontColor=#000000;movable=0;rotatable=0;deletable=0;editable=0;locked=1;connectable=0;" parent="1" vertex="1">
          <mxGeometry x="3029" y="1005" width="30" height="30" as="geometry" />
        </mxCell>
        <mxCell id="nt-hYRIr4ldOG242e9yD-318" value="1" style="text;html=1;align=center;verticalAlign=middle;resizable=0;points=[];autosize=1;strokeColor=none;fillColor=none;fontSize=16;fontStyle=3;fontColor=#000000;movable=0;rotatable=0;deletable=0;editable=0;locked=1;connectable=0;" parent="1" vertex="1">
          <mxGeometry x="2880" y="1170" width="30" height="30" as="geometry" />
        </mxCell>
        <mxCell id="nt-hYRIr4ldOG242e9yD-319" value="1" style="text;html=1;align=center;verticalAlign=middle;resizable=0;points=[];autosize=1;strokeColor=none;fillColor=none;fontSize=16;fontStyle=3;fontColor=#000000;movable=0;rotatable=0;deletable=0;editable=0;locked=1;connectable=0;" parent="1" vertex="1">
          <mxGeometry x="2580" y="895" width="30" height="30" as="geometry" />
        </mxCell>
        <mxCell id="nt-hYRIr4ldOG242e9yD-320" value="1" style="text;html=1;align=center;verticalAlign=middle;resizable=0;points=[];autosize=1;strokeColor=none;fillColor=none;fontSize=16;fontStyle=3;fontColor=#000000;movable=0;rotatable=0;deletable=0;editable=0;locked=1;connectable=0;" parent="1" vertex="1">
          <mxGeometry x="2745" y="1005" width="30" height="30" as="geometry" />
        </mxCell>
        <mxCell id="nt-hYRIr4ldOG242e9yD-321" value="1" style="text;html=1;align=center;verticalAlign=middle;resizable=0;points=[];autosize=1;strokeColor=none;fillColor=none;fontSize=16;fontStyle=3;fontColor=#000000;movable=0;rotatable=0;deletable=0;editable=0;locked=1;connectable=0;" parent="1" vertex="1">
          <mxGeometry x="2888" y="775" width="30" height="30" as="geometry" />
        </mxCell>
        <mxCell id="nt-hYRIr4ldOG242e9yD-322" value="1" style="text;html=1;align=center;verticalAlign=middle;resizable=0;points=[];autosize=1;strokeColor=none;fillColor=none;fontSize=16;fontStyle=3;fontColor=#000000;movable=0;rotatable=0;deletable=0;editable=0;locked=1;connectable=0;" parent="1" vertex="1">
          <mxGeometry x="2183" y="775" width="30" height="30" as="geometry" />
        </mxCell>
        <mxCell id="nt-hYRIr4ldOG242e9yD-323" value="1" style="text;html=1;align=center;verticalAlign=middle;resizable=0;points=[];autosize=1;strokeColor=none;fillColor=none;fontSize=16;fontStyle=3;fontColor=#000000;movable=0;rotatable=0;deletable=0;editable=0;locked=1;connectable=0;" parent="1" vertex="1">
          <mxGeometry x="1489" y="775" width="30" height="30" as="geometry" />
        </mxCell>
        <mxCell id="nt-hYRIr4ldOG242e9yD-324" value="M" style="text;html=1;align=center;verticalAlign=middle;resizable=0;points=[];autosize=1;strokeColor=none;fillColor=none;fontSize=16;fontStyle=3;fontColor=#000000;movable=0;rotatable=0;deletable=0;editable=0;locked=1;connectable=0;" parent="1" vertex="1">
          <mxGeometry x="3328" y="780" width="40" height="30" as="geometry" />
        </mxCell>
        <mxCell id="nt-hYRIr4ldOG242e9yD-325" value="1" style="text;html=1;align=center;verticalAlign=middle;resizable=0;points=[];autosize=1;strokeColor=none;fillColor=none;fontSize=16;fontStyle=3;fontColor=#000000;movable=0;rotatable=0;deletable=0;editable=0;locked=1;connectable=0;" parent="1" vertex="1">
          <mxGeometry x="3093" y="1162" width="30" height="30" as="geometry" />
        </mxCell>
        <mxCell id="nt-hYRIr4ldOG242e9yD-326" value="" style="shape=link;html=1;rounded=0;entryX=1;entryY=0.5;entryDx=0;entryDy=0;movable=0;resizable=0;rotatable=0;deletable=0;editable=0;locked=1;connectable=0;" parent="1" source="nt-hYRIr4ldOG242e9yD-8" target="nt-hYRIr4ldOG242e9yD-310" edge="1">
          <mxGeometry relative="1" as="geometry">
            <mxPoint x="3090" y="1210" as="sourcePoint" />
            <mxPoint x="3250" y="1210" as="targetPoint" />
          </mxGeometry>
        </mxCell>
        <mxCell id="nt-hYRIr4ldOG242e9yD-327" value="" style="resizable=0;html=1;whiteSpace=wrap;align=right;verticalAlign=bottom;movable=0;rotatable=0;deletable=0;editable=0;locked=1;connectable=0;" parent="nt-hYRIr4ldOG242e9yD-326" connectable="0" vertex="1">
          <mxGeometry x="1" relative="1" as="geometry" />
        </mxCell>
        <mxCell id="nt-hYRIr4ldOG242e9yD-328" value="M" style="text;html=1;align=center;verticalAlign=middle;resizable=0;points=[];autosize=1;strokeColor=none;fillColor=none;fontSize=16;fontStyle=3;fontColor=#000000;movable=0;rotatable=0;deletable=0;editable=0;locked=1;connectable=0;" parent="1" vertex="1">
          <mxGeometry x="3229" y="1342" width="40" height="30" as="geometry" />
        </mxCell>
        <mxCell id="nt-hYRIr4ldOG242e9yD-329" value="has a" style="rhombus;whiteSpace=wrap;html=1;fillColor=#bac8d3;strokeColor=#23445d;fontColor=#000000;movable=0;resizable=0;rotatable=0;deletable=0;editable=0;locked=1;connectable=0;" parent="1" vertex="1">
          <mxGeometry x="1530" y="2545" width="80" height="80" as="geometry" />
        </mxCell>
        <mxCell id="nt-hYRIr4ldOG242e9yD-330" value="" style="endArrow=none;html=1;rounded=0;entryX=1;entryY=0.5;entryDx=0;entryDy=0;exitX=0;exitY=0.5;exitDx=0;exitDy=0;movable=0;resizable=0;rotatable=0;deletable=0;editable=0;locked=1;connectable=0;" parent="1" source="nt-hYRIr4ldOG242e9yD-329" target="nt-hYRIr4ldOG242e9yD-47" edge="1">
          <mxGeometry relative="1" as="geometry">
            <mxPoint x="1340" y="2570" as="sourcePoint" />
            <mxPoint x="1500" y="2570" as="targetPoint" />
          </mxGeometry>
        </mxCell>
        <mxCell id="nt-hYRIr4ldOG242e9yD-331" value="" style="resizable=0;html=1;whiteSpace=wrap;align=right;verticalAlign=bottom;movable=0;rotatable=0;deletable=0;editable=0;locked=1;connectable=0;" parent="nt-hYRIr4ldOG242e9yD-330" connectable="0" vertex="1">
          <mxGeometry x="1" relative="1" as="geometry" />
        </mxCell>
        <mxCell id="nt-hYRIr4ldOG242e9yD-332" value="1" style="text;html=1;align=center;verticalAlign=middle;resizable=0;points=[];autosize=1;strokeColor=none;fillColor=none;fontSize=16;fontStyle=3;fontColor=#000000;movable=0;rotatable=0;deletable=0;editable=0;locked=1;connectable=0;" parent="1" vertex="1">
          <mxGeometry x="1392" y="2545" width="30" height="30" as="geometry" />
        </mxCell>
        <mxCell id="nt-hYRIr4ldOG242e9yD-333" value="" style="endArrow=none;html=1;rounded=0;exitX=1;exitY=0.5;exitDx=0;exitDy=0;entryX=0;entryY=0.5;entryDx=0;entryDy=0;movable=0;resizable=0;rotatable=0;deletable=0;editable=0;locked=1;connectable=0;" parent="1" source="nt-hYRIr4ldOG242e9yD-329" target="nt-hYRIr4ldOG242e9yD-65" edge="1">
          <mxGeometry relative="1" as="geometry">
            <mxPoint x="1620" y="2594.52" as="sourcePoint" />
            <mxPoint x="1780" y="2594.52" as="targetPoint" />
          </mxGeometry>
        </mxCell>
        <mxCell id="nt-hYRIr4ldOG242e9yD-334" value="" style="resizable=0;html=1;whiteSpace=wrap;align=right;verticalAlign=bottom;movable=0;rotatable=0;deletable=0;editable=0;locked=1;connectable=0;" parent="nt-hYRIr4ldOG242e9yD-333" connectable="0" vertex="1">
          <mxGeometry x="1" relative="1" as="geometry" />
        </mxCell>
        <mxCell id="nt-hYRIr4ldOG242e9yD-335" value="1" style="text;html=1;align=center;verticalAlign=middle;resizable=0;points=[];autosize=1;strokeColor=none;fillColor=none;fontSize=16;fontStyle=3;fontColor=#000000;movable=0;rotatable=0;deletable=0;editable=0;locked=1;connectable=0;" parent="1" vertex="1">
          <mxGeometry x="1680" y="2545" width="30" height="30" as="geometry" />
        </mxCell>
        <mxCell id="nt-hYRIr4ldOG242e9yD-336" value="has a" style="rhombus;whiteSpace=wrap;html=1;fillColor=#bac8d3;strokeColor=#23445d;fontColor=#000000;movable=0;resizable=0;rotatable=0;deletable=0;editable=0;locked=1;connectable=0;" parent="1" vertex="1">
          <mxGeometry x="1192" y="2258" width="80" height="80" as="geometry" />
        </mxCell>
        <mxCell id="nt-hYRIr4ldOG242e9yD-337" value="" style="endArrow=none;html=1;rounded=0;entryX=0.5;entryY=0;entryDx=0;entryDy=0;exitX=0.5;exitY=1;exitDx=0;exitDy=0;movable=0;resizable=0;rotatable=0;deletable=0;editable=0;locked=1;connectable=0;" parent="1" source="nt-hYRIr4ldOG242e9yD-336" target="nt-hYRIr4ldOG242e9yD-47" edge="1">
          <mxGeometry relative="1" as="geometry">
            <mxPoint x="1227" y="2379" as="sourcePoint" />
            <mxPoint x="965" y="2379" as="targetPoint" />
          </mxGeometry>
        </mxCell>
        <mxCell id="nt-hYRIr4ldOG242e9yD-338" value="" style="resizable=0;html=1;whiteSpace=wrap;align=right;verticalAlign=bottom;movable=0;rotatable=0;deletable=0;editable=0;locked=1;connectable=0;" parent="nt-hYRIr4ldOG242e9yD-337" connectable="0" vertex="1">
          <mxGeometry x="1" relative="1" as="geometry" />
        </mxCell>
        <mxCell id="nt-hYRIr4ldOG242e9yD-339" value="" style="shape=link;html=1;rounded=0;exitX=0;exitY=0.5;exitDx=0;exitDy=0;entryX=1;entryY=0.5;entryDx=0;entryDy=0;movable=0;resizable=0;rotatable=0;deletable=0;editable=0;locked=1;connectable=0;" parent="1" source="nt-hYRIr4ldOG242e9yD-336" target="nt-hYRIr4ldOG242e9yD-44" edge="1">
          <mxGeometry relative="1" as="geometry">
            <mxPoint x="1150" y="2370" as="sourcePoint" />
            <mxPoint x="1310" y="2370" as="targetPoint" />
          </mxGeometry>
        </mxCell>
        <mxCell id="nt-hYRIr4ldOG242e9yD-340" value="" style="resizable=0;html=1;whiteSpace=wrap;align=right;verticalAlign=bottom;movable=0;rotatable=0;deletable=0;editable=0;locked=1;connectable=0;" parent="nt-hYRIr4ldOG242e9yD-339" connectable="0" vertex="1">
          <mxGeometry x="1" relative="1" as="geometry" />
        </mxCell>
        <mxCell id="nt-hYRIr4ldOG242e9yD-341" value="0..1" style="text;html=1;align=center;verticalAlign=middle;resizable=0;points=[];autosize=1;strokeColor=none;fillColor=none;fontSize=16;fontStyle=3;fontColor=#000000;movable=0;rotatable=0;deletable=0;editable=0;locked=1;connectable=0;" parent="1" vertex="1">
          <mxGeometry x="1187" y="2425" width="50" height="30" as="geometry" />
        </mxCell>
        <mxCell id="nt-hYRIr4ldOG242e9yD-342" value="1" style="text;html=1;align=center;verticalAlign=middle;resizable=0;points=[];autosize=1;strokeColor=none;fillColor=none;fontSize=16;fontStyle=3;fontColor=#000000;movable=0;rotatable=0;deletable=0;editable=0;locked=1;connectable=0;" parent="1" vertex="1">
          <mxGeometry x="1060" y="2258" width="30" height="30" as="geometry" />
        </mxCell>
        <mxCell id="nt-hYRIr4ldOG242e9yD-343" value="has&amp;nbsp; many" style="rhombus;whiteSpace=wrap;html=1;fillColor=#bac8d3;strokeColor=#23445d;fontColor=#000000;movable=0;resizable=0;rotatable=0;deletable=0;editable=0;locked=1;connectable=0;" parent="1" vertex="1">
          <mxGeometry x="1840" y="2085" width="80" height="80" as="geometry" />
        </mxCell>
        <mxCell id="nt-hYRIr4ldOG242e9yD-344" value="" style="endArrow=none;html=1;rounded=0;entryX=0.5;entryY=0;entryDx=0;entryDy=0;exitX=0;exitY=0.5;exitDx=0;exitDy=0;movable=0;resizable=0;rotatable=0;deletable=0;editable=0;locked=1;connectable=0;" parent="1" source="nt-hYRIr4ldOG242e9yD-343" target="nt-hYRIr4ldOG242e9yD-44" edge="1">
          <mxGeometry relative="1" as="geometry">
            <mxPoint x="1600" y="2130" as="sourcePoint" />
            <mxPoint x="1760" y="2130" as="targetPoint" />
            <Array as="points">
              <mxPoint x="850" y="2120" />
            </Array>
          </mxGeometry>
        </mxCell>
        <mxCell id="nt-hYRIr4ldOG242e9yD-345" value="" style="resizable=0;html=1;whiteSpace=wrap;align=right;verticalAlign=bottom;movable=0;rotatable=0;deletable=0;editable=0;locked=1;connectable=0;" parent="nt-hYRIr4ldOG242e9yD-344" connectable="0" vertex="1">
          <mxGeometry x="1" relative="1" as="geometry" />
        </mxCell>
        <mxCell id="nt-hYRIr4ldOG242e9yD-346" value="" style="endArrow=none;html=1;rounded=0;exitX=0.5;exitY=1;exitDx=0;exitDy=0;movable=0;resizable=0;rotatable=0;deletable=0;editable=0;locked=1;connectable=0;" parent="1" source="nt-hYRIr4ldOG242e9yD-343" edge="1">
          <mxGeometry relative="1" as="geometry">
            <mxPoint x="1370" y="2320" as="sourcePoint" />
            <mxPoint x="1880" y="2560" as="targetPoint" />
          </mxGeometry>
        </mxCell>
        <mxCell id="nt-hYRIr4ldOG242e9yD-347" value="" style="resizable=0;html=1;whiteSpace=wrap;align=right;verticalAlign=bottom;movable=0;rotatable=0;deletable=0;editable=0;locked=1;connectable=0;" parent="nt-hYRIr4ldOG242e9yD-346" connectable="0" vertex="1">
          <mxGeometry x="1" relative="1" as="geometry" />
        </mxCell>
        <mxCell id="nt-hYRIr4ldOG242e9yD-348" value="1" style="text;html=1;align=center;verticalAlign=middle;resizable=0;points=[];autosize=1;strokeColor=none;fillColor=none;fontSize=16;fontStyle=3;fontColor=#000000;movable=0;rotatable=0;deletable=0;editable=0;locked=1;connectable=0;" parent="1" vertex="1">
          <mxGeometry x="1402" y="2080" width="30" height="30" as="geometry" />
        </mxCell>
        <mxCell id="nt-hYRIr4ldOG242e9yD-349" value="1" style="text;html=1;align=center;verticalAlign=middle;resizable=0;points=[];autosize=1;strokeColor=none;fillColor=none;fontSize=16;fontStyle=3;fontColor=#000000;movable=0;rotatable=0;deletable=0;editable=0;locked=1;connectable=0;" parent="1" vertex="1">
          <mxGeometry x="1840" y="2323" width="30" height="30" as="geometry" />
        </mxCell>
        <mxCell id="nt-hYRIr4ldOG242e9yD-350" value="has a" style="rhombus;whiteSpace=wrap;html=1;fillColor=#bac8d3;strokeColor=#23445d;fontColor=#000000;movable=0;resizable=0;rotatable=0;deletable=0;editable=0;locked=1;connectable=0;" parent="1" vertex="1">
          <mxGeometry x="947" y="2545" width="80" height="80" as="geometry" />
        </mxCell>
        <mxCell id="nt-hYRIr4ldOG242e9yD-351" value="" style="endArrow=none;html=1;rounded=0;entryX=1;entryY=0.5;entryDx=0;entryDy=0;exitX=0;exitY=0.5;exitDx=0;exitDy=0;movable=0;resizable=0;rotatable=0;deletable=0;editable=0;locked=1;connectable=0;" parent="1" source="nt-hYRIr4ldOG242e9yD-350" target="nt-hYRIr4ldOG242e9yD-140" edge="1">
          <mxGeometry relative="1" as="geometry">
            <mxPoint x="910" y="2580" as="sourcePoint" />
            <mxPoint x="1070" y="2580" as="targetPoint" />
          </mxGeometry>
        </mxCell>
        <mxCell id="nt-hYRIr4ldOG242e9yD-352" value="" style="resizable=0;html=1;whiteSpace=wrap;align=right;verticalAlign=bottom;movable=0;rotatable=0;deletable=0;editable=0;locked=1;connectable=0;" parent="nt-hYRIr4ldOG242e9yD-351" connectable="0" vertex="1">
          <mxGeometry x="1" relative="1" as="geometry" />
        </mxCell>
        <mxCell id="nt-hYRIr4ldOG242e9yD-353" value="1" style="text;html=1;align=center;verticalAlign=middle;resizable=0;points=[];autosize=1;strokeColor=none;fillColor=none;fontSize=16;fontStyle=3;fontColor=#000000;movable=0;rotatable=0;deletable=0;editable=0;locked=1;connectable=0;" parent="1" vertex="1">
          <mxGeometry x="853" y="2550" width="30" height="30" as="geometry" />
        </mxCell>
        <mxCell id="nt-hYRIr4ldOG242e9yD-354" value="" style="endArrow=none;html=1;rounded=0;entryX=0;entryY=0.5;entryDx=0;entryDy=0;exitX=1;exitY=0.5;exitDx=0;exitDy=0;movable=0;resizable=0;rotatable=0;deletable=0;editable=0;locked=1;connectable=0;" parent="1" source="nt-hYRIr4ldOG242e9yD-350" target="nt-hYRIr4ldOG242e9yD-47" edge="1">
          <mxGeometry relative="1" as="geometry">
            <mxPoint x="957" y="2595" as="sourcePoint" />
            <mxPoint x="790" y="2595" as="targetPoint" />
          </mxGeometry>
        </mxCell>
        <mxCell id="nt-hYRIr4ldOG242e9yD-355" value="" style="resizable=0;html=1;whiteSpace=wrap;align=right;verticalAlign=bottom;movable=0;rotatable=0;deletable=0;editable=0;locked=1;connectable=0;" parent="nt-hYRIr4ldOG242e9yD-354" connectable="0" vertex="1">
          <mxGeometry x="1" relative="1" as="geometry" />
        </mxCell>
        <mxCell id="nt-hYRIr4ldOG242e9yD-356" value="0..1" style="text;html=1;align=center;verticalAlign=middle;resizable=0;points=[];autosize=1;strokeColor=none;fillColor=none;fontSize=16;fontStyle=3;fontColor=#000000;movable=0;rotatable=0;deletable=0;editable=0;locked=1;connectable=0;" parent="1" vertex="1">
          <mxGeometry x="1072" y="2550" width="50" height="30" as="geometry" />
        </mxCell>
        <mxCell id="nt-hYRIr4ldOG242e9yD-357" value="has many" style="rhombus;whiteSpace=wrap;html=1;fillColor=#bac8d3;strokeColor=#23445d;fontColor=#000000;movable=0;resizable=0;rotatable=0;deletable=0;editable=0;locked=1;connectable=0;" parent="1" vertex="1">
          <mxGeometry x="2460" y="1541" width="80" height="80" as="geometry" />
        </mxCell>
        <mxCell id="nt-hYRIr4ldOG242e9yD-358" value="" style="shape=link;html=1;rounded=0;entryX=1;entryY=0.5;entryDx=0;entryDy=0;exitX=0;exitY=0.5;exitDx=0;exitDy=0;movable=0;resizable=0;rotatable=0;deletable=0;editable=0;locked=1;connectable=0;" parent="1" source="nt-hYRIr4ldOG242e9yD-357" target="nt-hYRIr4ldOG242e9yD-52" edge="1">
          <mxGeometry relative="1" as="geometry">
            <mxPoint x="2400" y="1610" as="sourcePoint" />
            <mxPoint x="2560" y="1610" as="targetPoint" />
          </mxGeometry>
        </mxCell>
        <mxCell id="nt-hYRIr4ldOG242e9yD-359" value="" style="resizable=0;html=1;whiteSpace=wrap;align=right;verticalAlign=bottom;movable=0;rotatable=0;deletable=0;editable=0;locked=1;connectable=0;" parent="nt-hYRIr4ldOG242e9yD-358" connectable="0" vertex="1">
          <mxGeometry x="1" relative="1" as="geometry" />
        </mxCell>
        <mxCell id="nt-hYRIr4ldOG242e9yD-360" value="" style="endArrow=none;html=1;rounded=0;entryX=1;entryY=0.5;entryDx=0;entryDy=0;exitX=1;exitY=1;exitDx=0;exitDy=0;movable=0;resizable=0;rotatable=0;deletable=0;editable=0;locked=1;connectable=0;" parent="1" source="nt-hYRIr4ldOG242e9yD-34" target="nt-hYRIr4ldOG242e9yD-357" edge="1">
          <mxGeometry relative="1" as="geometry">
            <mxPoint x="2630" y="1360" as="sourcePoint" />
            <mxPoint x="2790" y="1360" as="targetPoint" />
            <Array as="points">
              <mxPoint x="2966" y="1580" />
            </Array>
          </mxGeometry>
        </mxCell>
        <mxCell id="nt-hYRIr4ldOG242e9yD-361" value="" style="resizable=0;html=1;whiteSpace=wrap;align=right;verticalAlign=bottom;movable=0;rotatable=0;deletable=0;editable=0;locked=1;connectable=0;" parent="nt-hYRIr4ldOG242e9yD-360" connectable="0" vertex="1">
          <mxGeometry x="1" relative="1" as="geometry" />
        </mxCell>
        <mxCell id="nt-hYRIr4ldOG242e9yD-365" value="have many" style="rhombus;whiteSpace=wrap;html=1;fillColor=#bac8d3;strokeColor=#23445d;fontColor=#000000;movable=0;resizable=0;rotatable=0;deletable=0;editable=0;locked=1;connectable=0;" parent="1" vertex="1">
          <mxGeometry x="1489" y="1543" width="80" height="80" as="geometry" />
        </mxCell>
        <mxCell id="nt-hYRIr4ldOG242e9yD-366" value="" style="endArrow=none;html=1;rounded=0;entryX=0;entryY=0.5;entryDx=0;entryDy=0;exitX=1;exitY=0.5;exitDx=0;exitDy=0;movable=0;resizable=0;rotatable=0;deletable=0;editable=0;locked=1;connectable=0;" parent="1" source="nt-hYRIr4ldOG242e9yD-365" target="nt-hYRIr4ldOG242e9yD-52" edge="1">
          <mxGeometry relative="1" as="geometry">
            <mxPoint x="1490" y="1560" as="sourcePoint" />
            <mxPoint x="1650" y="1560" as="targetPoint" />
          </mxGeometry>
        </mxCell>
        <mxCell id="nt-hYRIr4ldOG242e9yD-367" value="" style="resizable=0;html=1;whiteSpace=wrap;align=right;verticalAlign=bottom;movable=0;rotatable=0;deletable=0;editable=0;locked=1;connectable=0;" parent="nt-hYRIr4ldOG242e9yD-366" connectable="0" vertex="1">
          <mxGeometry x="1" relative="1" as="geometry" />
        </mxCell>
        <mxCell id="nt-hYRIr4ldOG242e9yD-368" value="" style="shape=link;html=1;rounded=0;entryX=1;entryY=0.5;entryDx=0;entryDy=0;exitX=0;exitY=0.5;exitDx=0;exitDy=0;movable=0;resizable=0;rotatable=0;deletable=0;editable=0;locked=1;connectable=0;" parent="1" source="nt-hYRIr4ldOG242e9yD-365" target="nt-hYRIr4ldOG242e9yD-61" edge="1">
          <mxGeometry relative="1" as="geometry">
            <mxPoint x="1490" y="1560" as="sourcePoint" />
            <mxPoint x="1650" y="1560" as="targetPoint" />
          </mxGeometry>
        </mxCell>
        <mxCell id="nt-hYRIr4ldOG242e9yD-369" value="" style="resizable=0;html=1;whiteSpace=wrap;align=right;verticalAlign=bottom;movable=0;rotatable=0;deletable=0;editable=0;locked=1;connectable=0;" parent="nt-hYRIr4ldOG242e9yD-368" connectable="0" vertex="1">
          <mxGeometry x="1" relative="1" as="geometry" />
        </mxCell>
        <mxCell id="nt-hYRIr4ldOG242e9yD-372" value="1" style="text;html=1;align=center;verticalAlign=middle;resizable=0;points=[];autosize=1;strokeColor=none;fillColor=none;fontSize=16;fontStyle=3;fontColor=#000000;movable=0;rotatable=0;deletable=0;editable=0;locked=1;connectable=0;" parent="1" vertex="1">
          <mxGeometry x="2925" y="1543" width="30" height="30" as="geometry" />
        </mxCell>
        <mxCell id="nt-hYRIr4ldOG242e9yD-373" value="N" style="text;html=1;align=center;verticalAlign=middle;resizable=0;points=[];autosize=1;strokeColor=none;fillColor=none;fontSize=16;fontStyle=3;fontColor=#000000;movable=0;rotatable=0;deletable=0;editable=0;locked=1;connectable=0;" parent="1" vertex="1">
          <mxGeometry x="2178" y="1543" width="40" height="30" as="geometry" />
        </mxCell>
        <mxCell id="nt-hYRIr4ldOG242e9yD-374" value="N" style="text;html=1;align=center;verticalAlign=middle;resizable=0;points=[];autosize=1;strokeColor=none;fillColor=none;fontSize=16;fontStyle=3;fontColor=#000000;movable=0;rotatable=0;deletable=0;editable=0;locked=1;connectable=0;" parent="1" vertex="1">
          <mxGeometry x="1337" y="1543" width="40" height="30" as="geometry" />
        </mxCell>
        <mxCell id="nt-hYRIr4ldOG242e9yD-375" value="1" style="text;html=1;align=center;verticalAlign=middle;resizable=0;points=[];autosize=1;strokeColor=none;fillColor=none;fontSize=16;fontStyle=3;fontColor=#000000;movable=0;rotatable=0;deletable=0;editable=0;locked=1;connectable=0;" parent="1" vertex="1">
          <mxGeometry x="1680" y="1550" width="30" height="30" as="geometry" />
        </mxCell>
        <mxCell id="nt-hYRIr4ldOG242e9yD-376" value="Has many" style="rhombus;whiteSpace=wrap;html=1;fillColor=#bac8d3;strokeColor=#23445d;fontColor=#000000;movable=0;resizable=0;rotatable=0;deletable=0;editable=0;locked=1;connectable=0;" parent="1" vertex="1">
          <mxGeometry x="2973" y="1871" width="80" height="80" as="geometry" />
        </mxCell>
        <mxCell id="nt-hYRIr4ldOG242e9yD-377" value="" style="endArrow=none;html=1;rounded=0;entryX=1;entryY=0.75;entryDx=0;entryDy=0;exitX=0.5;exitY=0;exitDx=0;exitDy=0;movable=0;resizable=0;rotatable=0;deletable=0;editable=0;locked=1;connectable=0;" parent="1" source="nt-hYRIr4ldOG242e9yD-376" target="nt-hYRIr4ldOG242e9yD-34" edge="1">
          <mxGeometry relative="1" as="geometry">
            <mxPoint x="2910" y="1978.47" as="sourcePoint" />
            <mxPoint x="3070" y="1978.47" as="targetPoint" />
            <Array as="points">
              <mxPoint x="3000" y="1042" />
            </Array>
          </mxGeometry>
        </mxCell>
        <mxCell id="nt-hYRIr4ldOG242e9yD-378" value="" style="resizable=0;html=1;whiteSpace=wrap;align=right;verticalAlign=bottom;movable=0;rotatable=0;deletable=0;editable=0;locked=1;connectable=0;" parent="nt-hYRIr4ldOG242e9yD-377" connectable="0" vertex="1">
          <mxGeometry x="1" relative="1" as="geometry" />
        </mxCell>
        <mxCell id="nt-hYRIr4ldOG242e9yD-383" value="1" style="text;html=1;align=center;verticalAlign=middle;resizable=0;points=[];autosize=1;strokeColor=none;fillColor=none;fontSize=16;fontStyle=3;fontColor=#000000;movable=0;rotatable=0;deletable=0;editable=0;locked=1;connectable=0;" parent="1" vertex="1">
          <mxGeometry x="3008" y="1543" width="30" height="30" as="geometry" />
        </mxCell>
        <mxCell id="nt-hYRIr4ldOG242e9yD-385" value="" style="shape=link;html=1;rounded=0;entryX=1;entryY=0.5;entryDx=0;entryDy=0;exitX=0;exitY=0.5;exitDx=0;exitDy=0;movable=0;resizable=0;rotatable=0;deletable=0;editable=0;locked=1;connectable=0;" parent="1" source="nt-hYRIr4ldOG242e9yD-376" target="nt-hYRIr4ldOG242e9yD-63" edge="1">
          <mxGeometry relative="1" as="geometry">
            <mxPoint x="2670" y="1900" as="sourcePoint" />
            <mxPoint x="2830" y="1900" as="targetPoint" />
          </mxGeometry>
        </mxCell>
        <mxCell id="nt-hYRIr4ldOG242e9yD-386" value="" style="resizable=0;html=1;whiteSpace=wrap;align=right;verticalAlign=bottom;movable=0;rotatable=0;deletable=0;editable=0;locked=1;connectable=0;" parent="nt-hYRIr4ldOG242e9yD-385" connectable="0" vertex="1">
          <mxGeometry x="1" relative="1" as="geometry" />
        </mxCell>
        <mxCell id="nt-hYRIr4ldOG242e9yD-387" value="1" style="text;html=1;align=center;verticalAlign=middle;resizable=0;points=[];autosize=1;strokeColor=none;fillColor=none;fontSize=16;fontStyle=3;fontColor=#000000;movable=0;rotatable=0;deletable=0;editable=0;locked=1;connectable=0;" parent="1" vertex="1">
          <mxGeometry x="2720" y="1870" width="30" height="30" as="geometry" />
        </mxCell>
        <mxCell id="nt-hYRIr4ldOG242e9yD-388" value="have many" style="rhombus;whiteSpace=wrap;html=1;fillColor=#bac8d3;strokeColor=#23445d;fontColor=#000000;movable=0;resizable=0;rotatable=0;deletable=0;editable=0;locked=1;connectable=0;" parent="1" vertex="1">
          <mxGeometry x="1611" y="1870" width="80" height="80" as="geometry" />
        </mxCell>
        <mxCell id="nt-hYRIr4ldOG242e9yD-389" value="" style="endArrow=none;html=1;rounded=0;entryX=0;entryY=0.5;entryDx=0;entryDy=0;exitX=1;exitY=0.5;exitDx=0;exitDy=0;movable=0;resizable=0;rotatable=0;deletable=0;editable=0;locked=1;connectable=0;" parent="1" source="nt-hYRIr4ldOG242e9yD-47" target="nt-hYRIr4ldOG242e9yD-388" edge="1">
          <mxGeometry relative="1" as="geometry">
            <mxPoint x="1290.05" y="2597.1600000000003" as="sourcePoint" />
            <mxPoint x="1621.25" y="1930" as="targetPoint" />
            <Array as="points">
              <mxPoint x="1320" y="2580" />
              <mxPoint x="1320" y="1910" />
            </Array>
          </mxGeometry>
        </mxCell>
        <mxCell id="nt-hYRIr4ldOG242e9yD-390" value="" style="resizable=0;html=1;whiteSpace=wrap;align=right;verticalAlign=bottom;movable=0;rotatable=0;deletable=0;editable=0;locked=1;connectable=0;" parent="nt-hYRIr4ldOG242e9yD-389" connectable="0" vertex="1">
          <mxGeometry x="1" relative="1" as="geometry" />
        </mxCell>
        <mxCell id="nt-hYRIr4ldOG242e9yD-391" value="" style="shape=link;html=1;rounded=0;exitX=1;exitY=0.5;exitDx=0;exitDy=0;entryX=0;entryY=0.5;entryDx=0;entryDy=0;movable=0;resizable=0;rotatable=0;deletable=0;editable=0;locked=1;connectable=0;" parent="1" source="nt-hYRIr4ldOG242e9yD-388" target="nt-hYRIr4ldOG242e9yD-63" edge="1">
          <mxGeometry relative="1" as="geometry">
            <mxPoint x="1550" y="2150" as="sourcePoint" />
            <mxPoint x="1710" y="2150" as="targetPoint" />
          </mxGeometry>
        </mxCell>
        <mxCell id="nt-hYRIr4ldOG242e9yD-392" value="" style="resizable=0;html=1;whiteSpace=wrap;align=right;verticalAlign=bottom;movable=0;rotatable=0;deletable=0;editable=0;locked=1;connectable=0;" parent="nt-hYRIr4ldOG242e9yD-391" connectable="0" vertex="1">
          <mxGeometry x="1" relative="1" as="geometry" />
        </mxCell>
        <mxCell id="nt-hYRIr4ldOG242e9yD-393" value="1" style="text;html=1;align=center;verticalAlign=middle;resizable=0;points=[];autosize=1;strokeColor=none;fillColor=none;fontSize=16;fontStyle=3;fontColor=#000000;movable=0;rotatable=0;deletable=0;editable=0;locked=1;connectable=0;" parent="1" vertex="1">
          <mxGeometry x="1432" y="1871" width="30" height="30" as="geometry" />
        </mxCell>
        <mxCell id="nt-hYRIr4ldOG242e9yD-396" value="M" style="text;html=1;align=center;verticalAlign=middle;resizable=0;points=[];autosize=1;strokeColor=none;fillColor=none;fontSize=16;fontStyle=3;fontColor=#000000;movable=0;rotatable=0;deletable=0;editable=0;locked=1;connectable=0;" parent="1" vertex="1">
          <mxGeometry x="2008" y="1871" width="40" height="30" as="geometry" />
        </mxCell>
        <mxCell id="nt-hYRIr4ldOG242e9yD-397" value="has many" style="rhombus;whiteSpace=wrap;html=1;fillColor=#bac8d3;strokeColor=#23445d;fontColor=#000000;movable=0;resizable=0;rotatable=0;deletable=0;editable=0;locked=1;connectable=0;" parent="1" vertex="1">
          <mxGeometry x="2720" y="2203.5" width="80" height="80" as="geometry" />
        </mxCell>
        <mxCell id="nt-hYRIr4ldOG242e9yD-398" value="" style="endArrow=none;html=1;rounded=0;exitX=1;exitY=0.75;exitDx=0;exitDy=0;entryX=0.5;entryY=0;entryDx=0;entryDy=0;movable=0;resizable=0;rotatable=0;deletable=0;editable=0;locked=1;connectable=0;" parent="1" source="nt-hYRIr4ldOG242e9yD-63" target="nt-hYRIr4ldOG242e9yD-397" edge="1">
          <mxGeometry relative="1" as="geometry">
            <mxPoint x="2380" y="2250" as="sourcePoint" />
            <mxPoint x="2820" y="1960" as="targetPoint" />
            <Array as="points">
              <mxPoint x="2760" y="1921" />
            </Array>
          </mxGeometry>
        </mxCell>
        <mxCell id="nt-hYRIr4ldOG242e9yD-399" value="" style="resizable=0;html=1;whiteSpace=wrap;align=right;verticalAlign=bottom;movable=0;rotatable=0;deletable=0;editable=0;locked=1;connectable=0;" parent="nt-hYRIr4ldOG242e9yD-398" connectable="0" vertex="1">
          <mxGeometry x="1" relative="1" as="geometry" />
        </mxCell>
        <mxCell id="nt-hYRIr4ldOG242e9yD-400" value="" style="shape=link;html=1;rounded=0;exitX=1;exitY=0.5;exitDx=0;exitDy=0;entryX=0;entryY=0.5;entryDx=0;entryDy=0;movable=0;resizable=0;rotatable=0;deletable=0;editable=0;locked=1;connectable=0;" parent="1" source="nt-hYRIr4ldOG242e9yD-397" target="nt-hYRIr4ldOG242e9yD-64" edge="1">
          <mxGeometry relative="1" as="geometry">
            <mxPoint x="2380" y="2250" as="sourcePoint" />
            <mxPoint x="2540" y="2250" as="targetPoint" />
          </mxGeometry>
        </mxCell>
        <mxCell id="nt-hYRIr4ldOG242e9yD-401" value="" style="resizable=0;html=1;whiteSpace=wrap;align=right;verticalAlign=bottom;movable=0;rotatable=0;deletable=0;editable=0;locked=1;connectable=0;" parent="nt-hYRIr4ldOG242e9yD-400" connectable="0" vertex="1">
          <mxGeometry x="1" relative="1" as="geometry" />
        </mxCell>
        <mxCell id="nt-hYRIr4ldOG242e9yD-402" value="1" style="text;html=1;align=center;verticalAlign=middle;resizable=0;points=[];autosize=1;strokeColor=none;fillColor=none;fontSize=16;fontStyle=3;fontColor=#000000;movable=0;rotatable=0;deletable=0;editable=0;locked=1;connectable=0;" parent="1" vertex="1">
          <mxGeometry x="2770" y="2045" width="30" height="30" as="geometry" />
        </mxCell>
        <mxCell id="nt-hYRIr4ldOG242e9yD-403" value="M" style="text;html=1;align=center;verticalAlign=middle;resizable=0;points=[];autosize=1;strokeColor=none;fillColor=none;fontSize=16;fontStyle=3;fontColor=#000000;movable=0;rotatable=0;deletable=0;editable=0;locked=1;connectable=0;" parent="1" vertex="1">
          <mxGeometry x="2955" y="2203.5" width="40" height="30" as="geometry" />
        </mxCell>
        <mxCell id="nt-hYRIr4ldOG242e9yD-404" value="has many" style="rhombus;whiteSpace=wrap;html=1;fillColor=#bac8d3;strokeColor=#23445d;fontColor=#000000;movable=0;resizable=0;rotatable=0;deletable=0;editable=0;locked=1;connectable=0;" parent="1" vertex="1">
          <mxGeometry x="2150" y="2545" width="80" height="80" as="geometry" />
        </mxCell>
        <mxCell id="nt-hYRIr4ldOG242e9yD-405" value="" style="endArrow=none;html=1;rounded=0;exitX=1;exitY=0.5;exitDx=0;exitDy=0;movable=0;resizable=0;rotatable=0;deletable=0;editable=0;locked=1;connectable=0;" parent="1" source="nt-hYRIr4ldOG242e9yD-65" target="nt-hYRIr4ldOG242e9yD-404" edge="1">
          <mxGeometry relative="1" as="geometry">
            <mxPoint x="2070" y="2690" as="sourcePoint" />
            <mxPoint x="2230" y="2690" as="targetPoint" />
          </mxGeometry>
        </mxCell>
        <mxCell id="nt-hYRIr4ldOG242e9yD-406" value="" style="resizable=0;html=1;whiteSpace=wrap;align=right;verticalAlign=bottom;movable=0;rotatable=0;deletable=0;editable=0;locked=1;connectable=0;" parent="nt-hYRIr4ldOG242e9yD-405" connectable="0" vertex="1">
          <mxGeometry x="1" relative="1" as="geometry" />
        </mxCell>
        <mxCell id="nt-hYRIr4ldOG242e9yD-407" value="" style="shape=link;html=1;rounded=0;exitX=1;exitY=0.5;exitDx=0;exitDy=0;entryX=0;entryY=0.5;entryDx=0;entryDy=0;movable=0;resizable=0;rotatable=0;deletable=0;editable=0;locked=1;connectable=0;" parent="1" source="nt-hYRIr4ldOG242e9yD-404" target="nt-hYRIr4ldOG242e9yD-66" edge="1">
          <mxGeometry relative="1" as="geometry">
            <mxPoint x="2070" y="2690" as="sourcePoint" />
            <mxPoint x="2230" y="2690" as="targetPoint" />
          </mxGeometry>
        </mxCell>
        <mxCell id="nt-hYRIr4ldOG242e9yD-408" value="" style="resizable=0;html=1;whiteSpace=wrap;align=right;verticalAlign=bottom;movable=0;rotatable=0;deletable=0;editable=0;locked=1;connectable=0;" parent="nt-hYRIr4ldOG242e9yD-407" connectable="0" vertex="1">
          <mxGeometry x="1" relative="1" as="geometry" />
        </mxCell>
        <mxCell id="nt-hYRIr4ldOG242e9yD-409" value="1" style="text;html=1;align=center;verticalAlign=middle;resizable=0;points=[];autosize=1;strokeColor=none;fillColor=none;fontSize=16;fontStyle=3;fontColor=#000000;movable=0;rotatable=0;deletable=0;editable=0;locked=1;connectable=0;" parent="1" vertex="1">
          <mxGeometry x="2030" y="2550" width="30" height="30" as="geometry" />
        </mxCell>
        <mxCell id="nt-hYRIr4ldOG242e9yD-410" value="M" style="text;html=1;align=center;verticalAlign=middle;resizable=0;points=[];autosize=1;strokeColor=none;fillColor=none;fontSize=16;fontStyle=3;fontColor=#000000;movable=0;rotatable=0;deletable=0;editable=0;locked=1;connectable=0;" parent="1" vertex="1">
          <mxGeometry x="2295" y="2545" width="40" height="30" as="geometry" />
        </mxCell>
        <mxCell id="nt-hYRIr4ldOG242e9yD-411" value="has many" style="rhombus;whiteSpace=wrap;html=1;fillColor=#bac8d3;strokeColor=#23445d;fontColor=#000000;movable=0;resizable=0;rotatable=0;deletable=0;editable=0;locked=1;connectable=0;" parent="1" vertex="1">
          <mxGeometry x="3521" y="998.5" width="49" height="49" as="geometry" />
        </mxCell>
        <mxCell id="nt-hYRIr4ldOG242e9yD-412" value="" style="endArrow=none;html=1;rounded=0;exitX=1;exitY=0.25;exitDx=0;exitDy=0;entryX=0;entryY=0.5;entryDx=0;entryDy=0;movable=0;resizable=0;rotatable=0;deletable=0;editable=0;locked=1;connectable=0;" parent="1" source="nt-hYRIr4ldOG242e9yD-34" target="nt-hYRIr4ldOG242e9yD-411" edge="1">
          <mxGeometry relative="1" as="geometry">
            <mxPoint x="3230" y="1010" as="sourcePoint" />
            <mxPoint x="3390" y="1010" as="targetPoint" />
          </mxGeometry>
        </mxCell>
        <mxCell id="nt-hYRIr4ldOG242e9yD-413" value="" style="resizable=0;html=1;whiteSpace=wrap;align=right;verticalAlign=bottom;movable=0;rotatable=0;deletable=0;editable=0;locked=1;connectable=0;" parent="nt-hYRIr4ldOG242e9yD-412" connectable="0" vertex="1">
          <mxGeometry x="1" relative="1" as="geometry" />
        </mxCell>
        <mxCell id="nt-hYRIr4ldOG242e9yD-414" value="" style="shape=link;html=1;rounded=0;exitX=1;exitY=0.5;exitDx=0;exitDy=0;entryX=0;entryY=0.5;entryDx=0;entryDy=0;movable=0;resizable=0;rotatable=0;deletable=0;editable=0;locked=1;connectable=0;" parent="1" source="nt-hYRIr4ldOG242e9yD-411" target="nt-hYRIr4ldOG242e9yD-67" edge="1">
          <mxGeometry relative="1" as="geometry">
            <mxPoint x="3599" y="1058.5" as="sourcePoint" />
            <mxPoint x="3759" y="1058.5" as="targetPoint" />
          </mxGeometry>
        </mxCell>
        <mxCell id="nt-hYRIr4ldOG242e9yD-415" value="" style="resizable=0;html=1;whiteSpace=wrap;align=right;verticalAlign=bottom;movable=0;rotatable=0;deletable=0;editable=0;locked=1;connectable=0;" parent="nt-hYRIr4ldOG242e9yD-414" connectable="0" vertex="1">
          <mxGeometry x="1" relative="1" as="geometry" />
        </mxCell>
        <mxCell id="nt-hYRIr4ldOG242e9yD-416" value="M" style="text;html=1;align=center;verticalAlign=middle;resizable=0;points=[];autosize=1;strokeColor=none;fillColor=none;fontSize=16;fontStyle=3;fontColor=#000000;movable=0;rotatable=0;deletable=0;editable=0;locked=1;connectable=0;" parent="1" vertex="1">
          <mxGeometry x="3759" y="995" width="40" height="30" as="geometry" />
        </mxCell>
        <mxCell id="nt-hYRIr4ldOG242e9yD-417" value="1" style="text;html=1;align=center;verticalAlign=middle;resizable=0;points=[];autosize=1;strokeColor=none;fillColor=none;fontSize=16;fontStyle=3;fontColor=#000000;movable=0;rotatable=0;deletable=0;editable=0;locked=1;connectable=0;" parent="1" vertex="1">
          <mxGeometry x="3218" y="998" width="30" height="30" as="geometry" />
        </mxCell>
        <mxCell id="nt-hYRIr4ldOG242e9yD-418" value="&lt;font style=&quot;font-size: 8px;&quot;&gt;has many&lt;/font&gt;" style="rhombus;whiteSpace=wrap;html=1;fillColor=#bac8d3;strokeColor=#23445d;fontColor=#000000;movable=0;resizable=0;rotatable=0;deletable=0;editable=0;locked=1;connectable=0;" parent="1" vertex="1">
          <mxGeometry x="2335" y="1079" width="40" height="40" as="geometry" />
        </mxCell>
        <mxCell id="nt-hYRIr4ldOG242e9yD-419" value="" style="endArrow=none;html=1;rounded=0;entryX=0.25;entryY=1;entryDx=0;entryDy=0;exitX=1;exitY=0.5;exitDx=0;exitDy=0;movable=0;resizable=0;rotatable=0;deletable=0;editable=0;locked=1;connectable=0;" parent="1" source="nt-hYRIr4ldOG242e9yD-418" target="nt-hYRIr4ldOG242e9yD-34" edge="1">
          <mxGeometry relative="1" as="geometry">
            <mxPoint x="2220" y="1030" as="sourcePoint" />
            <mxPoint x="2380" y="1030" as="targetPoint" />
            <Array as="points">
              <mxPoint x="2890" y="1100" />
            </Array>
          </mxGeometry>
        </mxCell>
        <mxCell id="nt-hYRIr4ldOG242e9yD-420" value="" style="resizable=0;html=1;whiteSpace=wrap;align=right;verticalAlign=bottom;movable=0;rotatable=0;deletable=0;editable=0;locked=1;connectable=0;" parent="nt-hYRIr4ldOG242e9yD-419" connectable="0" vertex="1">
          <mxGeometry x="1" relative="1" as="geometry" />
        </mxCell>
        <mxCell id="nt-hYRIr4ldOG242e9yD-421" value="" style="shape=link;html=1;rounded=0;entryX=1;entryY=0.5;entryDx=0;entryDy=0;exitX=0.139;exitY=0.459;exitDx=0;exitDy=0;exitPerimeter=0;movable=0;resizable=0;rotatable=0;deletable=0;editable=0;locked=1;connectable=0;" parent="1" source="nt-hYRIr4ldOG242e9yD-418" target="nt-hYRIr4ldOG242e9yD-68" edge="1">
          <mxGeometry relative="1" as="geometry">
            <mxPoint x="2330" y="1070" as="sourcePoint" />
            <mxPoint x="2490" y="1070" as="targetPoint" />
          </mxGeometry>
        </mxCell>
        <mxCell id="nt-hYRIr4ldOG242e9yD-422" value="" style="resizable=0;html=1;whiteSpace=wrap;align=right;verticalAlign=bottom;movable=0;rotatable=0;deletable=0;editable=0;locked=1;connectable=0;" parent="nt-hYRIr4ldOG242e9yD-421" connectable="0" vertex="1">
          <mxGeometry x="1" relative="1" as="geometry" />
        </mxCell>
        <mxCell id="nt-hYRIr4ldOG242e9yD-423" value="1" style="text;html=1;align=center;verticalAlign=middle;resizable=0;points=[];autosize=1;strokeColor=none;fillColor=none;fontSize=16;fontStyle=3;fontColor=#000000;movable=0;rotatable=0;deletable=0;editable=0;locked=1;connectable=0;" parent="1" vertex="1">
          <mxGeometry x="2685" y="1072" width="30" height="30" as="geometry" />
        </mxCell>
        <mxCell id="nt-hYRIr4ldOG242e9yD-424" value="M" style="text;html=1;align=center;verticalAlign=middle;resizable=0;points=[];autosize=1;strokeColor=none;fillColor=none;fontSize=16;fontStyle=3;fontColor=#000000;movable=0;rotatable=0;deletable=0;editable=0;locked=1;connectable=0;" parent="1" vertex="1">
          <mxGeometry x="2173" y="1072" width="40" height="30" as="geometry" />
        </mxCell>
        <mxCell id="nt-hYRIr4ldOG242e9yD-425" value="gets many" style="rhombus;whiteSpace=wrap;html=1;fillColor=#bac8d3;strokeColor=#23445d;fontColor=#000000;movable=0;resizable=0;rotatable=0;deletable=0;editable=0;locked=1;connectable=0;" parent="1" vertex="1">
          <mxGeometry x="2580" y="360" width="80" height="80" as="geometry" />
        </mxCell>
        <mxCell id="nt-hYRIr4ldOG242e9yD-426" value="" style="endArrow=none;html=1;rounded=0;entryX=0.5;entryY=1;entryDx=0;entryDy=0;movable=0;resizable=0;rotatable=0;deletable=0;editable=0;locked=1;connectable=0;" parent="1" source="nt-hYRIr4ldOG242e9yD-1" target="nt-hYRIr4ldOG242e9yD-425" edge="1">
          <mxGeometry relative="1" as="geometry">
            <mxPoint x="2670" y="540" as="sourcePoint" />
            <mxPoint x="2830" y="540" as="targetPoint" />
          </mxGeometry>
        </mxCell>
        <mxCell id="nt-hYRIr4ldOG242e9yD-427" value="" style="resizable=0;html=1;whiteSpace=wrap;align=right;verticalAlign=bottom;movable=0;rotatable=0;deletable=0;editable=0;locked=1;connectable=0;" parent="nt-hYRIr4ldOG242e9yD-426" connectable="0" vertex="1">
          <mxGeometry x="1" relative="1" as="geometry" />
        </mxCell>
        <mxCell id="nt-hYRIr4ldOG242e9yD-428" value="" style="shape=link;html=1;rounded=0;exitX=1;exitY=0.5;exitDx=0;exitDy=0;entryX=0;entryY=0.5;entryDx=0;entryDy=0;movable=0;resizable=0;rotatable=0;deletable=0;editable=0;locked=1;connectable=0;" parent="1" source="nt-hYRIr4ldOG242e9yD-425" target="nt-hYRIr4ldOG242e9yD-69" edge="1">
          <mxGeometry relative="1" as="geometry">
            <mxPoint x="2670" y="500" as="sourcePoint" />
            <mxPoint x="2830" y="500" as="targetPoint" />
          </mxGeometry>
        </mxCell>
        <mxCell id="nt-hYRIr4ldOG242e9yD-429" value="" style="resizable=0;html=1;whiteSpace=wrap;align=right;verticalAlign=bottom;movable=0;rotatable=0;deletable=0;editable=0;locked=1;connectable=0;" parent="nt-hYRIr4ldOG242e9yD-428" connectable="0" vertex="1">
          <mxGeometry x="1" relative="1" as="geometry" />
        </mxCell>
        <mxCell id="nt-hYRIr4ldOG242e9yD-430" value="1" style="text;html=1;align=center;verticalAlign=middle;resizable=0;points=[];autosize=1;strokeColor=none;fillColor=none;fontSize=16;fontStyle=3;fontColor=#000000;movable=0;rotatable=0;deletable=0;editable=0;locked=1;connectable=0;" parent="1" vertex="1">
          <mxGeometry x="2620" y="520" width="30" height="30" as="geometry" />
        </mxCell>
        <mxCell id="nt-hYRIr4ldOG242e9yD-431" value="0..M" style="text;html=1;align=center;verticalAlign=middle;resizable=0;points=[];autosize=1;strokeColor=none;fillColor=none;fontSize=16;fontStyle=3;fontColor=#000000;movable=0;rotatable=0;deletable=0;editable=0;locked=1;connectable=0;" parent="1" vertex="1">
          <mxGeometry x="2908" y="370" width="50" height="30" as="geometry" />
        </mxCell>
        <mxCell id="nt-hYRIr4ldOG242e9yD-433" value="has many" style="rhombus;whiteSpace=wrap;html=1;fillColor=#bac8d3;strokeColor=#23445d;fontColor=#000000;movable=0;resizable=0;rotatable=0;deletable=0;editable=0;locked=1;connectable=0;" parent="1" vertex="1">
          <mxGeometry x="2138" y="389" width="80" height="80" as="geometry" />
        </mxCell>
        <mxCell id="nt-hYRIr4ldOG242e9yD-434" value="" style="shape=link;html=1;rounded=0;exitX=1;exitY=0.5;exitDx=0;exitDy=0;entryX=0;entryY=0.5;entryDx=0;entryDy=0;movable=0;resizable=0;rotatable=0;deletable=0;editable=0;locked=1;connectable=0;" parent="1" source="nt-hYRIr4ldOG242e9yD-70" target="nt-hYRIr4ldOG242e9yD-433" edge="1">
          <mxGeometry relative="1" as="geometry">
            <mxPoint x="1990" y="550" as="sourcePoint" />
            <mxPoint x="2150" y="550" as="targetPoint" />
          </mxGeometry>
        </mxCell>
        <mxCell id="nt-hYRIr4ldOG242e9yD-435" value="" style="resizable=0;html=1;whiteSpace=wrap;align=right;verticalAlign=bottom;movable=0;rotatable=0;deletable=0;editable=0;locked=1;connectable=0;" parent="nt-hYRIr4ldOG242e9yD-434" connectable="0" vertex="1">
          <mxGeometry x="1" relative="1" as="geometry" />
        </mxCell>
        <mxCell id="nt-hYRIr4ldOG242e9yD-436" value="M" style="text;html=1;align=center;verticalAlign=middle;resizable=0;points=[];autosize=1;strokeColor=none;fillColor=none;fontSize=16;fontStyle=3;fontColor=#000000;movable=0;rotatable=0;deletable=0;editable=0;locked=1;connectable=0;" parent="1" vertex="1">
          <mxGeometry x="1980" y="400" width="40" height="30" as="geometry" />
        </mxCell>
        <mxCell id="nt-hYRIr4ldOG242e9yD-439" value="" style="endArrow=none;html=1;rounded=0;entryX=0;entryY=0.25;entryDx=0;entryDy=0;exitX=1;exitY=0.5;exitDx=0;exitDy=0;movable=0;resizable=0;rotatable=0;deletable=0;editable=0;locked=1;connectable=0;" parent="1" edge="1">
          <mxGeometry relative="1" as="geometry">
            <mxPoint x="2218" y="427" as="sourcePoint" />
            <mxPoint x="2565" y="798" as="targetPoint" />
            <Array as="points">
              <mxPoint x="2218" y="798" />
            </Array>
          </mxGeometry>
        </mxCell>
        <mxCell id="nt-hYRIr4ldOG242e9yD-441" value="1" style="text;html=1;align=center;verticalAlign=middle;resizable=0;points=[];autosize=1;strokeColor=none;fillColor=none;fontSize=16;fontStyle=3;fontColor=#000000;movable=0;rotatable=0;deletable=0;editable=0;locked=1;connectable=0;" parent="1" vertex="1">
          <mxGeometry x="2215" y="619" width="30" height="30" as="geometry" />
        </mxCell>
        <mxCell id="nt-hYRIr4ldOG242e9yD-442" value="has many" style="rhombus;whiteSpace=wrap;html=1;fillColor=#bac8d3;strokeColor=#23445d;fontColor=#000000;movable=0;resizable=0;rotatable=0;deletable=0;editable=0;locked=1;connectable=0;" parent="1" vertex="1">
          <mxGeometry x="1192" y="2800" width="80" height="80" as="geometry" />
        </mxCell>
        <mxCell id="nt-hYRIr4ldOG242e9yD-443" value="" style="shape=link;html=1;rounded=0;entryX=1;entryY=0.5;entryDx=0;entryDy=0;exitX=0;exitY=0.5;exitDx=0;exitDy=0;movable=0;resizable=0;rotatable=0;deletable=0;editable=0;locked=1;connectable=0;" parent="1" source="nt-hYRIr4ldOG242e9yD-442" target="nt-hYRIr4ldOG242e9yD-157" edge="1">
          <mxGeometry relative="1" as="geometry">
            <mxPoint x="1190" y="2730" as="sourcePoint" />
            <mxPoint x="1350" y="2730" as="targetPoint" />
          </mxGeometry>
        </mxCell>
        <mxCell id="nt-hYRIr4ldOG242e9yD-444" value="" style="resizable=0;html=1;whiteSpace=wrap;align=right;verticalAlign=bottom;movable=0;rotatable=0;deletable=0;editable=0;locked=1;connectable=0;" parent="nt-hYRIr4ldOG242e9yD-443" connectable="0" vertex="1">
          <mxGeometry x="1" relative="1" as="geometry" />
        </mxCell>
        <mxCell id="nt-hYRIr4ldOG242e9yD-445" value="" style="endArrow=none;html=1;rounded=0;exitX=0.5;exitY=0;exitDx=0;exitDy=0;entryX=0.5;entryY=1;entryDx=0;entryDy=0;movable=0;resizable=0;rotatable=0;deletable=0;editable=0;locked=1;connectable=0;" parent="1" source="nt-hYRIr4ldOG242e9yD-442" target="nt-hYRIr4ldOG242e9yD-47" edge="1">
          <mxGeometry relative="1" as="geometry">
            <mxPoint x="1190" y="2730" as="sourcePoint" />
            <mxPoint x="1350" y="2730" as="targetPoint" />
          </mxGeometry>
        </mxCell>
        <mxCell id="nt-hYRIr4ldOG242e9yD-446" value="" style="resizable=0;html=1;whiteSpace=wrap;align=right;verticalAlign=bottom;movable=0;rotatable=0;deletable=0;editable=0;locked=1;connectable=0;" parent="nt-hYRIr4ldOG242e9yD-445" connectable="0" vertex="1">
          <mxGeometry x="1" relative="1" as="geometry" />
        </mxCell>
        <mxCell id="nt-hYRIr4ldOG242e9yD-447" value="1" style="text;html=1;align=center;verticalAlign=middle;resizable=0;points=[];autosize=1;strokeColor=none;fillColor=none;fontSize=16;fontStyle=3;fontColor=#000000;movable=0;rotatable=0;deletable=0;editable=0;locked=1;connectable=0;" parent="1" vertex="1">
          <mxGeometry x="1227" y="2722" width="30" height="30" as="geometry" />
        </mxCell>
        <mxCell id="nt-hYRIr4ldOG242e9yD-448" value="1..M" style="text;html=1;align=center;verticalAlign=middle;resizable=0;points=[];autosize=1;strokeColor=none;fillColor=none;fontSize=16;fontStyle=3;fontColor=#000000;movable=0;rotatable=0;deletable=0;editable=0;locked=1;connectable=0;" parent="1" vertex="1">
          <mxGeometry x="1092" y="2800" width="50" height="30" as="geometry" />
        </mxCell>
      </root>
    </mxGraphModel>
  </diagram>
</mxfile>
